 <svg  version="1.0" xmlns="http://www.w3.org/2000/svg"  width="300.000000pt" height="300.000000pt" viewBox="0 0 300.000000 300.000000"  preserveAspectRatio="xMidYMid meet">  <g transform="translate(0.000000,300.000000) scale(0.100000,-0.100000)" fill="#008000" stroke="none"> <path d="M1355 2994 c-201 -31 -345 -74 -490 -146 -440 -219 -745 -615 -842 -1093 -25 -125 -25 -396 1 -515 105 -498 434 -909 886 -1111 489 -219 1026 -157 1469 169 97 71 252 226 323 323 419 570 394 1291 -63 1836 -220 262 -530 446 -874 518 -78 16 -345 29 -410 19z m435 -372 c167 -46 275 -95 400 -183 528 -372 623 -1183 199 -1696 -408 -495 -1237 -534 -1701 -80 -153 149 -247 317 -310 547 -29 109 -37 381 -13 505 89 480 412 812 890 915 124 27 421 22 535 -8z"/> <path d="M1327 2523 c-4 -3 -7 -53 -7 -109 l0 -104 -27 -6 c-85 -19 -115 -30 -188 -67 -199 -102 -301 -288 -266 -484 33 -185 180 -310 415 -355 l66 -13 0 -182 c0 -101 -2 -183 -5 -183 -4 0 -20 7 -38 16 -70 35 -115 96 -138 188 l-11 46 -159 0 -159 0 0 -28 c0 -15 7 -55 15 -87 43 -167 158 -305 324 -388 51 -26 111 -50 132 -53 l39 -7 0 -113 0 -114 155 0 155 0 0 109 0 108 63 13 c178 35 336 148 414 296 43 82 57 151 50 246 -14 204 -160 339 -422 391 l-105 20 0 164 0 163 23 0 c41 0 106 -56 133 -113 13 -29 24 -58 24 -64 0 -10 39 -13 161 -13 l161 0 -7 57 c-28 225 -206 396 -467 448 l-28 5 0 110 0 110 -148 0 c-82 0 -152 -3 -155 -7z m3 -667 c0 -74 -4 -137 -9 -140 -5 -3 -31 1 -59 9 -135 41 -131 187 8 252 59 27 60 26 60 -121z m401 -541 c159 -57 148 -223 -20 -280 -85 -29 -81 -35 -81 140 l0 155 29 0 c16 0 48 -7 72 -15z"/> </g> </svg> 