 <svg  version="1.0" xmlns="http://www.w3.org/2000/svg"  width="900.000000pt" height="930.000000pt" viewBox="0 0 900.000000 930.000000"  preserveAspectRatio="xMidYMid meet">  <g transform="translate(0.000000,930.000000) scale(0.100000,-0.100000)" fill="#f33443" stroke="none"> <path d="M6010 9243 c-12 -16 -32 -44 -45 -63 -13 -19 -50 -72 -82 -118 -32 -46 -63 -91 -68 -100 -6 -9 -22 -35 -35 -57 -14 -22 -31 -49 -37 -60 -81 -140 -114 -201 -143 -260 -19 -38 -38 -71 -42 -73 -5 -2 -8 -14 -8 -27 0 -12 -7 -28 -15 -35 -21 -18 -18 -47 6 -61 18 -9 26 -6 59 26 21 21 41 49 45 64 17 70 58 87 70 29 4 -16 11 -26 15 -21 13 13 15 112 3 124 -12 12 -6 39 8 39 5 0 9 -10 9 -22 0 -12 3 -18 7 -14 7 7 31 67 40 101 2 11 22 56 43 100 21 44 52 111 69 148 32 69 63 96 96 83 13 -5 15 -14 10 -46 -6 -34 -3 -43 19 -65 14 -14 26 -30 26 -35 0 -8 28 -63 42 -84 21 -29 81 -104 103 -128 14 -15 25 -30 25 -34 0 -5 11 -20 25 -34 15 -14 50 -50 79 -80 83 -86 254 -241 341 -310 44 -35 101 -82 127 -104 144 -127 217 -176 260 -176 24 0 97 -50 129 -87 13 -15 62 -61 109 -102 207 -181 482 -481 603 -658 19 -26 49 -70 68 -96 19 -27 43 -64 54 -82 11 -19 32 -51 46 -72 54 -80 129 -217 129 -237 0 -4 11 -21 25 -38 14 -16 25 -36 25 -43 0 -12 37 -96 106 -240 13 -28 24 -56 24 -63 0 -7 13 -41 29 -75 16 -34 34 -81 40 -105 7 -23 21 -57 31 -75 11 -19 23 -56 26 -83 4 -27 15 -64 26 -83 26 -46 88 -239 88 -276 1 -16 7 -48 15 -70 9 -22 22 -95 30 -162 8 -67 21 -139 30 -159 8 -20 15 -49 15 -65 0 -17 8 -34 22 -43 29 -20 38 -7 38 58 0 47 -3 71 -30 221 -6 33 -15 87 -21 120 -5 32 -14 64 -19 69 -6 6 -10 21 -10 35 0 27 -25 119 -46 169 -8 18 -14 43 -14 55 0 12 -6 34 -14 48 -7 14 -21 52 -30 85 -10 32 -24 73 -31 89 -8 17 -17 42 -21 58 -3 15 -10 30 -15 33 -5 3 -9 14 -9 26 0 11 -6 32 -13 46 -8 15 -21 42 -30 60 -9 19 -17 42 -17 52 0 9 -7 23 -15 30 -8 7 -15 19 -15 27 0 8 -6 27 -14 41 -8 15 -51 101 -96 192 -110 222 -135 269 -149 283 -6 6 -11 18 -11 26 0 8 -7 22 -15 31 -8 9 -25 35 -37 58 -40 72 -304 499 -376 607 -26 39 -49 75 -52 80 -5 10 -97 151 -151 233 -16 23 -29 45 -29 47 0 2 -12 21 -26 42 -14 21 -30 47 -35 58 -5 11 -18 34 -29 50 -10 17 -41 75 -69 131 -38 76 -50 113 -52 153 -2 28 -7 54 -11 57 -13 8 -52 -20 -64 -47 -6 -13 -25 -53 -42 -89 -18 -36 -32 -70 -32 -77 0 -6 -6 -24 -14 -40 -8 -15 -20 -54 -27 -86 -7 -32 -18 -66 -26 -75 -14 -18 -6 -25 -94 74 -14 16 -90 92 -168 169 -126 124 -209 210 -372 390 -64 70 -190 227 -197 245 -3 8 -18 30 -34 48 -15 18 -28 37 -28 42 0 6 -13 29 -30 52 -16 22 -30 47 -30 55 0 7 -9 30 -20 50 -11 21 -20 47 -20 58 0 31 -20 95 -30 95 -5 0 -18 -12 -30 -27z m1254 -1116 c15 -19 26 -38 26 -43 0 -5 14 -27 30 -48 17 -22 30 -43 30 -48 0 -8 59 -107 109 -182 32 -49 40 -61 75 -127 15 -30 35 -62 43 -71 27 -30 9 -43 -21 -14 -16 14 -32 26 -35 26 -3 0 -46 38 -96 85 -49 46 -108 101 -130 120 -22 20 -61 57 -87 83 -45 44 -48 50 -48 100 0 37 5 57 18 70 10 10 24 32 31 50 7 18 17 32 22 32 4 0 19 -15 33 -33z"/> <path d="M4260 8494 c-47 -7 -125 -13 -175 -14 -49 0 -112 -7 -139 -15 -27 -8 -73 -15 -101 -15 -29 0 -69 -7 -88 -15 -20 -8 -58 -15 -84 -15 -26 -1 -59 -7 -73 -15 -14 -8 -43 -14 -66 -15 -22 0 -49 -7 -60 -15 -10 -8 -35 -15 -54 -15 -19 0 -46 -7 -60 -15 -14 -8 -37 -14 -51 -15 -14 0 -34 -7 -45 -15 -10 -8 -33 -15 -50 -15 -17 0 -37 -7 -44 -15 -7 -8 -25 -15 -39 -15 -15 0 -36 -7 -47 -15 -10 -8 -31 -15 -45 -15 -15 0 -32 -7 -39 -15 -7 -8 -21 -15 -32 -15 -11 0 -32 -6 -46 -13 -25 -13 -60 -29 -142 -64 -19 -8 -42 -19 -50 -24 -8 -5 -22 -12 -30 -15 -8 -3 -22 -10 -30 -15 -8 -5 -22 -12 -30 -15 -8 -3 -22 -10 -30 -15 -8 -5 -21 -11 -27 -14 -33 -13 -40 -16 -68 -35 -16 -10 -52 -31 -80 -45 -62 -33 -75 -41 -150 -90 -33 -22 -68 -44 -77 -50 -48 -29 -142 -96 -211 -149 -162 -126 -195 -153 -226 -184 -54 -53 -53 -54 -153 98 -77 116 -83 126 -104 168 -9 18 -32 45 -50 59 -22 16 -34 34 -34 50 0 13 -7 40 -15 60 -8 19 -15 50 -15 67 0 17 -7 63 -15 101 -9 44 -13 91 -9 127 6 49 4 59 -10 64 -13 5 -27 -4 -49 -32 -18 -21 -39 -46 -47 -55 -19 -20 -38 -48 -49 -76 -6 -11 -15 -24 -20 -28 -6 -3 -11 -14 -11 -24 0 -10 -7 -24 -15 -31 -8 -7 -15 -23 -15 -36 0 -19 -5 -24 -24 -24 -24 0 -41 -19 -78 -87 -10 -18 -18 -39 -18 -46 0 -7 -13 -26 -30 -42 -16 -16 -30 -36 -30 -44 0 -9 -7 -25 -15 -35 -8 -11 -15 -30 -15 -42 0 -12 -7 -24 -15 -28 -9 -3 -15 -18 -15 -39 0 -19 -7 -40 -15 -47 -8 -7 -15 -27 -15 -44 0 -17 -7 -40 -15 -50 -8 -11 -15 -36 -15 -56 0 -20 -7 -45 -15 -56 -8 -10 -15 -38 -15 -62 0 -23 -7 -59 -15 -79 -8 -19 -15 -63 -15 -97 0 -33 -7 -86 -15 -116 -8 -31 -15 -98 -15 -153 0 -95 -1 -99 -28 -125 -30 -28 -173 -215 -185 -242 -4 -8 -16 -28 -27 -45 -11 -16 -24 -39 -30 -50 -6 -11 -19 -33 -30 -50 -11 -16 -24 -40 -29 -52 -5 -11 -15 -24 -20 -28 -6 -3 -11 -14 -11 -24 0 -10 -7 -24 -15 -31 -8 -7 -15 -20 -15 -30 0 -10 -7 -23 -15 -30 -8 -7 -15 -23 -15 -35 0 -12 -7 -28 -15 -35 -8 -7 -15 -20 -15 -29 0 -10 -7 -26 -15 -37 -8 -10 -15 -29 -15 -40 0 -12 -7 -27 -15 -34 -8 -7 -15 -22 -15 -34 0 -11 -7 -30 -15 -40 -8 -11 -15 -30 -15 -42 0 -12 -7 -27 -15 -34 -8 -7 -15 -25 -15 -40 0 -15 -7 -33 -15 -40 -8 -7 -15 -25 -15 -39 0 -15 -7 -36 -15 -47 -8 -10 -15 -31 -15 -45 0 -14 -7 -34 -15 -45 -8 -10 -15 -26 -15 -34 0 -8 -9 -33 -20 -55 -11 -22 -19 -48 -20 -58 0 -10 -7 -29 -16 -42 -9 -14 -13 -33 -9 -45 9 -28 35 -26 35 4 0 13 7 29 15 36 8 7 15 18 15 26 0 16 117 250 144 287 11 15 26 27 33 27 19 0 17 -59 -2 -66 -8 -4 -15 -16 -15 -29 0 -12 -7 -28 -15 -35 -8 -7 -15 -19 -15 -26 0 -8 -9 -31 -20 -51 -11 -21 -20 -47 -20 -58 0 -11 -7 -29 -15 -39 -8 -11 -15 -31 -15 -45 -1 -14 -7 -37 -15 -51 -8 -14 -15 -43 -15 -65 0 -22 -7 -51 -15 -65 -8 -14 -15 -45 -15 -70 0 -25 -7 -56 -15 -70 -8 -14 -14 -48 -15 -76 0 -28 -7 -71 -15 -94 -8 -23 -15 -75 -15 -116 0 -40 -5 -85 -11 -101 -10 -26 -22 -158 -35 -403 -4 -75 -2 -101 5 -90 6 8 11 38 11 66 0 27 5 55 12 62 7 7 15 36 19 64 15 115 30 179 50 213 12 19 24 35 27 35 4 0 7 39 7 87 1 103 22 302 34 317 13 16 41 125 46 180 3 26 17 74 33 105 24 49 28 66 24 117 -3 43 1 72 16 109 26 67 38 171 21 191 -17 21 -13 70 9 102 11 15 22 47 26 72 4 25 15 59 25 75 10 17 25 53 34 80 10 28 26 58 37 68 11 9 20 25 20 35 0 23 44 115 81 169 16 23 29 46 29 52 0 6 13 25 29 44 16 18 33 45 36 60 4 15 21 42 38 60 89 94 143 189 157 274 7 41 20 70 50 109 52 69 56 80 31 87 -30 7 -36 50 -22 147 7 47 15 103 18 125 3 22 10 46 16 53 6 8 12 32 13 54 1 23 9 57 17 77 8 20 21 56 28 81 7 25 16 50 21 56 5 6 15 34 23 61 8 28 27 68 41 89 15 21 35 59 46 84 11 25 30 56 43 70 14 14 44 47 68 74 37 42 48 48 69 43 22 -6 27 -15 33 -49 6 -40 34 -112 56 -148 5 -8 23 -38 39 -66 17 -28 39 -59 50 -69 11 -10 20 -24 20 -31 0 -7 11 -26 25 -42 14 -17 25 -34 25 -39 0 -5 33 -40 74 -76 69 -62 107 -80 121 -58 3 6 18 6 36 1 20 -6 39 -6 50 0 10 6 33 10 52 10 18 0 58 7 88 16 66 20 325 22 361 3 12 -6 63 -14 112 -16 50 -2 100 -9 112 -15 11 -5 34 -8 50 -6 28 3 27 4 -20 26 -64 29 -197 44 -443 49 -107 2 -193 8 -193 13 0 5 20 23 44 39 24 17 46 37 49 44 3 8 48 44 101 81 53 37 96 70 96 74 0 4 26 20 58 36 31 17 75 46 98 67 23 20 56 40 75 44 19 4 42 16 52 26 10 11 24 19 33 19 8 0 37 16 65 35 28 19 60 35 70 35 11 0 28 9 39 20 11 11 26 20 34 20 8 0 18 4 21 10 3 5 25 15 48 21 23 6 53 19 67 29 14 10 41 21 60 25 19 4 62 23 96 41 35 19 82 36 106 38 61 6 81 15 68 31 -14 17 8 25 71 25 28 0 60 7 74 16 13 8 48 19 77 24 83 13 164 36 213 60 39 19 54 21 127 14 76 -6 82 -6 69 9 -11 14 -11 17 0 21 21 8 224 25 424 36 231 13 678 2 784 -19 29 -6 68 -11 86 -11 20 0 39 -8 51 -21 15 -17 26 -20 56 -15 26 4 41 2 52 -10 13 -12 27 -14 67 -9 l51 7 -7 -53 c-4 -30 -11 -58 -15 -64 -5 -5 -18 -48 -30 -95 -12 -47 -28 -107 -35 -135 -30 -108 -36 -143 -39 -236 -2 -70 -7 -102 -19 -120 -26 -36 -25 -295 1 -344 14 -24 19 -58 21 -119 0 -47 7 -109 15 -138 31 -117 74 -252 93 -288 7 -14 13 -30 13 -37 0 -28 137 -306 177 -359 13 -17 23 -36 23 -41 0 -6 7 -16 15 -23 9 -7 27 -37 40 -66 14 -30 32 -55 44 -59 12 -3 21 -11 21 -17 0 -6 6 -18 14 -27 8 -9 31 -34 50 -55 20 -22 36 -42 36 -45 0 -4 20 -26 45 -51 25 -25 50 -55 55 -68 5 -12 18 -25 27 -29 10 -3 45 -34 78 -68 33 -34 72 -69 87 -78 14 -9 29 -25 33 -36 3 -11 15 -23 26 -26 19 -6 36 -20 106 -86 46 -42 71 -76 94 -126 12 -26 25 -50 29 -53 5 -3 18 -30 30 -60 12 -30 25 -57 29 -60 4 -3 18 -34 31 -70 12 -36 31 -90 42 -120 10 -30 23 -75 29 -100 5 -25 13 -54 18 -65 5 -11 16 -51 24 -90 35 -160 22 -845 -17 -945 -10 -25 -26 -81 -37 -125 -11 -44 -31 -99 -44 -122 -14 -23 -25 -49 -25 -57 0 -22 -50 -116 -61 -116 -5 0 -9 -11 -9 -24 0 -25 -23 -56 -41 -56 -5 0 -8 12 -7 26 2 18 -4 31 -21 42 -23 16 -23 15 -17 -4 4 -14 1 -26 -9 -34 -8 -7 -15 -18 -15 -24 0 -7 -11 -27 -25 -46 -14 -19 -25 -41 -25 -50 0 -9 -14 -32 -30 -50 -16 -18 -30 -37 -30 -42 0 -8 -22 -41 -60 -92 -27 -35 -186 -210 -231 -254 -97 -94 -204 -192 -212 -192 -4 0 -26 -13 -49 -30 -22 -16 -47 -30 -54 -30 -7 0 -18 -9 -24 -19 -5 -11 -20 -23 -32 -26 -13 -4 -43 -19 -68 -34 -25 -15 -54 -30 -65 -33 -11 -4 -45 -16 -75 -28 -30 -12 -91 -30 -135 -41 -44 -10 -100 -26 -125 -34 -25 -8 -61 -15 -80 -15 -19 0 -50 -4 -68 -9 -56 -17 -388 -24 -487 -11 -49 6 -115 14 -145 17 -30 2 -73 11 -95 18 -22 7 -74 21 -115 30 -105 24 -272 81 -322 110 -24 14 -53 25 -65 25 -15 0 -23 7 -25 22 -2 15 -12 25 -28 28 -38 8 -153 68 -163 85 -4 8 -14 15 -21 15 -8 0 -31 16 -52 35 -21 19 -41 35 -44 35 -3 0 -28 20 -55 45 -33 31 -45 49 -39 55 7 7 19 7 38 0 15 -5 31 -10 36 -10 13 0 -1 33 -19 47 -12 9 -13 15 -5 23 9 9 21 7 50 -8 33 -17 48 -18 92 -11 29 4 63 4 75 0 33 -12 261 -12 347 -1 81 11 201 37 238 51 13 5 39 9 58 9 19 0 44 5 56 11 11 6 36 13 56 15 20 3 43 11 52 19 9 8 25 15 34 15 12 0 16 5 12 15 -7 19 45 21 73 3 15 -9 25 -9 46 0 30 14 25 32 -11 32 -29 0 -31 11 -6 33 26 24 63 22 69 -3 7 -28 28 -25 80 10 24 17 51 30 59 30 8 0 17 7 20 15 4 8 14 15 24 15 10 0 23 7 30 15 7 8 23 15 35 15 12 0 28 7 35 15 7 9 29 15 50 15 46 0 70 8 70 24 0 8 -20 12 -60 11 -33 0 -60 -3 -60 -7 0 -5 -7 -8 -15 -8 -26 0 -16 16 23 37 45 26 200 39 282 24 54 -10 56 -9 82 20 15 16 32 29 36 29 5 0 25 16 45 35 l37 36 0 90 c0 80 -3 94 -25 127 -14 20 -25 43 -25 50 0 9 -6 12 -15 8 -10 -3 -18 1 -22 11 -15 37 -183 170 -253 198 -8 4 -22 11 -30 16 -38 24 -89 42 -130 46 -25 3 -51 13 -58 22 -15 19 -159 29 -318 21 -78 -4 -104 -9 -118 -23 -10 -10 -33 -17 -55 -17 -21 0 -64 -9 -97 -21 -32 -11 -75 -25 -94 -30 -19 -5 -78 -22 -130 -36 -70 -20 -125 -28 -211 -30 -109 -4 -122 -2 -205 26 -49 17 -96 31 -104 31 -18 1 -84 60 -93 84 -4 9 -14 16 -23 16 -10 0 -31 11 -48 23 -17 13 -46 29 -65 35 -19 7 -57 36 -85 65 -28 29 -68 66 -89 82 -47 37 -97 113 -97 147 0 14 -9 33 -19 42 -11 10 -24 30 -31 46 -6 15 -20 30 -30 33 -16 4 -19 17 -22 93 -2 49 -2 115 0 147 3 53 5 58 25 55 20 -3 22 1 19 35 -2 20 1 37 6 37 5 0 27 16 48 36 40 36 45 37 112 18 18 -5 22 -2 22 15 0 12 -6 21 -15 21 -8 0 -19 9 -25 20 -16 30 -59 25 -94 -10 -16 -17 -33 -30 -38 -30 -4 0 -8 -5 -8 -11 0 -5 -13 -24 -30 -42 -16 -18 -30 -42 -30 -54 0 -12 -5 -23 -12 -25 -11 -4 -30 -126 -31 -198 0 -60 15 -139 29 -151 8 -6 14 -17 14 -25 0 -14 54 -99 79 -125 9 -9 25 -27 37 -40 12 -13 55 -55 98 -93 42 -38 76 -75 76 -83 0 -7 10 -18 23 -23 12 -6 30 -14 40 -20 9 -5 25 -15 35 -20 9 -6 24 -13 32 -17 8 -3 19 -13 23 -20 5 -8 21 -14 35 -13 43 3 46 1 28 -19 -21 -24 -13 -41 18 -41 13 0 29 -7 36 -15 7 -8 20 -15 29 -15 9 0 25 -7 35 -15 11 -8 30 -15 42 -15 12 0 38 -7 57 -15 51 -21 313 -21 364 0 19 8 50 15 67 15 17 1 42 7 56 15 14 8 36 14 48 15 13 0 36 6 50 14 30 15 93 33 160 45 24 4 48 13 54 19 19 19 387 16 412 -3 11 -8 32 -15 47 -15 24 0 57 -13 109 -42 8 -4 21 -10 28 -13 32 -13 39 -17 67 -35 17 -11 36 -23 43 -26 37 -18 129 -108 185 -180 46 -59 47 -62 47 -131 l0 -72 -44 -35 c-40 -33 -48 -36 -111 -36 -38 0 -83 5 -101 12 -36 13 -124 -1 -177 -28 -16 -8 -37 -14 -47 -14 -9 0 -23 -7 -30 -15 -7 -8 -20 -15 -30 -15 -10 0 -23 -7 -30 -15 -7 -8 -20 -15 -30 -15 -10 0 -23 -7 -30 -15 -7 -8 -18 -15 -26 -15 -7 0 -19 -6 -26 -12 -7 -7 -33 -23 -58 -36 -25 -13 -58 -32 -75 -42 -16 -10 -52 -30 -80 -45 -27 -14 -57 -30 -65 -35 -33 -20 -174 -70 -199 -70 -14 -1 -37 -7 -51 -15 -14 -8 -42 -14 -63 -15 -21 0 -69 -7 -106 -15 -123 -28 -483 -9 -646 35 -90 24 -151 45 -166 57 -15 13 -59 18 -59 7 0 -27 218 -273 315 -354 64 -55 113 -90 124 -90 6 0 11 -4 11 -9 0 -5 19 -19 41 -30 23 -12 48 -28 56 -36 8 -8 23 -15 34 -15 10 0 19 -3 19 -8 0 -7 31 -22 140 -70 19 -8 47 -21 62 -29 14 -7 37 -13 50 -13 12 0 32 -7 42 -15 11 -8 30 -15 42 -15 12 0 35 -7 50 -15 16 -8 45 -15 65 -15 20 0 53 -7 72 -15 20 -8 51 -15 69 -15 18 0 56 -7 83 -16 73 -22 577 -22 650 0 28 9 68 16 90 16 22 1 51 7 65 15 14 8 41 14 61 15 19 0 44 7 55 15 10 8 31 15 45 15 14 0 34 7 45 15 10 8 31 15 45 15 15 0 32 7 39 15 7 8 23 15 35 15 12 0 28 7 35 15 7 8 20 15 29 15 9 1 34 12 56 25 22 14 47 27 55 31 8 3 22 10 30 15 8 5 25 13 38 19 12 5 22 14 22 20 0 5 7 10 16 10 13 0 74 40 121 80 7 5 17 10 22 10 6 0 14 6 18 13 4 7 37 35 72 62 79 60 186 167 266 266 33 41 66 78 72 82 7 4 13 13 13 19 0 5 12 27 28 47 36 48 51 72 58 94 4 9 10 17 14 17 5 0 13 12 19 28 6 15 20 41 31 57 11 17 23 37 26 45 3 8 19 42 35 75 16 33 29 67 29 75 0 8 7 24 15 34 8 11 15 29 15 40 0 12 7 30 15 40 8 11 15 30 15 42 0 12 7 35 15 50 8 16 15 43 15 59 1 17 7 41 15 55 8 14 14 46 15 72 0 26 7 77 16 115 22 95 22 480 0 577 -9 37 -16 91 -16 119 0 29 -7 65 -15 81 -8 15 -15 39 -15 52 0 14 -7 41 -15 61 -8 19 -15 45 -15 57 0 12 -7 31 -15 42 -8 10 -15 28 -15 40 0 11 -7 29 -15 40 -8 10 -15 29 -15 40 0 12 -7 27 -15 34 -8 7 -15 19 -15 26 0 13 -38 94 -49 104 -11 10 -41 72 -41 85 0 7 -7 18 -15 25 -8 7 -15 19 -15 26 0 20 -72 114 -86 114 -7 0 -14 3 -16 8 -1 4 -25 25 -52 47 -27 22 -71 60 -96 85 -26 25 -81 78 -123 118 -42 40 -77 74 -77 76 0 1 -31 35 -69 75 -38 40 -82 91 -98 114 -15 23 -38 50 -50 60 -13 10 -23 24 -23 31 0 11 -9 25 -50 73 -5 7 -10 16 -10 21 0 5 -13 28 -30 50 -16 23 -30 48 -30 56 0 7 -6 19 -14 25 -8 7 -17 23 -20 36 -4 14 -11 25 -16 25 -6 0 -10 8 -10 18 0 10 -7 27 -15 38 -8 10 -15 26 -15 35 0 9 -7 22 -15 29 -8 7 -15 21 -15 32 0 11 -6 32 -13 46 -8 15 -21 42 -30 60 -9 19 -17 41 -17 50 0 9 -7 30 -15 46 -8 15 -15 38 -15 50 0 12 -7 31 -15 42 -8 10 -15 33 -15 50 0 17 -6 53 -14 80 -8 27 -16 83 -19 126 -3 42 -10 85 -16 96 -14 27 -14 282 0 319 6 15 13 66 16 113 2 47 11 102 19 123 8 20 14 55 14 76 0 21 7 52 15 67 8 16 15 41 15 55 0 15 7 40 15 55 8 16 15 42 15 57 0 16 7 35 15 43 8 9 15 28 15 43 0 16 7 34 15 41 8 7 15 20 15 30 0 10 10 24 22 32 29 20 15 38 -30 38 -20 1 -48 7 -62 15 -14 8 -41 14 -61 15 -20 0 -56 7 -79 15 -23 8 -63 15 -89 15 -25 0 -62 5 -81 11 -19 6 -93 15 -165 20 -71 5 -173 13 -225 19 -131 13 -348 11 -450 -6z m2110 -5166 c0 -7 -4 -19 -9 -27 -11 -17 -25 3 -17 24 7 18 26 20 26 3z m-1582 -80 c-4 -26 -48 -54 -71 -45 -21 8 -11 37 13 37 10 0 23 7 30 15 18 22 32 18 28 -7z m-133 -67 c8 -13 -23 -41 -46 -41 -24 0 -25 26 -1 39 22 13 39 14 47 2z"/> <path d="M5657 8333 c-3 -32 -4 -59 -1 -62 10 -11 23 17 30 67 5 42 4 52 -8 52 -11 0 -17 -16 -21 -57z"/> <path d="M5636 8215 c-4 -16 -9 -35 -11 -41 -2 -6 1 -17 5 -25 13 -20 22 10 18 57 l-4 39 -8 -30z"/> <path d="M3790 7753 c-19 -3 -39 -8 -44 -13 -4 -5 -24 -6 -42 -3 -27 5 -34 2 -34 -11 0 -25 25 -30 61 -12 19 10 57 16 95 16 61 0 90 12 58 24 -16 6 -32 6 -94 -1z"/> <path d="M3545 7731 c-11 -4 -31 -12 -45 -18 -14 -6 -51 -19 -84 -29 -32 -11 -61 -25 -63 -31 -3 -7 -13 -13 -23 -13 -9 0 -32 -7 -49 -16 -21 -10 -45 -14 -67 -11 -22 4 -39 1 -47 -8 -8 -7 -27 -22 -43 -32 -56 -35 -134 -95 -134 -103 0 -4 -9 -10 -20 -13 -24 -6 -25 -16 -6 -43 14 -18 15 -18 26 14 7 17 15 32 20 32 4 0 23 13 41 30 19 16 42 32 52 36 9 3 17 10 17 15 0 5 6 9 13 9 8 0 24 9 37 20 27 24 58 26 66 5 5 -13 12 -11 40 10 18 14 37 25 43 25 9 0 56 21 111 50 9 4 30 11 48 15 18 3 32 11 32 16 0 5 10 9 23 9 38 0 67 12 67 26 0 15 -21 17 -55 5z"/> <path d="M3948 7732 c-25 -5 -22 -19 5 -26 28 -7 90 9 67 17 -27 10 -55 13 -72 9z"/> <path d="M3948 7629 c-26 -15 -24 -43 1 -29 11 5 31 10 45 10 33 0 42 16 13 24 -30 8 -39 7 -59 -5z"/> <path d="M5600 7583 c0 -32 5 -65 10 -73 7 -10 10 7 10 58 0 41 -4 72 -10 72 -6 0 -10 -26 -10 -57z"/> <path d="M3860 7531 c-6 -12 -16 -21 -23 -21 -18 0 -217 -179 -217 -195 0 -3 -13 -20 -30 -38 -16 -18 -30 -35 -30 -39 0 -4 -12 -20 -26 -35 -14 -15 -30 -37 -35 -48 -11 -24 -32 -58 -40 -65 -4 -3 -18 -31 -33 -62 -15 -32 -31 -60 -37 -63 -5 -4 -9 -17 -9 -30 0 -13 -5 -36 -12 -50 -9 -21 -9 -31 0 -46 7 -10 12 -26 12 -35 0 -9 9 -27 20 -41 11 -14 20 -32 20 -39 0 -8 5 -14 10 -14 6 0 10 -7 10 -15 0 -19 108 -135 126 -135 8 0 14 -4 14 -10 0 -5 6 -10 14 -10 8 0 22 -7 31 -17 9 -9 39 -18 66 -21 27 -2 52 -9 55 -13 3 -5 51 -9 107 -8 124 1 104 17 -23 19 -58 0 -91 5 -104 15 -11 8 -37 15 -58 15 -21 0 -38 5 -38 10 0 6 -10 14 -23 19 -31 12 -137 110 -137 127 0 7 -11 29 -24 49 -44 65 -46 173 -5 252 38 72 64 118 92 160 15 24 27 45 27 49 0 7 41 54 88 100 17 18 32 40 32 49 0 8 7 18 16 22 9 3 29 18 44 32 48 46 97 86 126 103 30 17 38 38 17 45 -6 2 -17 -5 -23 -16z"/> <path d="M2878 7412 c-12 -15 -36 -37 -52 -50 -32 -25 -86 -30 -86 -8 0 18 -22 26 -72 26 -56 0 -44 -23 18 -33 27 -5 51 -13 55 -18 3 -6 25 -13 48 -16 37 -5 43 -3 48 16 3 11 10 21 15 21 12 0 38 26 38 38 0 5 9 12 20 15 23 6 28 37 6 37 -8 0 -25 -12 -38 -28z"/> <path d="M5630 7383 c0 -17 5 -35 10 -38 13 -8 13 35 0 55 -7 11 -10 7 -10 -17z"/> <path d="M5720 7051 c0 -17 5 -31 10 -31 6 0 10 11 10 24 0 14 -4 28 -10 31 -6 4 -10 -7 -10 -24z"/> <path d="M4010 6461 c0 -18 122 -28 190 -15 22 5 28 9 18 15 -17 11 -208 11 -208 0z"/> <path d="M4363 6413 c-25 -10 -12 -23 22 -23 36 0 47 13 19 24 -18 7 -23 7 -41 -1z"/> <path d="M4450 6371 c0 -5 9 -13 20 -16 26 -8 33 -39 29 -133 -3 -58 -9 -83 -21 -96 -10 -10 -18 -28 -18 -40 0 -13 -7 -29 -15 -36 -8 -7 -15 -19 -15 -26 0 -8 -4 -14 -9 -14 -5 0 -12 -8 -15 -18 -4 -10 -31 -43 -62 -73 -78 -76 -81 -79 -93 -79 -5 0 -16 -6 -23 -12 -22 -21 -78 -48 -98 -48 -9 0 -23 -7 -30 -15 -7 -8 -19 -15 -27 -15 -8 0 -27 -6 -41 -14 -56 -28 -120 -56 -131 -56 -6 0 -11 -4 -11 -9 0 -5 -13 -12 -30 -16 -16 -4 -30 -11 -30 -16 0 -5 -7 -9 -15 -9 -17 0 -99 -41 -103 -52 -2 -4 -12 -8 -22 -8 -10 0 -25 -6 -32 -12 -7 -7 -34 -23 -60 -36 -27 -13 -48 -27 -48 -32 0 -4 -11 -11 -25 -14 -14 -4 -25 -11 -25 -16 0 -6 -7 -10 -15 -10 -9 0 -15 -9 -15 -24 0 -14 7 -31 15 -40 22 -21 19 -26 -15 -26 -32 0 -43 -26 -15 -36 21 -9 21 -267 0 -304 -8 -14 -14 -40 -15 -58 0 -30 -2 -32 -27 -26 -15 4 -39 20 -54 37 -15 16 -29 25 -33 19 -3 -5 8 -22 24 -38 16 -16 30 -34 30 -41 0 -7 9 -17 20 -23 21 -11 28 -64 11 -75 -6 -3 -40 24 -76 60 -37 36 -72 65 -80 65 -16 0 -73 29 -93 48 -7 6 -20 12 -27 12 -8 0 -18 7 -23 17 -6 10 -16 14 -26 10 -15 -6 -14 -11 8 -52 27 -53 85 -89 126 -80 18 4 33 -2 55 -22 32 -31 52 -44 105 -68 32 -15 35 -15 47 1 7 10 13 37 13 61 0 30 5 45 18 52 10 6 26 41 40 93 19 69 22 105 21 218 -2 183 -1 191 21 212 11 10 20 23 20 28 0 6 10 10 23 10 12 0 36 9 52 20 36 24 51 33 90 53 17 8 44 22 60 31 31 16 162 77 205 95 14 6 32 15 40 20 8 5 40 19 70 31 99 39 155 68 183 94 16 15 44 33 63 41 19 8 34 21 34 30 0 9 13 28 29 43 33 31 91 133 91 162 0 10 5 22 10 25 6 3 10 52 10 111 0 84 -3 106 -15 110 -8 4 -15 12 -15 20 0 8 -9 14 -20 14 -11 0 -20 -4 -20 -9z"/> <path d="M3244 6265 c0 -49 1 -71 3 -48 2 23 2 64 0 90 -2 26 -3 8 -3 -42z"/> <path d="M5515 6330 c-4 -6 -3 -16 3 -22 13 -13 23 4 13 21 -7 10 -10 10 -16 1z"/> <path d="M3241 6061 c-1 -56 2 -82 9 -75 6 6 7 37 1 84 l-8 75 -2 -84z"/> <path d="M5800 5950 c0 -5 7 -10 15 -10 8 0 15 5 15 10 0 6 -7 10 -15 10 -8 0 -15 -4 -15 -10z"/> <path d="M5850 5910 c0 -5 9 -10 20 -10 11 0 20 5 20 10 0 6 -9 10 -20 10 -11 0 -20 -4 -20 -10z"/> <path d="M3270 5855 c0 -8 5 -15 10 -15 6 0 10 7 10 15 0 8 -4 15 -10 15 -5 0 -10 -7 -10 -15z"/> <path d="M5970 5765 c0 -26 14 -31 39 -16 12 8 12 12 2 25 -20 24 -41 19 -41 -9z"/> <path d="M4302 5768 c-19 -19 -14 -29 8 -16 20 13 27 28 12 28 -4 0 -13 -5 -20 -12z"/> <path d="M6035 5720 c-3 -6 -3 -19 0 -30 8 -25 50 -27 59 -3 11 28 -43 58 -59 33z"/> <path d="M4205 5707 c-10 -8 -14 -16 -9 -19 13 -8 54 9 54 22 0 14 -23 13 -45 -3z"/> <path d="M6110 5629 c14 -24 53 -22 58 4 3 14 -4 17 -33 17 -33 0 -35 -2 -25 -21z"/> <path d="M3390 5585 c0 -8 5 -15 10 -15 6 0 10 7 10 15 0 8 -4 15 -10 15 -5 0 -10 -7 -10 -15z"/> <path d="M6187 5593 c-13 -12 -7 -34 11 -40 9 -4 34 -24 55 -47 29 -31 40 -37 49 -28 10 10 6 19 -20 43 -18 17 -40 41 -48 55 -16 24 -34 30 -47 17z"/> <path d="M6287 5444 c-8 -8 1 -24 14 -24 5 0 9 7 9 15 0 15 -12 20 -23 9z"/> <path d="M6503 5429 c9 -5 17 -18 17 -28 0 -11 7 -21 15 -25 8 -3 15 -12 15 -21 0 -8 3 -15 8 -15 4 0 15 -14 24 -30 19 -34 33 -38 42 -12 3 9 8 22 12 29 3 6 -22 30 -55 53 -34 24 -61 47 -61 51 0 5 -8 9 -17 9 -17 -1 -17 -1 0 -11z"/> <path d="M6334 5355 c-7 -18 3 -35 21 -35 21 0 28 19 15 35 -16 19 -29 19 -36 0z"/> <path d="M6654 5298 c9 -13 21 -33 28 -45 6 -13 17 -23 25 -23 7 0 16 -7 20 -15 3 -9 17 -22 32 -30 14 -7 38 -25 53 -39 15 -14 31 -26 36 -26 5 0 15 -11 22 -25 7 -13 28 -35 47 -47 18 -13 33 -29 33 -35 0 -7 5 -13 10 -13 13 0 50 -37 50 -50 0 -5 5 -10 10 -10 6 0 10 3 10 8 0 8 -194 207 -297 305 -71 66 -112 90 -79 45z"/> <path d="M6400 5236 c0 -35 10 -56 27 -56 11 0 13 7 8 33 -9 39 -13 47 -26 47 -5 0 -9 -11 -9 -24z"/> <path d="M6630 5236 c0 -8 7 -16 15 -20 8 -3 15 -13 15 -21 0 -9 5 -13 10 -10 16 10 12 36 -7 51 -23 17 -33 17 -33 0z"/> <path d="M6690 5140 c0 -6 7 -13 15 -16 8 -4 15 -14 15 -24 0 -11 5 -22 11 -25 5 -4 15 -19 21 -33 9 -21 12 -23 15 -10 7 27 -39 118 -59 118 -10 0 -18 -5 -18 -10z"/> <path d="M8875 5088 c-16 -34 -42 -75 -57 -92 -31 -34 -34 -46 -16 -64 15 -15 15 -540 0 -569 -6 -10 -15 -68 -21 -129 -5 -61 -14 -121 -19 -135 -5 -13 -12 -50 -16 -81 -4 -32 -12 -60 -17 -63 -5 -4 -9 -27 -9 -51 0 -55 22 -56 31 -3 3 19 10 43 16 54 6 11 19 49 28 85 9 36 23 83 31 105 8 23 14 50 14 62 0 11 7 34 15 49 8 16 15 44 15 62 0 18 6 43 12 55 7 12 15 54 19 92 4 39 12 99 18 135 15 87 34 399 29 480 -3 56 -6 65 -23 67 -15 2 -27 -11 -50 -59z m0 -356 c0 -106 -4 -164 -12 -177 -10 -16 -12 16 -13 170 0 151 3 187 13 177 8 -9 12 -58 12 -170z"/> <path d="M6466 5048 c-9 -35 -8 -38 14 -38 23 0 27 31 6 49 -11 9 -15 7 -20 -11z"/> <path d="M2650 5010 c0 -12 141 -12 215 0 39 6 21 8 -82 9 -83 0 -133 -3 -133 -9z"/> <path d="M6780 4991 c0 -11 5 -23 11 -26 5 -4 15 -19 21 -33 6 -16 12 -22 15 -15 5 15 -28 92 -39 93 -5 0 -8 -9 -8 -19z"/> <path d="M2496 4981 c-3 -5 1 -12 10 -15 19 -7 64 3 64 15 0 12 -67 12 -74 0z"/> <path d="M2423 4945 c-3 -9 -13 -15 -22 -14 -28 3 -41 -1 -41 -11 0 -16 35 -12 69 8 33 18 40 32 16 32 -9 0 -18 -7 -22 -15z"/> <path d="M6535 4831 c0 -81 5 -98 25 -86 8 5 10 21 6 44 -3 20 -9 55 -12 79 -10 67 -19 49 -19 -37z"/> <path d="M6840 4871 c0 -12 5 -21 10 -21 6 0 10 6 10 14 0 8 -4 18 -10 21 -5 3 -10 -3 -10 -14z"/> <path d="M2254 4855 c-4 -8 -12 -15 -20 -15 -8 0 -14 -7 -14 -15 0 -8 -7 -15 -15 -15 -8 0 -15 -4 -15 -10 0 -16 10 -12 50 20 21 17 43 30 49 30 6 0 11 5 11 10 0 16 -40 12 -46 -5z"/> <path d="M6870 4806 c0 -8 5 -18 10 -21 6 -3 10 3 10 14 0 12 -4 21 -10 21 -5 0 -10 -6 -10 -14z"/> <path d="M2160 4764 c0 -14 3 -14 15 -4 8 7 15 14 15 16 0 2 -7 4 -15 4 -8 0 -15 -7 -15 -16z"/> <path d="M2070 4645 c0 -8 5 -15 10 -15 6 0 10 7 10 15 0 8 -4 15 -10 15 -5 0 -10 -7 -10 -15z"/> <path d="M140 4488 c-24 -107 -11 -596 19 -688 6 -19 11 -58 11 -86 0 -28 7 -68 15 -87 8 -20 15 -56 15 -79 1 -24 7 -54 15 -68 8 -14 14 -43 15 -66 0 -22 7 -49 15 -60 8 -10 15 -35 15 -55 0 -19 7 -44 15 -55 8 -10 15 -33 15 -50 0 -16 7 -39 15 -50 8 -10 15 -31 15 -45 0 -14 7 -34 15 -45 8 -10 15 -31 15 -45 0 -15 7 -32 15 -39 8 -7 15 -24 15 -39 0 -14 7 -35 15 -45 8 -11 15 -30 15 -42 0 -12 7 -27 15 -34 8 -7 15 -23 15 -35 0 -12 7 -28 15 -35 8 -7 15 -20 15 -29 0 -10 7 -26 15 -37 8 -10 15 -29 15 -40 0 -12 7 -27 15 -34 8 -7 15 -20 15 -30 0 -10 7 -23 15 -30 8 -7 15 -20 15 -30 0 -10 7 -23 15 -30 8 -7 15 -21 15 -31 0 -10 5 -21 11 -24 5 -4 14 -17 20 -28 5 -12 13 -30 19 -40 5 -9 15 -25 20 -35 6 -9 15 -26 20 -37 6 -11 19 -33 30 -50 11 -16 24 -39 30 -50 6 -11 19 -33 30 -50 11 -16 23 -37 27 -45 3 -8 19 -31 35 -51 15 -20 28 -40 28 -44 0 -4 14 -24 30 -45 17 -21 30 -43 30 -48 0 -6 6 -15 13 -19 18 -11 77 -89 77 -101 0 -6 6 -15 13 -19 6 -4 37 -39 68 -78 90 -112 115 -140 284 -309 170 -171 221 -218 330 -306 38 -30 75 -63 84 -72 8 -10 19 -18 24 -18 4 0 52 -33 105 -73 97 -73 279 -197 289 -197 3 0 22 -13 42 -28 20 -16 43 -32 51 -35 8 -4 29 -16 45 -27 17 -11 39 -24 50 -30 11 -6 34 -19 50 -30 17 -11 37 -23 45 -26 8 -3 20 -8 25 -10 6 -2 42 -22 80 -43 39 -22 77 -40 86 -40 9 -1 22 -8 29 -16 7 -8 20 -15 30 -15 10 0 23 -7 30 -15 7 -8 23 -15 35 -15 12 0 28 -7 35 -15 7 -8 22 -15 34 -15 11 0 30 -7 40 -15 11 -8 30 -15 42 -15 12 0 27 -7 34 -15 7 -8 22 -15 34 -15 12 0 31 -7 42 -15 10 -8 30 -15 44 -15 14 0 34 -7 44 -15 11 -8 31 -15 45 -15 14 0 35 -7 45 -15 11 -8 27 -15 37 -15 9 0 30 -7 45 -15 16 -8 43 -15 59 -15 17 -1 41 -7 55 -15 14 -8 41 -15 60 -15 19 0 46 -7 60 -15 14 -8 41 -14 61 -15 20 0 53 -7 72 -15 20 -8 54 -15 76 -15 22 0 52 -5 68 -11 49 -19 200 -31 446 -36 152 -3 237 -1 237 6 0 5 -30 12 -67 15 -38 3 -93 11 -123 17 -30 6 -95 17 -145 24 -49 8 -121 22 -160 30 -38 8 -99 19 -135 25 -63 9 -146 26 -240 50 -25 7 -63 16 -85 22 -22 5 -53 14 -70 19 -58 20 -136 39 -157 39 -11 0 -35 9 -53 20 -18 11 -59 25 -90 31 -32 6 -81 24 -110 40 -28 16 -60 29 -71 29 -11 0 -42 11 -70 24 -27 13 -75 33 -106 46 -32 12 -62 28 -69 36 -6 8 -19 14 -28 14 -9 0 -29 7 -46 16 -16 9 -52 28 -80 41 -27 14 -59 33 -70 43 -11 10 -36 23 -56 29 -19 6 -63 32 -97 56 -34 25 -66 45 -72 45 -5 0 -27 16 -49 35 -21 19 -48 35 -59 35 -12 0 -29 11 -38 25 -9 14 -22 25 -29 25 -7 0 -18 7 -25 15 -6 8 -37 31 -68 51 -32 21 -75 53 -97 71 -56 48 -59 50 -81 57 -11 3 -36 21 -56 39 -20 17 -49 41 -64 52 -81 60 -514 496 -514 519 0 7 -11 18 -25 24 -14 6 -25 19 -25 28 0 9 -16 34 -35 55 -19 22 -35 45 -35 53 0 7 -13 16 -29 19 -19 4 -32 14 -36 29 -4 13 -17 34 -29 48 -37 42 -76 105 -76 123 0 9 -9 21 -19 27 -11 5 -24 25 -31 44 -6 18 -20 42 -32 52 -11 11 -30 39 -41 64 -11 25 -28 51 -39 58 -10 7 -18 24 -18 38 0 13 -8 32 -17 42 -25 26 -53 80 -53 101 0 9 -14 30 -30 46 -20 20 -30 39 -30 59 0 59 -10 77 -39 74 -24 -3 -26 0 -27 38 0 26 -8 51 -22 69 -12 15 -22 36 -22 46 0 10 -4 21 -10 24 -5 3 -10 16 -10 27 0 12 -12 46 -26 76 -17 36 -24 63 -19 79 4 19 1 26 -13 30 -32 8 -52 55 -49 118 1 44 -2 59 -15 69 -10 7 -18 19 -18 26 0 8 -7 21 -15 30 -8 9 -16 42 -18 78 -2 34 -8 67 -15 74 -7 7 -12 25 -12 40 0 16 -8 40 -17 55 -11 17 -18 50 -19 97 -1 39 -10 96 -19 126 -9 30 -14 70 -11 88 3 18 -1 47 -9 65 -12 30 -15 72 -16 237 0 30 -6 80 -14 110 -8 30 -17 101 -21 158 -9 132 -24 156 -44 70z"/> <path d="M8916 4254 c-21 -68 -49 -179 -76 -309 -34 -163 -71 -308 -86 -336 -7 -15 -14 -39 -14 -53 0 -14 -4 -27 -9 -30 -5 -3 -12 -22 -16 -43 -4 -20 -15 -54 -26 -75 -10 -20 -19 -45 -19 -54 0 -37 -242 -540 -287 -596 -17 -21 -40 -130 -36 -168 3 -20 -3 -50 -12 -70 -26 -58 -67 -124 -81 -133 -8 -4 -14 -15 -14 -22 0 -8 -4 -15 -10 -15 -5 0 -10 -7 -10 -16 0 -9 -9 -23 -19 -32 -31 -27 -36 -59 -10 -67 26 -9 39 8 39 50 0 23 12 44 46 80 45 49 46 49 41 20 -22 -132 -36 -162 -109 -249 -43 -52 -157 -152 -229 -201 -24 -17 -48 -36 -52 -42 -11 -18 -47 -16 -47 2 0 8 6 15 13 15 11 0 47 34 47 44 0 2 27 31 60 65 33 34 60 68 60 74 0 7 14 23 30 37 29 24 41 60 20 60 -5 0 -10 -4 -10 -9 0 -8 -27 -39 -103 -121 -13 -14 -32 -38 -42 -55 -24 -37 -202 -215 -216 -215 -5 0 -9 -7 -9 -15 0 -19 24 -19 40 0 7 8 18 15 26 15 7 0 18 9 24 21 7 11 18 18 25 15 7 -2 23 4 36 15 12 10 28 19 36 19 7 0 13 5 13 10 0 6 4 10 9 10 21 0 136 85 179 133 9 9 20 17 25 17 4 0 28 20 54 45 43 42 73 57 73 35 0 -8 -37 -69 -118 -195 -25 -38 -123 -158 -177 -217 -14 -14 -30 -37 -36 -50 -6 -13 -38 -45 -71 -73 -174 -145 -224 -185 -232 -185 -5 0 -26 -15 -47 -32 -66 -57 -97 -78 -136 -94 -21 -9 -51 -27 -67 -41 -16 -13 -48 -33 -71 -44 -23 -11 -51 -28 -62 -37 -21 -18 -158 -89 -236 -122 -77 -32 -165 -106 -147 -124 10 -10 -38 -66 -56 -66 -6 0 -17 -7 -24 -15 -7 -8 -20 -15 -30 -15 -10 0 -23 -7 -30 -15 -7 -8 -21 -15 -31 -15 -9 0 -24 -7 -33 -15 -8 -8 -23 -15 -33 -15 -10 0 -30 -6 -45 -14 -15 -8 -40 -17 -57 -21 -17 -4 -31 -11 -31 -16 0 -5 -7 -9 -15 -9 -20 0 -138 -40 -149 -51 -6 -5 -24 -9 -41 -9 -17 0 -40 -7 -51 -15 -10 -8 -30 -15 -44 -15 -14 0 -38 -7 -54 -15 -15 -8 -39 -15 -52 -15 -14 0 -41 -7 -61 -15 -19 -8 -45 -15 -57 -15 -11 0 -39 -7 -61 -15 -22 -8 -59 -14 -82 -15 -31 0 -43 -4 -43 -15 0 -12 17 -15 98 -15 53 1 131 5 172 11 41 5 118 13 171 18 53 5 104 13 115 18 10 6 43 13 73 16 30 4 59 11 65 17 13 13 86 13 86 0 0 -6 -12 -15 -27 -21 -16 -6 -100 -46 -188 -89 -171 -84 -263 -123 -335 -140 -25 -6 -59 -18 -77 -26 -17 -8 -45 -17 -62 -20 -17 -4 -34 -11 -37 -15 -3 -5 -15 -9 -27 -9 -12 -1 -40 -8 -62 -16 -22 -8 -60 -19 -85 -24 -52 -10 -311 -54 -415 -71 -38 -6 -96 -17 -128 -24 -32 -8 -65 -11 -73 -8 -8 3 -20 0 -28 -6 -12 -10 -146 -31 -200 -31 -14 0 -17 -3 -9 -11 7 -7 86 -9 239 -6 241 5 400 17 447 36 16 6 46 11 68 11 22 0 56 7 76 15 19 8 49 15 65 15 16 0 45 7 65 15 19 8 47 15 62 15 15 0 32 5 38 11 6 6 29 15 50 19 45 10 97 27 136 46 16 8 35 14 42 14 7 0 26 6 42 14 15 7 46 21 68 31 22 9 47 21 55 26 8 5 22 12 30 15 8 3 22 9 30 14 8 5 38 21 65 35 62 32 80 43 126 78 20 15 40 27 44 27 11 0 143 120 219 198 67 69 136 155 136 169 1 12 33 48 50 56 8 4 23 11 33 17 9 5 25 15 35 20 9 6 24 13 32 16 8 3 22 10 30 15 8 5 22 12 30 15 8 3 22 9 30 14 8 5 38 21 65 35 28 14 57 30 65 35 8 5 55 33 103 62 49 29 101 61 115 70 15 10 37 23 50 29 12 7 22 16 22 21 0 4 7 8 15 8 8 0 15 5 15 10 0 6 10 14 23 19 31 13 196 147 276 224 167 164 244 257 338 412 21 35 83 165 83 174 0 5 6 22 14 38 22 44 46 125 46 154 0 15 7 46 15 70 12 32 15 80 14 177 -1 110 2 136 15 151 9 10 16 23 16 29 0 7 4 12 9 12 5 0 14 12 20 28 6 15 21 43 32 62 57 93 179 350 224 470 9 25 23 60 31 78 8 18 14 41 14 50 0 10 4 22 9 27 6 6 14 28 20 50 9 38 16 61 42 138 6 17 15 52 19 77 5 25 14 65 20 90 24 95 32 138 41 220 17 146 21 224 12 264 l-8 39 -19 -59z m-2296 -3573 c0 -23 -14 -41 -32 -41 -19 0 -41 -8 -136 -51 -52 -23 -111 -27 -93 -5 12 14 98 46 125 46 8 0 17 8 20 18 6 16 34 27 109 41 4 0 7 -3 7 -8z"/> <path d="M6540 3935 c0 -19 4 -35 9 -35 13 0 23 34 15 54 -11 28 -24 18 -24 -19z"/> <path d="M6481 3680 c0 -33 1 -34 11 -12 8 17 8 26 0 34 -9 9 -12 4 -11 -22z"/> <path d="M6416 3545 c-10 -49 2 -63 24 -28 13 21 14 32 6 46 -16 25 -23 21 -30 -18z"/> <path d="M5103 3270 c-24 -10 -31 -34 -13 -45 5 -3 28 -1 50 5 29 8 40 16 40 30 0 15 -7 20 -27 19 -16 0 -38 -4 -50 -9z"/> <path d="M8130 2210 c0 -24 15 -27 24 -4 9 22 8 24 -9 24 -8 0 -15 -9 -15 -20z"/> </g> </svg> 