<?xml version="1.0" standalone="no"?>
<!DOCTYPE svg PUBLIC "-//W3C//DTD SVG 20010904//EN"
 "http://www.w3.org/TR/2001/REC-SVG-20010904/DTD/svg10.dtd">
<svg version="1.0" xmlns="http://www.w3.org/2000/svg"
 width="900.000000pt" height="900.000000pt" viewBox="0 0 900.000000 900.000000"
 preserveAspectRatio="xMidYMid meet">
<metadata>
Created by potrace 1.10, written by Peter Selinger 2001-2011
</metadata>
<g transform="translate(0.000000,900.000000) scale(0.100000,-0.100000)"
fill="#f33443" stroke="none">
<path d="M3835 8939 c-40 -8 -138 -23 -246 -38 -30 -5 -65 -13 -77 -20 -11 -6
-32 -11 -45 -11 -14 0 -49 -7 -78 -16 -30 -8 -79 -22 -109 -30 -30 -8 -68 -20
-85 -26 -16 -5 -46 -14 -65 -19 -19 -4 -60 -18 -90 -30 -30 -11 -70 -24 -89
-29 -18 -5 -38 -13 -44 -19 -6 -6 -20 -11 -30 -11 -10 0 -31 -6 -45 -13 -28
-14 -84 -40 -137 -61 -37 -16 -145 -66 -205 -95 -71 -35 -251 -133 -295 -162
-16 -10 -39 -23 -50 -29 -34 -18 -59 -34 -95 -60 -19 -14 -42 -29 -52 -35 -66
-39 -274 -191 -310 -227 -10 -10 -21 -18 -25 -18 -5 0 -29 -19 -55 -43 -25
-23 -77 -69 -115 -101 -190 -166 -412 -407 -594 -645 -55 -71 -99 -133 -99
-136 0 -4 -13 -24 -30 -45 -16 -21 -30 -41 -30 -45 0 -4 -13 -24 -28 -44 -16
-20 -32 -43 -35 -51 -4 -8 -16 -28 -27 -45 -11 -16 -23 -37 -27 -45 -4 -8 -23
-42 -43 -75 -33 -55 -186 -360 -215 -430 -7 -16 -20 -46 -28 -65 -8 -19 -23
-55 -32 -80 -10 -25 -21 -54 -26 -65 -12 -28 -39 -106 -46 -130 -3 -11 -11
-34 -19 -52 -8 -17 -14 -37 -14 -44 0 -7 -6 -31 -14 -54 -8 -22 -21 -67 -30
-100 -9 -33 -21 -75 -27 -92 -6 -18 -14 -54 -19 -80 -5 -27 -16 -82 -25 -123
-8 -41 -20 -104 -25 -140 -6 -36 -15 -93 -20 -126 -12 -77 -13 -421 -1 -428 5
-3 12 11 16 32 4 20 10 42 14 47 11 14 36 137 56 275 18 125 59 341 76 405 6
22 14 58 19 80 5 22 23 87 40 145 17 58 39 132 49 165 10 33 29 88 44 122 14
34 28 77 32 95 4 18 14 44 22 56 8 13 23 47 33 75 16 46 80 183 127 272 9 17
19 37 23 45 13 28 46 23 60 -9 7 -17 20 -33 29 -36 9 -2 26 -27 39 -55 13 -27
27 -50 32 -50 21 0 9 47 -20 78 -17 18 -30 42 -30 53 0 11 -7 22 -15 25 -8 4
-15 16 -15 28 0 12 -4 26 -9 32 -24 24 -9 134 18 134 11 0 65 75 106 145 16
28 35 56 42 64 8 7 22 29 33 50 10 20 37 59 59 86 22 28 53 68 68 90 15 22 63
83 106 135 76 93 86 105 107 125 5 6 40 44 78 85 123 137 370 362 528 480 122
91 195 144 228 165 18 11 55 36 82 56 27 19 78 50 114 69 36 19 71 40 78 47
14 14 156 83 170 83 5 0 17 9 27 20 10 11 23 20 29 20 7 0 48 18 91 39 106 52
215 99 295 127 36 12 103 37 150 54 47 17 108 38 135 45 28 8 82 24 120 35 39
12 91 24 118 27 26 3 50 10 53 14 3 5 18 9 33 9 16 0 46 6 67 14 22 7 69 17
104 21 36 3 81 11 100 16 60 16 383 82 427 87 24 2 40 8 37 13 -6 11 -374 10
-429 -2z"/>
<path d="M4705 8941 c-4 -7 8 -12 32 -13 52 -2 53 -2 98 -15 73 -21 279 -62
390 -78 61 -9 137 -23 170 -32 33 -8 87 -22 120 -30 84 -20 125 -30 165 -41
49 -13 171 -52 195 -62 53 -22 107 -40 120 -40 7 0 43 -13 78 -30 36 -16 71
-30 79 -30 8 0 18 -4 23 -9 6 -5 41 -21 80 -36 38 -15 103 -45 145 -66 41 -21
79 -39 84 -39 5 0 33 -16 62 -36 30 -19 68 -40 85 -46 17 -6 53 -25 79 -42 27
-17 92 -58 145 -91 54 -33 108 -70 122 -82 13 -13 27 -23 31 -23 4 0 23 -13
42 -30 19 -16 39 -29 44 -30 5 0 37 -24 73 -52 35 -29 87 -72 116 -95 105 -85
305 -268 306 -280 1 -7 5 -13 9 -13 13 0 154 -146 228 -236 133 -162 204 -253
204 -263 0 -6 11 -18 24 -26 13 -9 27 -27 30 -41 4 -14 25 -45 46 -68 28 -30
40 -52 40 -72 0 -21 10 -38 32 -57 24 -22 28 -31 19 -40 -15 -15 -3039 -21
-3221 -6 -154 12 -185 15 -325 33 -175 21 -471 7 -635 -30 -36 -8 -87 -20
-115 -26 -27 -6 -79 -21 -115 -34 -36 -12 -83 -28 -105 -34 -89 -27 -322 -135
-391 -182 -23 -15 -48 -28 -55 -28 -7 0 -19 -7 -28 -15 -30 -28 -111 -85 -122
-85 -5 0 -20 -10 -33 -22 -12 -13 -44 -41 -72 -63 -128 -104 -350 -339 -403
-427 -12 -21 -28 -41 -35 -45 -8 -5 -28 -35 -46 -68 -18 -33 -38 -64 -44 -70
-17 -15 -146 -279 -146 -297 0 -9 -4 -19 -9 -22 -5 -3 -19 -38 -32 -78 -12
-40 -27 -79 -32 -86 -9 -12 -26 -76 -30 -117 -2 -11 -10 -45 -19 -75 -36 -120
-56 -324 -59 -585 -1 -147 2 -180 20 -245 30 -103 62 -229 68 -268 3 -18 9
-35 14 -38 5 -3 9 -10 9 -16 0 -5 -11 0 -25 13 -13 13 -25 29 -25 34 0 6 -16
26 -35 45 -19 19 -35 43 -35 53 0 10 -7 20 -15 23 -8 4 -15 14 -15 23 0 17
-49 71 -63 71 -15 0 -5 -21 48 -105 30 -49 55 -93 55 -100 0 -6 26 -65 59
-131 82 -166 131 -271 131 -280 0 -4 16 -31 35 -60 19 -29 35 -56 35 -61 0 -5
12 -25 26 -44 14 -19 31 -47 38 -64 7 -16 42 -70 77 -118 35 -48 74 -104 86
-125 12 -20 33 -46 45 -57 13 -11 37 -38 53 -60 16 -22 40 -51 54 -63 14 -13
57 -54 95 -90 38 -37 79 -74 91 -82 13 -8 54 -40 92 -71 37 -31 84 -64 103
-74 19 -10 49 -28 65 -40 69 -52 396 -215 430 -215 11 0 29 -6 40 -13 33 -23
185 -69 270 -83 44 -7 114 -21 155 -30 63 -15 120 -18 355 -18 163 0 303 5
335 11 30 7 98 19 150 28 87 14 116 22 175 45 11 4 40 14 65 21 25 7 50 16 55
20 6 4 39 17 74 29 35 11 73 27 85 34 11 8 39 19 61 26 22 7 51 21 64 31 13
11 27 19 32 19 5 0 49 25 99 55 50 30 96 55 102 55 6 0 19 7 29 16 19 17 39
11 39 -12 0 -22 -50 -137 -64 -149 -7 -5 -36 -50 -64 -100 -29 -49 -57 -97
-62 -105 -5 -8 -11 -26 -14 -41 -3 -14 -19 -38 -35 -55 -17 -16 -31 -34 -31
-40 0 -13 -105 -201 -124 -224 -8 -8 -21 -37 -32 -64 -10 -27 -25 -51 -33 -53
-9 -2 -24 -23 -34 -46 -10 -23 -23 -49 -28 -57 -5 -8 -12 -22 -16 -30 -4 -8
-10 -17 -14 -20 -5 -3 -21 -30 -37 -60 -25 -50 -102 -186 -127 -228 -44 -73
-98 -167 -126 -220 -60 -112 -126 -223 -139 -232 -4 -3 -17 -25 -29 -50 -23
-49 -39 -77 -88 -157 -18 -29 -44 -74 -58 -100 -39 -74 -76 -140 -133 -236
-52 -90 -104 -193 -116 -234 -6 -18 -3 -23 11 -23 10 0 25 8 33 18 37 45 60
82 60 97 0 8 4 15 9 15 5 0 13 10 17 22 3 12 13 28 20 36 8 7 14 20 14 28 0 8
4 14 9 14 5 0 14 12 20 28 6 15 20 41 31 57 11 17 24 39 30 50 5 11 26 47 45
80 19 33 39 69 45 80 6 11 19 34 30 50 10 17 29 50 42 75 13 25 26 47 30 50 4
3 12 17 18 30 5 14 19 39 30 55 11 17 24 39 30 50 6 11 24 43 41 70 16 28 35
61 42 75 6 14 15 27 19 30 4 3 12 17 17 30 6 14 15 32 21 40 37 56 100 169
100 179 0 6 4 11 9 11 5 0 14 12 20 28 6 15 20 41 31 57 11 17 24 39 30 50 6
11 24 43 41 70 16 28 37 64 45 80 8 17 23 44 34 60 11 17 23 37 27 45 4 8 24
44 46 79 21 35 43 74 48 85 5 12 18 35 29 51 11 17 24 39 29 50 5 11 21 37 35
58 14 21 26 44 26 52 0 8 5 17 11 20 5 4 15 17 20 28 10 23 16 34 100 173 27
45 49 87 49 93 0 6 4 11 9 11 5 0 14 12 20 27 6 16 20 42 31 58 11 17 23 37
27 45 3 8 18 33 32 55 14 22 34 56 44 75 11 19 32 54 48 78 16 24 29 47 29 51
0 4 13 27 30 49 17 23 30 44 30 47 0 6 63 97 101 146 16 20 29 40 29 44 0 4
11 18 25 31 14 13 25 19 25 14 0 -20 21 -9 30 14 5 14 18 29 28 35 11 6 34 34
51 63 17 29 46 76 63 103 17 28 46 79 65 115 18 36 37 72 42 80 5 8 13 26 19
40 6 14 22 50 36 79 14 30 26 64 26 76 0 12 4 25 9 30 13 13 43 126 82 300 17
77 36 160 43 185 15 62 15 532 -1 585 -6 22 -19 76 -28 120 -20 93 -27 121
-49 191 -9 29 -16 60 -16 70 -1 25 -63 208 -77 226 -6 7 -18 38 -28 68 -10 30
-31 72 -47 94 -15 21 -28 43 -28 47 0 4 -13 28 -30 52 -16 25 -30 50 -30 55 0
6 -6 17 -13 24 -7 7 -26 33 -43 58 -69 103 -108 157 -133 182 -14 15 -39 44
-56 64 -16 20 -40 46 -51 58 -12 11 -42 40 -65 64 -24 24 -51 50 -59 58 -17
17 -172 140 -210 167 -173 121 -317 201 -388 218 -24 5 -60 20 -80 34 -55 37
-123 54 -260 66 -91 9 -126 9 -135 0 -8 -8 -3 -11 18 -11 17 -1 48 -9 70 -20
22 -11 50 -19 62 -20 22 0 70 -18 125 -46 14 -8 37 -14 51 -14 13 0 30 -7 37
-15 7 -8 20 -15 29 -16 9 0 35 -10 58 -22 23 -12 63 -33 90 -46 74 -38 172
-98 270 -166 185 -127 414 -359 543 -550 25 -37 51 -73 58 -80 6 -8 12 -17 12
-21 0 -3 19 -39 43 -78 23 -39 49 -87 59 -106 54 -113 85 -190 108 -265 6 -16
14 -39 19 -50 11 -25 30 -94 41 -157 5 -26 13 -56 19 -67 6 -11 11 -40 11 -66
0 -25 7 -76 15 -114 29 -125 10 -622 -27 -741 -7 -19 -15 -53 -19 -75 -11 -58
-30 -126 -45 -162 -8 -17 -14 -39 -14 -50 0 -10 -7 -27 -15 -37 -8 -11 -15
-27 -15 -35 0 -9 -13 -43 -29 -76 -16 -33 -39 -80 -50 -105 -12 -25 -26 -52
-31 -60 -5 -8 -28 -46 -51 -85 -39 -65 -75 -116 -133 -190 -13 -16 -53 -66
-88 -110 -94 -119 -233 -253 -367 -355 -66 -49 -122 -90 -125 -90 -3 0 -24
-12 -48 -27 -68 -44 -77 -49 -188 -103 -58 -28 -118 -58 -133 -66 -16 -8 -36
-14 -46 -14 -9 0 -25 -6 -36 -14 -11 -7 -31 -16 -45 -19 -14 -3 -38 -10 -55
-15 -31 -11 -106 -31 -185 -51 -25 -7 -79 -16 -120 -21 -41 -5 -97 -14 -125
-21 -64 -14 -473 -7 -570 10 -142 25 -270 55 -350 83 -16 5 -41 12 -55 15 -14
3 -34 12 -45 19 -11 8 -27 14 -36 14 -10 0 -30 6 -46 14 -15 8 -75 38 -133 66
-111 54 -120 59 -188 103 -24 15 -45 27 -48 27 -20 0 -271 206 -365 299 -93
94 -299 345 -299 365 0 3 -12 24 -27 48 -45 69 -51 80 -78 133 -14 28 -30 57
-34 65 -32 57 -87 193 -101 249 -5 18 -13 38 -19 44 -6 6 -11 24 -11 40 0 15
-5 38 -12 50 -6 12 -15 42 -19 67 -3 25 -11 65 -17 90 -29 120 -37 216 -37
445 0 230 7 312 37 435 6 25 13 63 16 85 2 22 8 45 13 51 5 6 13 31 18 55 10
51 28 103 47 141 8 14 14 33 14 41 0 9 6 28 14 44 8 15 38 75 66 133 54 111
59 120 103 188 15 24 27 45 27 48 0 6 135 186 178 237 116 140 418 397 537
457 11 6 34 19 50 29 17 11 77 42 135 71 58 28 118 57 133 65 16 8 36 15 46
15 9 0 26 7 37 15 10 8 28 15 39 15 11 0 33 7 49 15 15 8 37 15 48 15 11 0 34
6 51 14 18 8 48 16 67 19 19 2 55 9 80 15 152 37 143 37 2242 37 1595 0 2050
-3 2059 -12 10 -10 9 -14 -4 -19 -18 -7 -23 -39 -7 -49 10 -6 170 -326 170
-339 0 -4 20 -48 44 -99 25 -51 66 -157 92 -237 25 -80 52 -158 59 -175 7 -16
23 -73 35 -125 12 -52 25 -104 30 -115 5 -11 16 -58 25 -105 9 -47 20 -98 25
-115 5 -16 12 -50 15 -75 4 -25 13 -76 21 -115 7 -38 17 -106 21 -149 6 -58
13 -82 25 -90 32 -20 43 8 46 120 3 72 0 109 -8 119 -7 8 -14 50 -15 94 -2 49
-10 91 -20 111 -11 21 -15 44 -11 64 4 19 0 42 -10 61 -8 16 -17 48 -18 70 -2
22 -11 54 -20 70 -9 17 -16 44 -16 62 0 17 -4 35 -10 38 -5 3 -10 18 -10 33 0
15 -7 41 -16 57 -9 17 -18 45 -19 62 -2 18 -11 40 -20 49 -9 9 -14 23 -10 31
3 9 -4 31 -16 50 -12 19 -19 37 -16 40 3 3 -3 22 -14 41 -10 20 -19 44 -19 54
0 9 -4 20 -10 23 -5 3 -10 15 -10 25 0 10 -7 25 -15 34 -8 8 -15 23 -15 33 0
10 -9 32 -20 48 -11 17 -20 37 -20 46 0 9 -7 22 -15 29 -8 7 -15 20 -15 30 0
10 -7 23 -15 30 -8 7 -15 23 -15 36 0 13 -4 24 -8 24 -4 0 -13 12 -19 28 -7
15 -17 34 -22 42 -5 8 -17 33 -27 55 -9 22 -20 42 -23 45 -12 10 -41 59 -41
71 0 6 -12 28 -27 48 -32 42 -50 70 -60 91 -3 8 -19 31 -35 51 -15 20 -28 40
-28 44 0 4 -13 24 -30 45 -16 21 -30 41 -30 44 0 9 -146 202 -172 228 -10 10
-18 21 -18 26 0 4 -19 28 -43 54 -23 25 -69 77 -102 115 -129 147 -263 278
-451 441 -48 42 -303 237 -336 257 -9 6 -49 32 -90 60 -78 53 -101 68 -133 85
-11 6 -33 19 -50 30 -33 21 -46 28 -150 85 -104 57 -183 97 -255 128 -36 16
-77 35 -92 43 -14 8 -33 14 -41 14 -8 0 -20 7 -27 15 -7 8 -22 15 -34 15 -11
0 -30 7 -40 15 -11 8 -29 15 -40 15 -12 0 -30 7 -40 15 -11 8 -28 15 -38 15
-10 0 -26 4 -36 10 -24 14 -100 40 -142 49 -19 4 -45 13 -57 19 -12 7 -32 12
-45 12 -13 0 -28 4 -33 9 -6 5 -32 14 -60 20 -27 6 -79 18 -115 26 -36 9 -87
21 -115 26 -27 5 -72 15 -100 21 -95 21 -190 30 -401 35 -145 3 -214 1 -219
-6z"/>
<path d="M774 6330 c3 -19 20 -54 36 -78 17 -23 30 -49 30 -57 0 -8 9 -19 20
-25 18 -9 20 -8 20 15 0 14 -7 28 -15 31 -15 6 -45 57 -45 78 -1 6 -12 25 -26
41 l-26 30 6 -35z"/>
<path d="M4200 6244 c-25 -7 -60 -14 -78 -14 -19 0 -48 -6 -65 -14 -18 -8 -45
-16 -62 -19 -35 -5 -88 -23 -128 -43 -16 -8 -37 -14 -47 -14 -9 0 -23 -7 -30
-15 -7 -8 -18 -15 -25 -15 -14 0 -127 -57 -180 -90 -16 -11 -40 -25 -52 -32
-108 -64 -162 -108 -297 -244 -136 -135 -180 -189 -244 -297 -7 -12 -21 -35
-32 -52 -33 -53 -90 -166 -90 -180 0 -7 -7 -18 -15 -25 -8 -7 -15 -22 -15 -34
0 -12 -5 -27 -11 -33 -6 -6 -14 -26 -19 -44 -4 -19 -13 -47 -18 -64 -32 -95
-42 -133 -42 -160 0 -16 -7 -52 -15 -79 -22 -71 -22 -515 0 -576 8 -23 15 -57
15 -74 0 -28 10 -65 42 -161 5 -16 14 -45 18 -64 5 -18 13 -38 19 -44 6 -6 11
-18 11 -26 0 -9 13 -43 29 -76 16 -33 32 -67 35 -75 3 -8 15 -28 26 -45 11
-16 24 -39 30 -50 22 -43 117 -182 149 -219 34 -38 219 -223 257 -257 34 -30
145 -105 221 -151 53 -32 230 -118 243 -118 8 0 24 -7 34 -15 11 -8 29 -15 41
-15 11 0 29 -6 40 -14 11 -7 36 -16 55 -19 61 -10 143 -28 196 -43 73 -20 532
-19 589 1 22 8 54 15 70 15 27 0 65 10 160 42 17 5 45 14 64 18 18 5 38 13 44
19 6 6 18 11 26 11 16 0 193 87 246 120 17 10 40 25 52 32 45 27 139 93 167
117 38 34 223 219 257 257 30 34 105 145 151 221 29 47 118 229 118 240 0 6 6
24 14 40 26 53 45 116 66 223 7 30 18 78 26 106 21 75 20 524 -1 584 -8 23
-15 57 -15 74 0 28 -10 65 -42 161 -5 17 -14 45 -18 64 -5 18 -13 38 -19 44
-6 6 -11 18 -11 26 0 16 -87 193 -120 246 -10 17 -25 40 -32 52 -27 45 -93
139 -117 167 -34 38 -219 223 -257 257 -37 32 -176 127 -219 149 -11 6 -33 19
-50 30 -16 11 -37 23 -45 26 -8 3 -42 19 -75 35 -33 16 -66 29 -72 29 -6 0
-24 6 -40 14 -39 19 -91 36 -141 47 -23 5 -51 13 -61 19 -11 5 -35 10 -53 10
-18 0 -55 7 -82 15 -68 21 -510 20 -576 -1z m500 -75 c82 -7 122 -15 140 -28
14 -10 51 -21 84 -25 32 -3 82 -18 111 -31 28 -14 58 -25 66 -25 23 0 279
-133 312 -162 17 -16 35 -28 40 -28 6 0 41 -27 78 -60 37 -33 71 -60 76 -60
10 0 170 -170 221 -236 22 -27 42 -60 46 -71 4 -12 13 -24 21 -27 8 -3 22 -23
31 -46 9 -22 19 -40 23 -40 4 0 15 -19 25 -41 11 -23 34 -69 52 -101 19 -33
31 -64 28 -69 -3 -5 4 -24 15 -43 12 -18 21 -41 21 -51 0 -10 7 -26 16 -36 8
-9 19 -44 24 -78 5 -34 13 -76 19 -94 27 -84 35 -434 12 -562 -6 -33 -17 -96
-24 -140 -7 -44 -21 -98 -31 -120 -41 -94 -46 -107 -46 -128 0 -12 -9 -28 -20
-34 -10 -7 -22 -29 -26 -50 -9 -48 -45 -122 -73 -147 -12 -11 -21 -27 -21 -37
0 -10 -10 -29 -22 -42 -24 -26 -61 -71 -100 -122 -40 -52 -49 -62 -118 -132
-37 -37 -87 -81 -110 -98 -23 -16 -56 -45 -73 -62 -17 -18 -39 -33 -48 -33
-10 0 -23 -8 -28 -18 -12 -22 -179 -118 -266 -152 -33 -13 -66 -28 -72 -33 -7
-5 -19 -7 -27 -4 -8 3 -17 -1 -20 -9 -3 -8 -12 -14 -21 -14 -8 0 -23 -4 -33
-9 -31 -17 -264 -53 -392 -61 -147 -9 -339 3 -424 26 -59 16 -107 24 -153 26
-14 0 -20 5 -16 14 4 10 -3 14 -25 14 -17 0 -33 4 -37 9 -3 6 -26 13 -50 17
-25 3 -48 10 -50 14 -3 5 -40 26 -83 47 -42 21 -79 41 -80 46 -2 4 -26 17 -53
29 -28 11 -55 28 -62 37 -7 9 -38 32 -69 50 -87 53 -378 355 -378 394 0 7 -9
22 -20 32 -17 15 -51 68 -97 149 -21 37 -83 176 -83 187 0 5 -4 17 -10 27 -17
31 -40 112 -40 143 0 16 -7 41 -16 54 -9 13 -13 29 -9 35 4 6 2 16 -3 23 -21
27 -34 175 -29 352 5 186 19 284 43 298 9 5 14 26 14 60 0 33 11 80 29 127 70
185 93 239 106 250 8 7 25 35 38 64 13 28 40 69 60 91 20 22 44 56 53 75 10
19 43 60 75 92 33 32 59 62 59 66 0 8 131 128 165 152 81 55 115 79 153 108
26 19 55 32 73 32 22 0 29 5 29 20 0 11 8 23 18 26 9 3 53 21 98 40 146 61
221 84 268 84 33 0 46 4 46 14 0 12 87 27 225 39 74 7 248 4 345 -4z"/>
<path d="M918 6108 c-6 -17 1 -38 13 -38 5 0 9 11 9 25 0 26 -14 34 -22 13z"/>
<path d="M940 6040 c0 -6 7 -24 15 -40 27 -53 48 -30 23 25 -11 25 -38 35 -38
15z"/>
<path d="M1005 5947 c-8 -19 10 -62 35 -87 11 -11 26 -37 33 -57 7 -20 18 -38
25 -41 23 -7 12 28 -28 92 -22 35 -40 70 -40 79 0 21 -19 32 -25 14z"/>
<path d="M1120 5734 c0 -15 37 -82 62 -114 15 -19 28 -43 28 -53 0 -11 14 -36
30 -57 17 -21 30 -45 30 -53 0 -8 11 -22 25 -31 14 -9 25 -15 25 -13 0 13 -33
67 -41 67 -5 0 -9 8 -9 19 0 10 -7 24 -15 31 -8 7 -15 21 -15 32 0 10 -7 21
-15 24 -8 4 -15 12 -15 20 0 8 -13 33 -30 56 -16 22 -30 49 -30 60 0 10 -7 18
-15 18 -8 0 -15 -3 -15 -6z"/>
<path d="M1332 5358 c2 -13 8 -23 13 -23 6 0 11 10 13 23 2 15 -2 22 -13 22
-11 0 -15 -7 -13 -22z"/>
<path d="M1392 5270 c7 -11 16 -20 20 -20 5 0 8 9 8 20 0 13 -7 20 -20 20 -18
0 -19 -2 -8 -20z"/>
<path d="M1430 5207 c0 -13 11 -38 25 -57 21 -29 25 -31 25 -13 0 11 -7 26
-15 33 -8 7 -15 23 -15 36 0 13 -4 24 -10 24 -5 0 -10 -10 -10 -23z"/>
<path d="M1487 5088 c3 -13 11 -30 18 -38 7 -8 22 -33 33 -56 21 -41 52 -75
52 -56 0 15 -29 80 -37 84 -5 1 -18 21 -29 43 -24 45 -45 58 -37 23z"/>
<path d="M1610 4884 c0 -21 18 -54 30 -54 14 0 12 32 -4 53 -16 21 -26 22 -26
1z"/>
<path d="M1670 4778 c1 -21 31 -68 44 -68 13 0 5 41 -9 46 -8 4 -15 12 -15 19
0 8 -4 17 -10 20 -6 3 -10 -4 -10 -17z"/>
<path d="M1730 4663 c0 -19 28 -53 44 -53 16 0 0 44 -21 58 -21 13 -23 13 -23
-5z"/>
<path d="M1793 4575 c3 -11 8 -30 12 -42 7 -25 35 -32 35 -9 0 8 -12 28 -26
43 -22 23 -26 24 -21 8z"/>
<path d="M1875 4450 c-8 -13 3 -50 16 -50 12 0 12 47 0 55 -5 3 -12 1 -16 -5z"/>
<path d="M1910 4364 c0 -14 11 -39 25 -56 29 -35 30 -32 9 33 -18 53 -34 64
-34 23z"/>
<path d="M37 4266 c-11 -27 -8 -350 3 -420 5 -33 14 -90 20 -126 13 -85 36
-198 55 -280 9 -36 20 -84 25 -108 5 -23 14 -51 20 -61 5 -11 10 -29 10 -40 0
-11 6 -35 14 -53 8 -18 24 -67 36 -108 13 -41 27 -79 31 -85 5 -5 9 -16 9 -25
0 -8 7 -28 15 -44 8 -15 15 -35 15 -43 0 -8 6 -27 13 -41 8 -15 21 -43 29 -62
92 -217 209 -450 289 -575 10 -16 23 -39 29 -50 17 -31 32 -55 76 -120 22 -33
56 -82 74 -110 45 -66 146 -201 184 -246 17 -19 49 -57 71 -84 232 -281 566
-586 858 -784 124 -84 212 -141 232 -151 11 -6 34 -19 50 -29 57 -37 223 -127
295 -161 25 -12 74 -35 110 -52 36 -17 79 -37 95 -44 17 -6 46 -19 65 -27 19
-8 55 -23 80 -32 25 -10 59 -24 77 -31 17 -8 35 -14 41 -14 5 0 23 -7 38 -15
16 -8 38 -15 50 -15 11 0 24 -4 30 -9 5 -6 27 -14 49 -20 22 -5 54 -14 70 -19
17 -6 57 -18 90 -27 33 -9 75 -21 92 -26 18 -6 54 -14 80 -19 27 -5 82 -16
123 -25 41 -8 104 -20 140 -25 36 -6 93 -15 126 -20 75 -12 414 -13 432 -1 9
5 0 10 -29 15 -23 4 -70 15 -103 26 -34 11 -142 31 -240 45 -98 14 -182 28
-186 30 -4 2 -63 16 -132 29 -69 14 -152 34 -184 45 -33 10 -77 23 -99 27 -22
4 -45 8 -52 10 -6 1 -41 14 -76 28 -36 14 -75 26 -87 26 -11 0 -43 11 -70 25
-27 14 -57 25 -67 25 -10 0 -40 12 -68 25 -27 14 -53 25 -57 25 -8 0 -78 31
-194 86 -28 13 -58 24 -67 24 -9 0 -19 5 -22 10 -4 6 -21 17 -38 25 -18 7 -43
21 -57 29 -14 8 -46 24 -71 35 -25 11 -52 27 -59 36 -7 8 -18 15 -24 15 -7 0
-30 13 -52 30 -21 16 -44 30 -50 30 -6 0 -30 13 -52 30 -23 16 -46 30 -51 30
-5 0 -31 18 -57 41 -27 22 -56 44 -65 47 -36 16 -272 196 -378 290 -184 163
-467 460 -520 546 -13 20 -26 36 -30 36 -4 0 -15 15 -25 33 -10 17 -33 48 -51
67 -38 40 -235 333 -235 348 0 6 -11 23 -24 39 -13 15 -26 38 -30 50 -4 13
-23 46 -42 74 -19 28 -34 56 -34 61 0 6 -36 83 -80 172 -44 89 -80 166 -80
171 0 5 -10 29 -22 54 -67 137 -198 572 -248 821 -18 90 -29 154 -64 380 -8
52 -23 120 -32 150 -9 30 -19 66 -23 79 -6 22 -8 23 -14 7z"/>
<path d="M1970 4253 c0 -20 10 -44 27 -65 15 -18 28 -35 30 -37 2 -3 9 1 16 8
9 11 9 14 -1 18 -7 3 -19 19 -26 36 -8 18 -21 41 -30 52 -15 19 -15 19 -16
-12z"/>
<path d="M8891 4053 c-5 -10 -14 -61 -20 -113 -16 -138 -31 -229 -47 -280 -7
-25 -22 -90 -33 -145 -10 -55 -24 -113 -30 -130 -5 -16 -15 -57 -22 -90 -7
-33 -23 -86 -36 -117 -13 -32 -28 -81 -34 -110 -6 -29 -19 -69 -29 -88 -9 -19
-20 -51 -24 -70 -6 -32 -39 -111 -72 -170 -7 -14 -18 -36 -24 -50 -7 -14 -22
-47 -35 -75 -13 -27 -37 -79 -54 -115 -17 -36 -44 -87 -61 -115 -16 -27 -34
-59 -39 -71 -5 -11 -28 -51 -50 -88 -23 -36 -41 -68 -41 -71 0 -2 -13 -24 -30
-48 -16 -25 -30 -49 -30 -54 0 -6 -9 -18 -20 -28 -11 -10 -20 -23 -20 -30 0
-7 -23 -38 -51 -70 -28 -32 -61 -74 -74 -94 -12 -20 -30 -42 -39 -50 -9 -7
-16 -20 -16 -27 0 -7 -11 -21 -24 -29 -13 -9 -30 -29 -36 -46 -7 -16 -21 -36
-31 -43 -11 -7 -49 -48 -86 -92 -74 -87 -318 -334 -330 -334 -5 0 -38 -28 -76
-63 -93 -86 -143 -127 -154 -127 -5 0 -19 -11 -31 -25 -12 -13 -39 -33 -60
-44 -22 -11 -58 -38 -82 -61 -23 -22 -47 -40 -55 -40 -7 0 -18 -7 -26 -16 -7
-8 -33 -27 -58 -40 -25 -14 -60 -35 -78 -47 -83 -57 -341 -199 -387 -213 -12
-3 -42 -19 -69 -35 -26 -16 -55 -29 -65 -29 -10 0 -33 -11 -52 -25 -18 -13
-56 -32 -84 -41 -28 -9 -60 -23 -71 -30 -11 -8 -30 -14 -43 -14 -13 0 -37 -7
-53 -16 -17 -8 -61 -24 -97 -34 -37 -10 -100 -30 -141 -44 -41 -14 -99 -30
-129 -36 -30 -5 -60 -14 -66 -19 -15 -12 -272 -65 -436 -90 -131 -20 -204 -33
-223 -38 -17 -5 -17 -6 4 -26 19 -18 37 -22 121 -24 59 -2 106 1 119 7 11 7
54 13 95 16 41 2 89 11 106 20 19 10 42 14 60 10 19 -4 45 1 74 15 25 11 54
17 65 14 11 -4 33 2 53 14 18 12 49 21 69 21 20 0 39 4 42 10 3 5 21 10 38 10
18 0 43 7 56 16 13 10 39 18 57 20 19 1 40 9 48 17 8 8 26 12 39 10 14 -3 30
2 39 11 9 8 28 18 44 22 15 4 39 13 53 20 14 8 33 14 42 14 9 0 22 6 28 14 7
8 20 12 30 9 9 -2 23 3 30 11 8 9 20 16 28 16 8 0 31 9 51 20 20 10 58 29 84
40 27 12 51 26 54 32 3 5 12 7 20 4 7 -3 20 1 28 9 8 8 21 15 29 15 8 0 22 9
32 20 10 11 26 20 35 20 10 0 23 7 30 15 7 8 21 15 31 15 10 0 21 5 24 10 3 6
25 19 48 31 56 27 83 43 104 60 10 8 34 23 53 34 19 10 41 25 48 32 7 7 19 13
26 13 7 0 24 10 38 23 14 12 47 37 74 56 128 89 149 105 152 112 2 5 20 18 40
31 39 24 72 50 106 83 11 11 30 27 43 36 86 59 411 381 493 490 14 18 36 45
50 59 41 44 64 73 88 112 13 20 26 38 31 40 7 3 23 24 112 152 19 27 44 60 57
74 12 14 22 33 22 43 0 10 6 22 13 26 8 4 22 24 33 43 10 19 25 43 33 53 17
21 33 48 60 104 12 23 25 45 31 48 5 3 10 14 10 24 0 10 7 24 15 31 8 7 15 20
15 30 0 9 9 25 20 35 11 10 20 26 20 37 0 10 5 18 10 18 6 0 10 11 10 24 0 14
4 27 9 30 10 7 45 78 55 113 4 11 13 27 21 33 8 7 15 25 15 40 0 16 7 30 16
34 10 4 13 13 9 25 -3 10 1 23 10 31 8 6 17 27 21 46 3 19 10 37 15 40 5 3 9
15 9 26 0 11 9 36 21 55 12 18 18 40 15 48 -3 8 2 21 10 30 9 8 17 30 18 49 2
18 10 44 20 57 9 13 16 37 16 54 0 16 7 38 14 48 8 10 12 27 9 37 -3 11 4 38
16 61 12 22 19 49 16 59 -3 11 3 39 15 64 12 28 18 55 14 69 -3 14 2 41 10 62
9 21 18 73 21 117 2 44 9 86 16 94 17 21 8 222 -11 234 -21 14 -28 12 -39 -7z"/>
</g>
</svg>
