<?xml version="1.0" standalone="no"?>
<!DOCTYPE svg PUBLIC "-//W3C//DTD SVG 20010904//EN"
 "http://www.w3.org/TR/2001/REC-SVG-20010904/DTD/svg10.dtd">
<svg version="1.0" xmlns="http://www.w3.org/2000/svg"
 width="3072.000000pt" height="3072.000000pt" viewBox="0 0 3072.000000 3072.000000"
 preserveAspectRatio="xMidYMid meet">
<metadata>
Created by potrace 1.10, written by Peter Selinger 2001-2011
</metadata>
<g transform="translate(0.000000,3072.000000) scale(0.100000,-0.100000)"
fill="#f33443" stroke="none">
<path d="M5964 30660 c-11 -4 -56 -10 -100 -13 -111 -7 -203 -21 -434 -67 -30
-6 -78 -15 -107 -20 -28 -4 -57 -11 -62 -15 -6 -3 -32 -10 -59 -15 -26 -5 -83
-18 -127 -30 -44 -12 -98 -25 -121 -30 -22 -5 -51 -13 -65 -18 -13 -5 -51 -17
-84 -27 -33 -9 -76 -23 -95 -30 -19 -7 -62 -20 -95 -30 -33 -9 -73 -23 -90
-30 -16 -7 -39 -16 -50 -18 -48 -13 -135 -47 -188 -73 -16 -8 -33 -14 -39 -14
-9 0 -26 -6 -118 -47 -44 -19 -96 -41 -135 -58 -27 -11 -143 -66 -265 -125
-25 -12 -85 -43 -135 -70 -49 -27 -112 -60 -140 -75 -27 -14 -63 -34 -80 -45
-16 -11 -39 -24 -50 -30 -11 -6 -33 -19 -50 -30 -16 -11 -39 -24 -50 -29 -11
-5 -57 -34 -103 -65 -46 -31 -86 -56 -89 -56 -3 0 -22 -13 -43 -30 -21 -16
-40 -30 -43 -30 -12 0 -353 -249 -389 -283 -7 -7 -33 -28 -58 -47 -38 -29
-139 -113 -176 -145 -324 -288 -640 -617 -842 -875 -28 -36 -58 -73 -66 -83
-9 -9 -36 -45 -61 -80 -25 -34 -49 -66 -53 -72 -27 -33 -142 -197 -142 -202 0
-3 -14 -22 -30 -43 -16 -21 -30 -40 -30 -43 0 -3 -19 -34 -42 -69 -47 -68 -61
-92 -78 -123 -6 -11 -19 -33 -30 -50 -11 -16 -23 -37 -27 -45 -3 -8 -18 -33
-32 -55 -43 -68 -273 -519 -316 -620 -9 -22 -23 -55 -31 -72 -8 -18 -21 -47
-29 -65 -7 -18 -21 -49 -29 -70 -9 -20 -16 -41 -16 -46 0 -6 -6 -23 -14 -39
-30 -60 -37 -78 -117 -318 -62 -186 -82 -254 -148 -505 -7 -25 -16 -63 -21
-85 -4 -22 -16 -74 -25 -115 -9 -41 -23 -109 -30 -150 -7 -41 -18 -100 -23
-130 -47 -253 -51 -297 -58 -610 -6 -260 3 -346 24 -235 7 33 19 92 27 130 9
39 25 147 36 240 11 94 24 195 30 225 6 30 16 98 24 150 25 170 33 214 48 260
8 25 17 63 20 85 20 147 156 631 232 825 19 47 41 107 51 135 9 27 29 77 44
110 15 33 30 77 34 97 4 21 18 51 31 67 14 16 25 37 25 46 0 19 58 145 132
289 26 50 57 111 68 136 23 50 71 93 78 71 3 -8 14 -23 26 -35 l21 -21 3 23
c2 13 -5 38 -16 55 -10 18 -22 50 -26 70 -6 33 -3 42 40 94 26 31 52 69 58 83
6 14 53 87 104 163 50 76 92 141 92 146 0 4 11 18 25 31 14 13 37 44 52 69 24
42 43 68 103 140 11 13 20 30 20 37 0 7 9 18 20 24 11 6 20 17 20 25 0 8 4 15
8 15 5 0 26 25 47 55 20 30 41 55 45 55 3 0 22 21 40 48 19 26 46 59 60 73 14
15 54 59 90 100 166 187 318 342 435 443 44 38 82 73 85 76 10 14 245 213 295
250 27 21 70 56 93 79 24 23 48 41 54 41 5 0 42 26 81 59 40 32 93 70 119 85
25 15 49 33 52 41 3 8 11 15 18 15 8 0 49 25 93 55 43 30 83 55 89 55 5 0 19
9 30 19 18 16 147 94 233 141 15 8 42 25 60 38 17 12 38 22 46 22 9 0 19 5 23
11 6 10 309 160 449 223 33 15 72 33 87 41 14 8 33 15 41 15 9 0 28 6 44 14
51 27 117 54 163 67 25 7 59 21 75 31 17 10 38 18 49 18 10 0 40 11 68 25 27
14 57 25 66 25 8 0 81 22 161 49 80 27 182 57 225 66 44 9 83 18 88 21 5 3 19
8 31 10 12 2 40 7 62 13 22 5 85 19 140 31 55 12 129 29 165 37 36 9 81 17
100 19 47 5 154 20 275 39 55 9 118 18 140 21 70 8 99 13 140 23 79 19 198 41
209 39 25 -4 146 15 146 23 0 11 -508 11 -536 -1z"/>
<path d="M7006 30661 c-3 -5 30 -14 77 -20 45 -6 96 -13 112 -15 17 -2 82 -13
145 -25 63 -11 153 -25 200 -31 157 -18 235 -31 278 -46 23 -8 63 -14 88 -14
25 0 53 -4 63 -9 9 -5 46 -14 82 -20 98 -15 172 -31 194 -41 11 -5 37 -11 58
-14 83 -13 107 -19 113 -27 3 -5 16 -9 29 -9 14 0 55 -9 92 -20 38 -12 100
-30 138 -42 39 -11 90 -29 115 -39 25 -9 68 -23 95 -29 43 -9 77 -22 157 -62
10 -4 24 -8 31 -8 7 0 31 -9 52 -20 22 -11 62 -27 89 -35 28 -8 68 -24 90 -34
23 -10 79 -35 126 -54 103 -44 145 -63 185 -84 17 -8 86 -44 155 -80 69 -35
148 -77 175 -93 28 -16 57 -32 65 -36 23 -11 160 -92 210 -125 25 -15 61 -38
80 -49 92 -54 113 -68 162 -101 29 -20 62 -46 72 -58 11 -12 25 -21 32 -21 7
0 36 -19 66 -42 87 -70 179 -138 184 -138 2 0 51 -39 107 -88 56 -48 125 -105
152 -127 28 -22 61 -52 75 -66 14 -14 52 -48 85 -75 103 -85 447 -439 510
-524 14 -19 37 -46 50 -60 46 -46 90 -97 125 -144 19 -26 51 -66 70 -90 79
-97 146 -189 165 -225 12 -21 36 -57 55 -81 65 -82 128 -181 175 -273 l20 -39
-24 -19 c-23 -19 -55 -19 -1305 -20 -3290 -1 -3560 1 -3901 27 -256 19 -605
19 -750 0 -60 -8 -141 -18 -180 -21 -95 -9 -217 -33 -229 -45 -6 -6 -22 -10
-38 -10 -25 0 -58 -8 -195 -46 -32 -9 -71 -19 -88 -23 -16 -5 -43 -15 -60 -23
-16 -9 -46 -19 -65 -23 -19 -4 -51 -16 -70 -26 -19 -11 -42 -19 -50 -19 -9 0
-25 -7 -36 -15 -12 -8 -24 -12 -27 -8 -4 3 -12 1 -19 -4 -7 -6 -34 -18 -60
-28 -26 -10 -53 -24 -59 -31 -6 -8 -18 -14 -26 -14 -8 0 -45 -18 -82 -40 -37
-22 -74 -40 -82 -40 -8 0 -25 -12 -38 -25 -13 -14 -35 -28 -49 -32 -27 -7
-173 -98 -207 -130 -11 -10 -38 -29 -61 -43 -42 -25 -69 -46 -167 -128 -78
-65 -216 -191 -266 -242 -60 -61 -249 -279 -286 -330 -16 -22 -47 -62 -68 -88
-21 -26 -44 -61 -51 -78 -8 -17 -27 -46 -43 -65 -36 -42 -73 -105 -73 -125 0
-8 -7 -17 -15 -20 -7 -3 -22 -26 -31 -50 -9 -24 -21 -44 -26 -44 -5 0 -11 -8
-15 -17 -3 -10 -14 -37 -25 -60 -10 -24 -23 -53 -28 -65 -6 -13 -22 -43 -35
-67 -14 -24 -25 -50 -25 -58 0 -7 -9 -30 -20 -50 -11 -21 -20 -47 -20 -59 0
-12 -7 -27 -15 -34 -8 -7 -15 -21 -15 -31 0 -11 -12 -52 -26 -92 -14 -39 -33
-99 -41 -132 -8 -33 -19 -64 -24 -69 -5 -6 -9 -22 -9 -37 0 -15 -4 -31 -10
-34 -5 -3 -10 -19 -10 -34 0 -15 -7 -50 -15 -77 -15 -47 -41 -218 -51 -335 -2
-30 -8 -77 -12 -105 -34 -211 16 -936 67 -987 6 -6 11 -23 11 -38 0 -15 9 -46
20 -70 11 -24 20 -53 20 -65 0 -11 9 -39 20 -62 11 -22 20 -47 20 -54 0 -7 7
-26 15 -42 10 -20 12 -33 6 -39 -7 -7 -14 -1 -20 16 -6 15 -15 27 -21 27 -5 0
-10 7 -10 15 0 9 -7 18 -15 21 -8 4 -15 14 -15 24 0 9 -9 25 -20 35 -11 10
-20 24 -20 31 0 7 -14 27 -30 44 -17 17 -30 39 -30 49 0 10 -7 21 -15 25 -8 3
-15 14 -15 24 0 10 -5 23 -11 29 -14 14 -36 52 -45 76 -7 18 -34 24 -34 7 0
-15 48 -107 59 -114 5 -4 12 -19 16 -34 3 -15 21 -42 40 -61 19 -19 35 -42 35
-51 0 -10 6 -23 14 -29 8 -7 18 -27 21 -44 4 -18 13 -39 20 -47 7 -8 17 -31
23 -51 5 -20 24 -55 41 -79 17 -24 31 -48 31 -55 0 -13 175 -362 192 -383 7
-7 26 -42 43 -75 18 -34 49 -93 71 -130 21 -38 44 -78 51 -89 6 -12 30 -44 53
-72 60 -74 150 -195 150 -201 0 -4 34 -45 75 -93 41 -48 81 -94 88 -102 57
-67 371 -348 419 -376 11 -7 34 -25 51 -41 18 -16 43 -37 57 -46 154 -104 228
-150 265 -168 24 -11 49 -27 56 -35 6 -8 17 -14 23 -14 6 0 41 -18 78 -39 37
-22 83 -44 102 -51 19 -6 40 -17 46 -25 6 -7 26 -17 43 -21 18 -3 57 -19 87
-35 30 -16 61 -29 68 -29 7 0 32 -9 55 -19 23 -10 69 -26 102 -36 33 -9 74
-23 90 -30 30 -13 109 -34 195 -54 98 -22 188 -41 243 -51 31 -5 81 -14 110
-20 121 -22 477 -32 682 -20 110 7 223 16 250 21 28 5 79 14 115 20 113 18
388 85 455 110 28 11 58 19 68 19 10 0 42 11 70 24 29 14 70 31 92 39 51 19
164 66 190 80 11 6 31 16 45 23 116 57 161 81 275 145 101 57 122 70 195 124
210 153 224 160 235 118 5 -22 2 -31 -14 -42 -12 -7 -21 -21 -21 -30 0 -24
-44 -111 -69 -137 -11 -12 -27 -37 -35 -55 -9 -19 -29 -56 -45 -84 -17 -27
-43 -77 -59 -111 -16 -33 -36 -63 -44 -66 -8 -3 -20 -23 -26 -44 -7 -22 -25
-57 -41 -79 -16 -22 -43 -67 -60 -100 -59 -114 -91 -170 -101 -173 -6 -2 -10
-9 -10 -17 0 -12 -44 -97 -62 -120 -28 -35 -79 -121 -84 -140 -3 -13 -14 -32
-25 -44 -10 -11 -19 -24 -19 -29 0 -4 -13 -26 -29 -48 -16 -21 -32 -49 -35
-61 -4 -13 -12 -23 -17 -23 -5 0 -9 -5 -9 -11 0 -7 -33 -71 -74 -143 -41 -72
-78 -140 -82 -151 -4 -11 -15 -29 -24 -40 -9 -11 -36 -56 -60 -100 -23 -44
-55 -98 -71 -119 -16 -22 -29 -45 -29 -52 0 -7 -18 -36 -40 -65 -22 -30 -40
-60 -40 -67 0 -8 -8 -26 -17 -40 -10 -15 -24 -36 -31 -47 -6 -11 -26 -40 -42
-65 -16 -25 -34 -61 -40 -81 -5 -20 -19 -44 -30 -54 -11 -10 -20 -22 -20 -26
0 -5 -18 -39 -41 -75 -22 -37 -45 -77 -50 -88 -5 -12 -18 -34 -29 -51 -11 -16
-25 -41 -31 -55 -5 -14 -18 -34 -28 -45 -10 -11 -25 -39 -35 -63 -9 -24 -43
-82 -76 -130 -33 -47 -60 -92 -60 -99 0 -7 -4 -13 -10 -13 -5 0 -13 -12 -16
-27 -4 -16 -12 -34 -17 -42 -16 -19 -34 -50 -53 -91 -9 -19 -25 -41 -35 -48
-10 -7 -21 -28 -25 -47 -3 -20 -12 -39 -19 -43 -6 -4 -24 -32 -39 -62 -41 -83
-53 -102 -80 -130 -14 -15 -28 -39 -32 -55 -8 -33 -53 -115 -63 -115 -4 0 -13
-16 -19 -35 -7 -19 -34 -52 -59 -75 l-46 -40 -116 0 c-101 1 -169 5 -416 25
-268 22 -586 67 -611 87 -6 4 -18 6 -25 3 -15 -6 -276 47 -325 65 -16 6 -62
18 -104 25 -67 13 -188 47 -320 91 -25 9 -74 24 -110 34 -36 10 -83 28 -105
39 -22 11 -64 25 -94 31 -30 5 -59 14 -65 19 -6 5 -42 21 -80 35 -38 15 -75
31 -81 36 -7 6 -32 16 -56 24 -67 22 -172 67 -189 81 -8 7 -26 16 -40 20 -48
14 -432 207 -463 233 -19 16 -88 52 -99 52 -5 0 -22 12 -38 26 -32 29 -41 35
-118 76 -28 15 -53 32 -57 38 -3 5 -12 10 -20 10 -7 0 -39 18 -71 40 -33 23
-84 58 -114 78 -30 20 -58 40 -61 45 -3 4 -25 21 -50 37 -96 64 -116 79 -164
124 -27 25 -54 46 -59 46 -5 0 -46 33 -93 73 -46 39 -97 82 -114 94 -57 41
-302 264 -348 317 -14 16 -84 87 -154 159 -71 72 -141 147 -155 166 -15 20
-37 44 -49 54 -13 10 -23 23 -23 28 0 5 -25 36 -55 67 -30 31 -55 60 -55 64 0
4 -17 27 -37 52 -21 24 -49 61 -63 81 -14 20 -34 47 -45 58 -20 21 -38 46 -90
117 -80 112 -108 152 -146 215 -24 39 -55 86 -70 105 -14 19 -45 71 -69 115
-24 44 -59 105 -79 135 -20 30 -45 73 -57 95 -24 48 -52 101 -71 135 -50 91
-226 464 -248 525 -9 28 -26 69 -36 92 -11 24 -19 49 -19 57 0 8 -6 27 -14 43
-40 79 -78 183 -105 279 -10 39 -26 85 -35 102 -9 17 -16 41 -16 53 0 22 -14
74 -31 114 -13 31 -90 334 -99 390 -4 28 -15 77 -25 110 -17 63 -32 139 -45
240 -4 33 -17 116 -28 185 -11 69 -28 190 -36 270 -16 147 -64 380 -79 380
-11 0 -1 -509 12 -625 5 -49 19 -144 30 -210 11 -66 25 -147 31 -180 5 -33 14
-76 19 -95 5 -19 17 -71 26 -115 9 -44 23 -107 32 -140 27 -105 44 -169 58
-220 8 -27 17 -61 20 -75 4 -14 10 -34 14 -45 5 -11 23 -67 41 -125 33 -107
51 -159 76 -218 8 -18 14 -37 14 -43 0 -12 22 -66 46 -112 8 -16 14 -35 14
-44 0 -8 6 -27 13 -41 8 -15 21 -42 30 -60 9 -19 17 -38 17 -43 0 -20 157
-350 240 -504 26 -49 60 -112 74 -140 28 -53 35 -65 79 -133 15 -24 27 -47 27
-51 0 -4 13 -27 30 -49 16 -23 30 -44 30 -47 0 -3 20 -34 45 -71 25 -36 45
-67 45 -69 0 -7 62 -98 107 -157 24 -31 43 -59 43 -63 0 -15 299 -396 385
-491 6 -6 44 -49 85 -95 96 -108 401 -413 509 -509 46 -41 89 -79 95 -85 66
-60 314 -259 398 -318 35 -25 86 -61 113 -81 79 -56 188 -131 200 -136 5 -3
49 -31 96 -62 47 -31 104 -66 125 -78 21 -12 53 -30 69 -41 17 -10 39 -23 50
-29 11 -5 47 -25 80 -45 33 -19 96 -53 140 -76 44 -22 100 -51 125 -64 47 -25
181 -88 265 -124 28 -12 64 -28 80 -36 33 -15 81 -36 137 -59 20 -9 41 -16 46
-16 6 0 23 -6 39 -14 61 -30 79 -37 318 -116 170 -57 215 -71 300 -94 33 -10
82 -24 109 -32 26 -7 55 -14 63 -14 9 0 36 -7 62 -15 25 -8 82 -21 126 -30 44
-9 94 -21 110 -25 17 -5 50 -12 75 -15 25 -3 77 -12 115 -20 117 -23 257 -45
320 -49 59 -4 179 -17 340 -36 44 -5 173 -13 287 -16 236 -8 268 -2 268 47 0
26 10 48 77 164 12 22 26 47 30 55 4 8 26 47 50 86 24 39 43 77 43 83 0 6 4
11 9 11 5 0 14 12 20 28 6 15 20 41 30 57 11 17 30 50 43 75 13 25 26 47 30
50 4 3 12 17 18 30 5 14 19 39 29 55 20 31 44 72 77 135 11 19 22 37 26 40 4
3 12 17 18 30 5 14 19 39 30 55 11 17 24 39 30 50 5 11 14 27 20 35 25 38 93
155 101 174 5 12 18 35 29 51 11 17 24 39 30 50 5 11 26 47 45 80 19 33 38 67
42 75 3 8 9 17 13 20 3 3 15 23 27 45 40 78 58 109 69 122 7 7 22 32 34 55 12
24 30 57 40 73 20 31 45 76 76 135 11 19 22 37 26 40 4 3 12 17 18 30 5 14 19
39 29 55 20 31 44 72 77 135 11 19 22 37 26 40 4 3 12 17 18 30 5 14 19 39 30
55 11 17 23 37 27 45 4 8 24 44 46 79 21 35 43 74 48 85 5 12 18 35 28 51 20
31 44 72 77 135 11 19 22 37 26 40 4 3 12 17 18 30 5 14 19 39 29 55 20 31 44
72 77 135 11 19 22 37 26 40 4 3 12 17 17 30 11 26 16 33 64 108 15 24 27 47
27 53 0 5 14 28 30 51 17 22 30 47 30 55 0 7 4 13 9 13 5 0 14 12 20 28 6 15
15 34 21 42 23 36 123 206 131 225 5 11 13 27 19 35 25 38 93 155 101 174 5
12 18 35 29 51 11 17 24 39 30 50 5 11 14 27 20 35 18 29 97 165 104 180 3 8
14 27 24 41 9 15 37 59 62 99 25 40 52 83 60 95 8 13 28 45 44 72 16 26 57 84
90 128 34 43 64 86 68 95 5 12 7 12 7 -2 1 -10 5 -18 9 -18 8 0 69 80 85 110
4 8 27 42 52 75 24 33 57 85 74 115 16 30 43 80 60 110 54 96 141 277 141 291
0 8 7 24 15 37 9 12 24 45 34 74 19 52 63 185 83 243 5 17 18 66 28 110 30
129 41 178 50 215 9 35 31 150 53 265 7 38 11 197 10 425 0 305 -3 377 -17
440 -10 41 -26 123 -36 182 -10 58 -28 137 -39 173 -12 37 -21 78 -21 91 0 13
-8 45 -19 71 -10 26 -21 68 -25 93 -4 24 -15 58 -25 75 -10 16 -26 57 -36 90
-9 33 -22 69 -29 80 -7 11 -22 45 -34 75 -11 30 -31 76 -45 101 -13 25 -28 56
-32 70 -4 13 -18 38 -31 55 -13 17 -24 37 -24 45 0 8 -13 33 -29 55 -16 21
-32 50 -36 64 -4 14 -14 32 -21 40 -26 29 -84 110 -84 119 0 4 -9 16 -20 26
-11 10 -20 23 -20 29 0 6 -19 34 -41 61 -23 28 -60 75 -82 105 -22 30 -43 57
-47 60 -3 3 -53 56 -109 119 -89 98 -151 160 -281 277 -67 61 -112 97 -195
157 -49 37 -103 78 -118 92 -15 14 -34 25 -41 25 -8 0 -19 7 -26 15 -7 9 -36
27 -64 41 -28 14 -69 38 -91 54 -37 26 -354 190 -368 190 -3 0 -18 5 -34 12
-38 15 -178 66 -233 84 -88 29 -187 46 -307 51 -83 4 -123 2 -123 -5 0 -5 24
-15 53 -21 51 -10 126 -28 217 -52 25 -7 59 -18 77 -25 17 -8 39 -14 50 -14
10 0 27 -7 37 -15 11 -8 29 -15 40 -15 12 0 30 -7 40 -15 11 -8 28 -15 37 -15
10 0 30 -6 46 -14 15 -8 44 -21 63 -29 77 -33 297 -143 335 -166 22 -14 56
-34 75 -44 91 -50 351 -237 449 -323 140 -123 290 -272 366 -364 21 -25 41
-47 45 -50 18 -12 250 -333 250 -345 0 -2 13 -23 29 -47 34 -51 70 -114 106
-183 14 -27 29 -57 34 -65 9 -17 65 -137 88 -190 8 -19 21 -48 29 -63 8 -16
14 -36 14 -46 0 -9 7 -26 15 -37 8 -10 15 -25 15 -32 0 -8 6 -28 13 -45 21
-50 47 -133 47 -151 0 -8 6 -30 14 -48 8 -18 21 -69 30 -113 10 -44 23 -102
31 -130 29 -109 64 -462 64 -665 1 -147 -19 -393 -39 -490 -5 -25 -9 -65 -10
-89 0 -24 -7 -64 -15 -90 -8 -25 -22 -82 -31 -126 -9 -44 -22 -98 -29 -120 -7
-22 -21 -67 -30 -100 -10 -33 -24 -72 -31 -87 -8 -14 -14 -34 -14 -45 0 -10
-7 -27 -15 -37 -8 -11 -15 -28 -15 -37 0 -10 -6 -30 -14 -46 -8 -15 -21 -44
-29 -63 -18 -40 -143 -294 -161 -325 -40 -71 -71 -122 -83 -133 -7 -7 -13 -19
-13 -27 0 -7 -4 -15 -8 -17 -5 -1 -26 -28 -47 -58 -21 -30 -42 -59 -47 -65 -4
-5 -39 -50 -76 -100 -79 -106 -90 -119 -203 -244 -89 -99 -163 -172 -259 -253
-30 -26 -66 -57 -80 -69 -41 -35 -171 -131 -235 -174 -33 -22 -62 -42 -65 -46
-3 -3 -12 -9 -20 -12 -8 -4 -28 -16 -45 -27 -16 -11 -39 -24 -50 -30 -11 -6
-36 -20 -55 -31 -76 -46 -279 -144 -390 -189 -30 -12 -70 -28 -88 -36 -18 -8
-37 -14 -43 -14 -6 0 -25 -6 -42 -13 -43 -18 -202 -66 -302 -90 -144 -35 -202
-47 -230 -47 -16 0 -66 -7 -110 -15 -127 -23 -389 -39 -536 -31 -242 12 -364
22 -376 29 -6 4 -49 11 -95 17 -45 5 -103 14 -128 20 -25 6 -63 16 -85 21 -22
6 -58 14 -80 19 -22 5 -64 16 -92 25 -29 9 -74 22 -100 30 -27 7 -73 23 -103
35 -30 12 -66 25 -80 30 -80 26 -316 138 -430 204 -25 14 -54 30 -65 36 -59
32 -247 158 -336 226 -279 215 -570 524 -746 794 -31 47 -68 103 -82 125 -15
22 -30 47 -34 55 -4 8 -19 35 -33 60 -35 61 -138 266 -159 315 -9 22 -23 53
-31 68 -8 16 -14 35 -14 44 0 8 -6 27 -14 41 -17 34 -35 86 -47 135 -5 21 -13
45 -18 55 -10 20 -29 90 -40 147 -4 22 -12 56 -18 75 -16 49 -33 134 -42 210
-5 36 -13 83 -19 105 -34 132 -34 760 0 905 6 25 14 74 19 110 10 82 26 162
45 221 8 26 14 57 14 70 1 13 7 35 15 49 8 14 15 39 15 55 0 17 7 39 15 49 8
11 15 31 15 45 0 14 7 35 15 45 8 11 15 28 15 38 0 17 18 65 46 121 8 16 14
33 14 38 0 10 56 135 71 159 5 8 12 22 15 30 12 29 46 96 80 155 18 33 38 69
44 80 47 87 231 352 296 425 12 14 44 50 70 80 68 78 268 277 338 335 32 28
66 57 75 66 36 35 264 199 278 199 3 0 22 12 42 28 41 30 57 41 121 75 25 14
61 34 80 46 19 11 41 23 48 26 6 3 18 7 25 10 6 3 20 9 30 15 9 5 25 15 35 20
9 6 24 13 32 16 8 3 29 12 45 19 41 18 99 42 138 59 17 7 49 21 70 30 21 9 46
16 55 16 10 0 26 6 37 14 11 7 34 16 50 18 17 3 45 11 63 17 17 6 47 16 65 22
17 6 50 14 72 18 22 4 56 12 75 18 51 17 135 33 217 43 40 4 78 12 84 16 7 4
69 11 138 16 293 19 425 21 554 9 189 -18 481 -19 537 -2 37 11 464 13 2465
13 1331 1 2445 -3 2475 -7 30 -4 67 -14 82 -21 24 -12 26 -17 16 -33 -9 -15
-7 -24 11 -49 12 -17 27 -46 33 -64 6 -18 16 -39 22 -47 26 -32 226 -439 226
-460 0 -6 15 -39 34 -73 19 -35 44 -90 56 -123 12 -33 30 -80 40 -105 10 -25
28 -79 41 -120 12 -41 26 -79 30 -85 4 -5 14 -37 23 -70 10 -33 20 -67 25 -75
4 -8 18 -49 30 -90 37 -127 42 -144 51 -165 5 -11 16 -58 25 -105 8 -47 22
-103 29 -125 8 -22 19 -71 26 -110 6 -38 18 -88 25 -110 17 -54 33 -141 45
-260 6 -55 16 -113 21 -130 16 -44 39 -166 34 -175 -3 -4 -1 -21 5 -36 5 -16
11 -69 14 -119 3 -49 10 -178 17 -285 12 -210 6 -740 -11 -890 -6 -47 -14
-132 -19 -190 -11 -131 -20 -180 -36 -205 -7 -11 -15 -51 -19 -90 -13 -129
-27 -219 -51 -310 -13 -49 -26 -110 -29 -135 -4 -25 -15 -74 -25 -110 -11 -36
-25 -92 -31 -125 -7 -33 -20 -82 -30 -110 -10 -27 -23 -70 -30 -95 -7 -25 -20
-70 -30 -100 -11 -30 -26 -82 -35 -115 -9 -33 -23 -71 -30 -85 -21 -40 -45
-109 -45 -130 0 -10 -11 -40 -25 -66 -14 -26 -25 -52 -25 -59 0 -19 -41 -115
-66 -156 -12 -19 -29 -58 -39 -85 -9 -27 -25 -65 -36 -84 -10 -19 -28 -55 -39
-80 -11 -25 -24 -52 -29 -60 -6 -8 -21 -40 -36 -70 -28 -61 -85 -168 -146
-274 -21 -38 -39 -74 -39 -81 0 -7 -7 -18 -14 -25 -8 -6 -20 -27 -26 -46 -6
-19 -17 -34 -25 -34 -7 0 -18 -14 -25 -30 -7 -17 -26 -47 -41 -67 -16 -20 -29
-42 -29 -51 0 -8 -16 -32 -35 -53 -19 -22 -35 -44 -35 -50 0 -6 -15 -29 -34
-52 -19 -23 -62 -85 -96 -137 -35 -52 -75 -109 -89 -127 -14 -18 -35 -44 -46
-59 -11 -14 -42 -49 -68 -78 -27 -28 -60 -69 -75 -91 -36 -56 -180 -219 -316
-358 -64 -65 -116 -122 -116 -127 0 -6 -4 -10 -9 -10 -5 0 -49 -39 -98 -86
-118 -116 -472 -417 -517 -441 -13 -7 -37 -26 -55 -42 -18 -17 -39 -31 -47
-31 -7 0 -17 -6 -21 -13 -4 -8 -46 -39 -93 -70 -47 -31 -110 -75 -140 -97 -30
-21 -74 -48 -98 -59 -23 -11 -45 -27 -48 -35 -3 -9 -16 -18 -27 -22 -12 -3
-33 -16 -47 -29 -24 -22 -58 -42 -110 -65 -14 -7 -38 -19 -55 -28 -16 -8 -48
-25 -70 -36 -23 -12 -54 -31 -70 -42 -17 -12 -41 -25 -55 -29 -14 -4 -41 -18
-60 -29 -19 -12 -71 -39 -115 -60 -44 -21 -111 -53 -150 -71 -38 -19 -84 -38
-100 -43 -17 -5 -47 -21 -68 -35 -21 -14 -61 -33 -90 -42 -49 -16 -79 -27
-152 -60 -16 -7 -48 -17 -70 -23 -44 -11 -216 -70 -310 -107 -33 -12 -80 -26
-105 -30 -25 -4 -65 -15 -90 -25 -25 -10 -72 -23 -105 -30 -33 -7 -96 -23
-140 -35 -44 -13 -114 -29 -155 -35 -41 -6 -95 -18 -120 -26 -25 -9 -106 -22
-180 -30 -74 -8 -152 -21 -173 -29 -21 -8 -82 -20 -135 -25 -269 -29 -390 -40
-417 -38 -103 4 -284 -22 -321 -47 -49 -32 -28 -36 159 -37 274 0 286 1 306
12 11 5 40 10 65 10 24 0 56 4 71 10 18 7 31 6 44 -2 15 -9 29 -8 62 4 24 8
75 16 112 17 37 1 91 7 120 12 29 6 84 15 122 21 39 5 78 14 89 20 10 5 44 11
75 13 31 2 71 11 88 20 18 9 41 14 52 10 10 -3 38 1 62 9 24 8 64 18 88 22 25
4 56 13 70 21 14 7 40 13 58 13 17 0 34 4 37 9 4 5 29 12 56 16 27 4 52 11 56
16 3 5 17 9 32 9 15 1 45 9 67 20 22 11 52 19 66 20 15 0 32 7 39 15 7 8 27
15 46 15 18 0 35 4 38 9 3 4 22 11 42 14 20 3 44 12 53 20 9 8 27 17 41 20 42
9 148 49 192 73 14 7 32 14 40 14 8 0 43 14 77 30 34 17 66 28 71 25 5 -3 17
3 27 15 10 11 25 20 34 20 23 0 105 36 113 49 4 6 15 11 25 11 10 0 24 7 31
15 7 8 20 15 29 15 16 0 142 60 151 72 3 4 17 12 30 18 14 6 61 31 105 55 44
24 111 60 149 80 38 19 77 41 85 49 9 7 26 17 39 20 12 4 22 12 22 17 0 5 8
12 18 16 32 11 414 264 437 289 5 6 32 26 60 45 27 19 58 42 69 51 11 10 38
30 60 45 23 16 46 35 53 44 6 8 31 28 54 45 23 16 54 40 69 54 35 34 89 80
121 105 41 32 230 206 271 250 46 49 53 57 103 103 51 47 217 227 247 267 13
17 32 40 43 52 49 51 114 131 219 267 21 28 42 53 45 56 3 3 21 28 40 55 19
28 39 55 45 60 6 6 29 37 51 70 22 33 42 62 45 65 7 7 69 102 111 170 18 30
36 57 40 60 4 3 17 24 29 48 12 23 25 42 29 42 3 0 17 23 30 50 13 28 27 50
31 50 4 0 10 10 14 23 3 12 26 58 51 102 26 44 51 89 57 100 6 11 15 27 20 35
4 8 12 25 18 37 5 12 21 40 35 62 14 22 25 47 25 55 0 7 7 19 15 26 8 7 15 20
15 29 0 9 20 56 45 104 25 48 45 96 45 105 0 10 9 25 20 35 12 10 18 22 15 27
-3 5 8 37 25 71 16 34 30 69 30 77 0 8 7 26 14 40 24 44 64 150 73 192 3 14
12 32 20 41 8 9 17 33 20 53 3 20 10 39 14 42 5 3 9 18 9 33 0 15 7 36 15 47
8 10 15 30 15 44 0 14 7 38 15 54 8 15 15 38 15 50 0 11 7 33 14 48 8 16 18
48 22 73 3 25 10 48 15 51 5 3 9 22 9 42 0 21 6 46 14 57 7 11 17 40 21 65 4
25 13 65 21 89 8 24 12 52 9 62 -4 10 1 34 10 52 9 19 18 60 20 92 2 32 9 63
15 69 5 5 10 35 10 65 0 31 6 68 14 83 13 25 26 119 30 222 1 23 8 60 16 83
10 34 10 45 1 57 -8 9 -9 21 -4 28 4 7 11 42 14 78 4 36 12 91 20 123 12 54
12 60 -5 72 -15 11 -16 17 -5 36 16 31 18 686 1 743 -10 33 -9 41 5 51 15 11
15 19 3 71 -7 32 -16 88 -19 124 -3 36 -10 70 -14 77 -4 7 -2 21 4 32 10 15 9
28 -3 62 -9 24 -16 69 -17 99 -1 85 -12 160 -27 189 -8 14 -14 53 -14 87 0 33
-4 64 -10 70 -5 5 -12 36 -16 69 -3 33 -12 75 -21 93 -8 18 -12 41 -8 51 3 10
-1 38 -9 62 -8 24 -18 64 -22 89 -4 25 -13 54 -20 65 -8 11 -14 33 -14 50 -1
16 -7 41 -15 55 -8 14 -14 39 -15 56 0 18 -7 45 -15 60 -8 16 -15 39 -15 50 0
12 -7 35 -15 50 -8 16 -15 40 -15 54 0 14 -7 34 -15 44 -8 11 -15 32 -15 46 0
14 -5 31 -10 36 -6 6 -13 23 -16 39 -3 15 -11 37 -19 49 -8 11 -15 30 -15 43
0 12 -4 24 -9 27 -5 4 -12 24 -16 46 -4 22 -11 40 -15 40 -5 0 -12 15 -15 33
-4 17 -14 41 -21 52 -8 11 -14 27 -14 36 0 9 -13 43 -30 75 -16 32 -30 66 -30
75 0 9 -7 22 -15 29 -8 7 -15 21 -15 31 0 18 -8 37 -32 79 -20 37 -75 154 -92
200 -4 8 -15 29 -26 45 -10 17 -37 66 -59 111 -23 45 -52 98 -66 118 -14 20
-25 41 -25 46 0 5 -17 36 -37 67 -21 32 -46 74 -56 93 -11 19 -46 75 -78 123
-33 49 -59 91 -59 94 0 3 -13 22 -30 43 -16 21 -30 40 -30 43 0 7 -130 189
-140 197 -3 3 -23 30 -43 60 -20 30 -49 69 -64 87 -15 18 -46 56 -68 84 -43
56 -201 242 -275 324 -64 72 -374 381 -445 445 -126 114 -212 187 -315 268
-36 28 -72 58 -80 65 -13 13 -190 143 -307 227 -23 16 -47 30 -53 30 -5 0 -10
4 -10 8 0 5 -10 14 -22 21 -32 17 -51 29 -149 93 -47 31 -104 66 -125 78 -21
12 -52 30 -69 41 -16 10 -39 23 -50 29 -11 6 -47 26 -80 45 -33 19 -96 53
-140 75 -44 23 -100 52 -125 65 -104 54 -366 175 -379 175 -5 0 -22 6 -38 14
-32 16 -54 25 -133 57 -30 12 -69 28 -87 35 -17 8 -36 14 -42 14 -6 0 -25 6
-43 14 -58 25 -111 43 -218 76 -58 18 -119 39 -137 47 -17 7 -39 13 -48 13
-10 0 -38 7 -64 14 -25 8 -71 22 -101 30 -30 8 -80 22 -111 30 -31 9 -66 16
-78 16 -12 0 -32 5 -43 11 -11 6 -44 15 -72 19 -49 8 -146 26 -266 49 -113 21
-198 34 -285 43 -131 14 -602 21 -609 9z"/>
<path d="M1005 27043 c3 -16 17 -42 30 -59 13 -17 27 -44 31 -60 9 -35 54 -94
72 -94 17 0 15 27 -2 33 -15 6 -46 62 -46 82 0 7 -7 15 -15 19 -8 3 -15 14
-15 25 0 10 -7 21 -15 25 -8 3 -15 17 -15 31 0 16 -6 25 -16 25 -13 0 -15 -6
-9 -27z"/>
<path d="M1130 26802 c0 -5 14 -21 30 -37 17 -16 28 -35 25 -43 -3 -7 11 -33
30 -56 19 -24 35 -52 35 -64 0 -11 13 -33 29 -49 15 -16 34 -45 42 -66 15 -42
39 -50 39 -12 0 14 -6 25 -12 25 -7 0 -23 22 -36 48 -12 26 -31 61 -42 77 -18
29 -26 44 -79 143 -15 27 -30 42 -42 42 -10 0 -19 -4 -19 -8z"/>
<path d="M6495 26619 c-27 -5 -88 -13 -135 -18 -47 -4 -98 -13 -113 -20 -16
-6 -42 -11 -59 -11 -29 0 -46 -5 -174 -44 -29 -9 -60 -16 -71 -16 -11 0 -28
-7 -39 -15 -10 -8 -29 -15 -41 -15 -12 0 -35 -7 -52 -15 -17 -8 -45 -22 -62
-30 -17 -8 -39 -15 -49 -15 -9 0 -23 -7 -30 -15 -7 -8 -19 -15 -27 -15 -13 0
-37 -11 -93 -41 -8 -4 -37 -20 -65 -34 -60 -30 -56 -28 -216 -132 -69 -44
-132 -87 -140 -95 -8 -7 -30 -25 -49 -38 -57 -39 -267 -240 -363 -348 -61 -68
-174 -221 -222 -300 -17 -27 -59 -96 -72 -117 -7 -11 -24 -42 -38 -70 -14 -27
-30 -57 -34 -65 -16 -26 -68 -144 -86 -190 -9 -25 -23 -57 -31 -72 -8 -14 -14
-37 -14 -50 0 -12 -7 -32 -15 -42 -8 -11 -15 -31 -15 -45 -1 -14 -7 -37 -15
-51 -8 -14 -14 -37 -15 -51 0 -15 -7 -43 -15 -62 -8 -20 -15 -52 -15 -71 0
-19 -5 -47 -11 -63 -7 -15 -15 -66 -20 -113 -5 -47 -13 -110 -18 -140 -12 -70
-12 -408 0 -480 5 -30 13 -96 18 -146 5 -50 14 -101 20 -112 6 -11 11 -37 11
-57 0 -19 7 -52 15 -72 8 -19 15 -47 15 -62 1 -14 7 -37 15 -51 8 -14 14 -37
15 -51 0 -14 7 -34 15 -45 8 -10 15 -29 15 -41 0 -12 6 -34 14 -50 8 -15 22
-48 31 -73 9 -25 30 -72 45 -105 15 -33 31 -67 34 -75 4 -8 22 -42 41 -75 19
-33 39 -71 45 -85 6 -14 22 -39 36 -57 13 -17 24 -35 24 -38 0 -4 14 -24 30
-45 17 -21 30 -41 30 -44 0 -9 119 -165 167 -218 47 -53 223 -229 283 -283 66
-60 216 -171 298 -220 9 -6 35 -22 57 -35 63 -40 77 -48 130 -75 28 -14 57
-30 65 -35 23 -13 139 -65 190 -85 25 -9 57 -23 72 -31 14 -8 37 -14 50 -14
12 0 32 -7 42 -15 11 -8 28 -15 39 -15 11 0 40 -7 66 -14 127 -40 236 -64 351
-77 41 -4 104 -13 140 -18 81 -13 418 -13 485 0 28 5 91 13 140 18 50 6 109
15 133 20 23 6 61 16 85 22 23 6 60 14 82 18 22 4 50 13 62 19 12 7 32 12 45
12 13 0 33 7 44 15 10 8 31 15 45 15 14 0 34 7 45 15 10 8 27 15 36 15 9 0 29
6 45 14 15 8 46 22 68 32 22 9 47 21 55 26 8 4 22 11 30 14 29 12 36 15 95 49
33 19 71 39 85 45 14 6 39 22 57 36 17 13 34 24 37 24 16 0 235 160 306 225
60 54 235 229 283 283 48 54 167 209 167 218 0 3 14 23 30 44 17 21 30 41 30
45 0 3 11 21 24 38 14 18 30 43 36 57 6 14 26 52 45 85 19 33 37 67 41 75 13
32 66 146 80 173 8 16 14 36 14 45 0 9 7 26 15 36 8 11 15 31 15 45 0 14 7 35
15 45 8 11 15 31 15 45 1 14 7 37 15 51 8 14 14 36 15 49 0 13 6 44 14 70 20
64 37 152 46 241 5 41 13 104 19 140 13 83 14 383 0 475 -6 39 -14 106 -18
150 -5 44 -13 93 -20 108 -6 16 -11 44 -11 63 0 19 -7 51 -15 71 -8 19 -15 47
-15 62 -1 14 -7 37 -15 51 -8 14 -14 37 -15 51 0 14 -7 34 -15 45 -8 10 -15
30 -15 42 0 13 -6 36 -14 50 -8 15 -22 47 -31 72 -20 51 -72 167 -85 190 -5 8
-21 38 -35 65 -14 28 -31 59 -38 70 -13 21 -55 90 -72 117 -48 79 -161 232
-222 300 -47 52 -223 229 -283 284 -52 47 -206 164 -215 164 -4 0 -24 14 -45
30 -21 17 -40 30 -43 30 -3 0 -25 12 -49 28 -69 44 -80 50 -133 77 -27 14 -57
30 -65 35 -24 13 -141 66 -190 84 -25 10 -58 24 -73 32 -16 8 -38 14 -50 14
-12 0 -31 7 -41 15 -11 8 -31 15 -45 15 -14 1 -37 7 -51 15 -14 8 -37 14 -51
15 -15 0 -43 7 -62 15 -20 8 -53 15 -72 15 -20 0 -46 5 -57 11 -12 7 -62 15
-112 20 -50 5 -116 13 -146 18 -68 12 -417 11 -485 0z m218 -80 c7 7 14 5 23
-6 10 -15 14 -15 28 -4 12 10 42 12 128 6 61 -3 115 -8 119 -10 4 -3 40 -5 80
-6 48 -1 91 -9 120 -21 26 -11 53 -18 60 -17 8 1 21 0 29 -3 55 -19 89 -28
106 -28 29 0 98 -26 102 -39 2 -6 16 -11 30 -11 65 0 282 -88 407 -165 22 -14
47 -25 56 -25 9 0 24 -9 34 -20 10 -11 23 -20 29 -20 11 0 89 -54 151 -103 17
-13 44 -31 60 -40 17 -8 53 -38 80 -66 28 -28 54 -51 59 -51 16 0 124 -106
216 -210 30 -34 68 -76 84 -94 73 -80 137 -164 158 -206 7 -14 18 -29 25 -33
7 -4 13 -15 13 -23 0 -8 7 -17 15 -20 8 -4 15 -15 15 -25 0 -10 9 -28 21 -40
22 -22 119 -203 119 -223 0 -6 9 -22 20 -36 11 -14 20 -35 20 -48 0 -12 7 -25
15 -28 8 -4 15 -16 15 -29 0 -12 7 -36 15 -51 8 -16 15 -38 15 -50 0 -11 8
-38 18 -60 10 -21 24 -66 31 -99 7 -33 17 -69 21 -80 23 -60 46 -191 55 -315
2 -36 7 -77 11 -93 4 -16 1 -33 -6 -42 -9 -11 -10 -19 -1 -28 7 -9 9 -48 6
-108 -9 -214 -18 -366 -21 -394 -3 -31 -37 -184 -53 -245 -6 -19 -15 -55 -21
-80 -7 -25 -18 -59 -26 -77 -8 -17 -14 -39 -14 -50 0 -10 -7 -29 -16 -41 -8
-12 -26 -53 -39 -90 -31 -88 -62 -158 -92 -204 -12 -21 -23 -44 -23 -51 0 -8
-14 -31 -30 -52 -16 -21 -30 -43 -30 -50 0 -6 -16 -30 -35 -52 -19 -23 -35
-48 -35 -57 0 -8 -9 -20 -19 -25 -10 -6 -28 -30 -40 -53 -11 -24 -47 -71 -78
-104 -32 -34 -74 -81 -93 -104 -64 -77 -154 -170 -165 -170 -6 0 -22 -12 -36
-27 -14 -16 -41 -40 -60 -55 -45 -36 -126 -101 -166 -133 -17 -14 -45 -30 -62
-36 -17 -6 -31 -15 -31 -20 0 -18 -40 -49 -63 -49 -13 0 -32 -10 -43 -21 -10
-12 -53 -37 -94 -56 -41 -19 -102 -48 -136 -64 -33 -16 -70 -29 -82 -29 -12 0
-22 -4 -22 -9 0 -13 -58 -41 -84 -41 -12 -1 -39 -9 -61 -20 -22 -11 -52 -19
-66 -20 -15 0 -32 -7 -39 -15 -8 -10 -31 -15 -64 -15 -28 -1 -62 -7 -76 -15
-14 -8 -40 -14 -58 -15 -18 0 -45 -6 -60 -14 -46 -23 -474 -36 -707 -22 -109
7 -153 14 -225 33 -98 26 -134 35 -165 37 -16 1 -43 7 -58 14 -16 7 -34 12
-41 12 -8 0 -19 7 -26 15 -7 9 -29 15 -54 15 -23 0 -51 7 -62 15 -10 8 -26 15
-35 15 -9 0 -19 6 -22 14 -3 8 -21 17 -39 21 -18 4 -53 17 -78 30 -148 73
-197 100 -215 115 -11 9 -35 23 -53 30 -18 7 -36 18 -40 24 -4 6 -28 22 -54
36 -27 13 -48 28 -48 32 0 3 -9 10 -20 13 -11 3 -26 12 -33 20 -8 7 -40 35
-73 63 -32 27 -75 64 -95 83 -20 19 -60 54 -88 79 -28 24 -51 47 -51 51 0 3
-28 35 -63 70 -34 35 -77 85 -95 112 -18 26 -37 47 -42 47 -5 0 -12 9 -15 21
-4 11 -27 43 -51 70 -24 27 -51 65 -58 84 -8 19 -20 35 -25 35 -6 0 -11 9 -11
19 0 11 -11 32 -24 48 -14 16 -36 54 -50 84 -14 30 -30 61 -35 69 -20 33 -68
137 -75 163 -3 15 -18 52 -31 82 -14 29 -25 63 -25 75 0 11 -10 40 -21 63 -29
56 -40 92 -45 151 -2 27 -8 54 -13 60 -10 13 -19 60 -32 181 -5 50 -14 127
-19 173 -7 51 -7 89 -1 100 5 10 5 40 -1 77 -5 33 -7 96 -3 140 3 44 7 109 9
145 5 101 26 221 52 292 8 21 14 52 15 70 2 48 24 119 48 158 11 19 21 47 21
62 0 15 9 42 20 60 11 18 20 40 20 48 0 12 65 149 105 220 8 14 17 37 19 51 3
15 17 37 31 50 13 13 25 29 25 35 0 6 13 29 29 51 16 22 32 49 35 61 4 12 11
22 17 22 5 0 21 19 35 43 15 23 41 58 58 78 17 20 42 51 56 69 65 86 283 310
302 310 5 0 25 15 45 34 55 52 70 64 92 76 12 6 62 42 112 80 50 39 101 70
113 70 12 0 27 9 34 20 14 23 255 140 342 165 14 4 36 16 49 26 15 12 40 19
67 19 23 0 46 5 49 10 10 16 69 38 122 46 26 3 53 11 60 16 6 5 17 8 25 7 7
-1 27 3 43 10 39 16 119 29 225 36 47 3 117 9 155 13 39 5 78 4 89 -1 11 -6
22 -5 29 2z"/>
<path d="M1396 26403 c-11 -11 -6 -40 9 -53 13 -11 15 -8 15 18 0 31 -11 47
-24 35z"/>
<path d="M1430 26309 c0 -25 17 -59 30 -59 14 0 12 21 -2 53 -15 32 -28 35
-28 6z"/>
<path d="M1480 26225 c0 -19 31 -78 53 -100 9 -9 17 -28 17 -41 0 -14 11 -35
24 -47 13 -12 33 -43 44 -68 12 -25 27 -51 35 -57 8 -7 22 -30 32 -52 10 -22
21 -40 25 -40 5 0 11 -12 14 -26 4 -15 22 -50 39 -78 18 -28 38 -63 45 -78 6
-16 16 -28 22 -28 16 0 12 50 -5 56 -8 4 -15 14 -15 25 0 10 -6 22 -13 26 -6
4 -22 29 -35 56 -13 26 -28 47 -33 47 -5 0 -9 8 -9 18 0 10 -4 22 -9 28 -9 8
-41 65 -78 137 -8 15 -19 27 -24 27 -5 0 -9 11 -9 25 0 14 -5 25 -10 25 -6 0
-15 10 -20 23 -6 12 -14 30 -20 40 -5 9 -15 25 -20 35 -6 9 -14 27 -20 40 -11
25 -30 30 -30 7z"/>
<path d="M1875 25560 c-8 -12 30 -94 62 -133 13 -16 23 -37 23 -47 0 -10 11
-32 24 -47 22 -25 25 -26 31 -11 5 12 -4 31 -24 57 -17 21 -31 46 -31 54 0 8
-7 20 -15 27 -8 7 -15 20 -15 30 0 10 -7 20 -15 24 -8 3 -15 14 -15 25 0 23
-16 36 -25 21z"/>
<path d="M2029 25293 c-4 -24 6 -51 26 -75 12 -14 25 -42 29 -61 3 -19 16 -43
27 -53 12 -11 33 -41 48 -68 14 -26 38 -69 53 -95 15 -25 32 -58 38 -73 6 -14
18 -29 26 -32 8 -3 14 -14 14 -25 0 -11 8 -24 17 -29 9 -5 24 -25 32 -43 9
-18 22 -34 29 -37 17 -5 15 27 -3 34 -8 4 -15 12 -15 19 0 7 -7 18 -15 25 -8
7 -15 21 -15 32 0 10 -7 21 -15 24 -8 4 -15 12 -15 19 0 7 -7 18 -15 25 -8 7
-15 22 -15 34 0 12 -8 26 -18 32 -10 7 -33 41 -51 78 -17 36 -36 68 -41 71 -6
4 -10 14 -10 24 0 9 -13 30 -30 46 -16 16 -30 39 -30 51 0 12 -7 27 -15 34 -8
7 -15 21 -15 31 0 18 -19 28 -21 12z"/>
<path d="M2383 24665 c-3 -9 11 -43 31 -78 21 -34 41 -69 45 -77 5 -8 16 -16
25 -18 20 -4 22 26 1 34 -8 4 -15 13 -15 21 0 8 -11 29 -24 46 -14 18 -28 44
-31 60 -8 30 -22 35 -32 12z"/>
<path d="M2500 24456 c0 -8 5 -18 10 -21 6 -3 10 -14 10 -24 0 -10 22 -50 50
-89 27 -40 54 -89 59 -109 6 -20 20 -46 31 -58 22 -23 60 -86 85 -140 7 -17
23 -39 34 -49 21 -19 21 -19 21 6 0 14 -10 33 -21 44 -12 10 -28 33 -36 49
-13 28 -19 40 -43 83 -6 9 -14 27 -20 40 -5 12 -21 35 -35 50 -14 15 -25 36
-25 48 0 12 -7 27 -15 34 -8 7 -15 17 -15 22 0 9 -39 68 -51 78 -4 3 -8 14
-10 24 -5 23 -29 34 -29 12z"/>
<path d="M2810 23932 c0 -6 4 -13 9 -16 4 -3 11 -19 14 -36 7 -35 27 -41 27
-7 0 12 -12 33 -25 46 -14 13 -25 18 -25 13z"/>
<path d="M2865 23813 c3 -16 14 -37 24 -48 10 -11 28 -44 42 -72 13 -29 28
-53 34 -53 5 -1 17 -15 26 -33 33 -69 93 -172 104 -182 7 -5 21 -29 31 -52 10
-24 21 -43 26 -43 14 0 8 40 -7 46 -8 4 -15 17 -15 30 0 14 -7 27 -15 30 -8 4
-15 12 -15 19 0 7 -7 18 -15 25 -8 7 -15 20 -15 30 0 10 -7 20 -15 24 -8 3
-15 14 -15 24 0 11 -7 25 -15 32 -8 7 -15 19 -15 27 0 7 -7 16 -15 19 -8 4
-15 15 -15 25 0 11 -7 22 -15 25 -8 4 -15 14 -15 24 0 11 -4 22 -10 25 -5 3
-20 28 -31 56 -23 54 -56 70 -44 22z"/>
</g>
</svg>
