<?xml version="1.0" encoding="UTF-8" standalone="no"?>
<!-- Created with Inkscape (http://www.inkscape.org/) -->

<svg
   width="210mm"
   height="297mm"
   viewBox="0 0 210 297"
   version="1.1"
   id="svg5"
   sodipodi:docname="left-arrow(drawn).svg"
   inkscape:version="1.2.2 (732a01da63, 2022-12-09)"
   xmlns:inkscape="http://www.inkscape.org/namespaces/inkscape"
   xmlns:sodipodi="http://sodipodi.sourceforge.net/DTD/sodipodi-0.dtd"
   xmlns="http://www.w3.org/2000/svg"
   xmlns:svg="http://www.w3.org/2000/svg">
  <sodipodi:namedview
     id="namedview7"
     pagecolor="#ffffff"
     bordercolor="#111111"
     borderopacity="1"
     inkscape:showpageshadow="0"
     inkscape:pageopacity="0"
     inkscape:pagecheckerboard="1"
     inkscape:deskcolor="#d1d1d1"
     inkscape:document-units="mm"
     showgrid="false"
     inkscape:zoom="0.74564394"
     inkscape:cx="396.97231"
     inkscape:cy="561.9304"
     inkscape:window-width="1920"
     inkscape:window-height="1017"
     inkscape:window-x="-32000"
     inkscape:window-y="-32000"
     inkscape:window-maximized="0"
     inkscape:current-layer="layer1" />
  <defs
     id="defs2" />
  <g
     inkscape:label="Layer 1"
     inkscape:groupmode="layer"
     id="layer1">
    <path
       style="fill:#000000;stroke-width:0.264583"
       id="path108"
       d="m 68.993326,93.931279 c -6.772281,3.32029 -13.346282,7.087631 -19.679002,11.183891 -2.97444,1.92398 -5.95821,3.84399 -8.79453,5.96631 -3.05074,2.28277 -5.89935,4.82386 -8.84903,7.23579 -8.36801,7.66927 -16.39132,15.88022 -22.8228695,25.27962 -0.85081,1.24342 -1.59119,2.55891 -2.38679,3.83836 0,0 3.07038,1.77913 3.07038,1.77913 v 0 c 0.7467095,-1.29739 1.4329295,-2.63152 2.2401295,-3.89216 6.11487,-9.54988 13.99513,-17.85029 22.31753,-25.48828 2.96701,-2.39044 5.82793,-4.91891 8.90104,-7.17131 2.86821,-2.10222 5.88474,-3.99751 8.903,-5.87795 6.49113,-4.04412 13.276449,-7.733681 20.354499,-10.645351 0,0 -3.254357,-2.20805 -3.254357,-2.20805 z" />
    <path
       style="fill:#000000;stroke-width:0.264583"
       id="path110"
       d="m 60.659241,198.22699 c -5.14982,-1.85279 -10.19868,-3.9784 -15.03123,-6.56259 -4.95308,-2.64865 -10.74862,-6.65658 -14.94687,-10.05937 -2.68123,-2.17319 -5.10938,-4.64125 -7.66407,-6.96188 -1.92939,-2.36138 -4.08426,-4.55524 -5.78817,-7.08414 -2.63931,-3.91719 -4.51427,-8.21995 -5.08795,-12.92832 -0.2109,-1.73099 0.0929,-3.48633 0.13933,-5.2295 0,0 -3.0878705,-1.58147 -3.0878705,-1.58147 v 0 c -0.0272,1.78682 -0.31539,3.58878 -0.0817,5.36047 0.63334,4.80244 2.5799005,9.18161 5.2872205,13.17305 1.735,2.55794 3.91961,4.78015 5.87942,7.17022 2.56528,2.33634 5.00684,4.81621 7.69583,7.00902 10.65094,8.68557 22.95161,15.22359 35.75994,20.08897 0,0 -3.07384,-2.39446 -3.07384,-2.39446 z" />
    <path
       style="fill:#000000;stroke-width:0.264583"
       id="path112"
       d="m 104.89484,150.77814 c -17.285074,-0.96745 -34.603104,-0.93115 -51.904764,-1.37828 -5.3117,-0.13727 -10.62191,-0.32721 -15.93286,-0.49081 -18.3,-0.82441 -9.54868,-0.36685 -26.25561,-1.34128 0,0 2.26609,1.6647 2.26609,1.6647 v 0 c 16.47158,0.77306 7.82844,0.40092 25.93031,1.09559 10.75331,0.31621 21.50798,0.58498 32.26121,0.90407 12.26823,0.36405 24.55213,0.72147 36.779444,1.85019 0,0 -3.14382,-2.30418 -3.14382,-2.30418 z" />
  </g>
</svg>
