<?xml version="1.0" standalone="no"?>
<!DOCTYPE svg PUBLIC "-//W3C//DTD SVG 20010904//EN"
 "http://www.w3.org/TR/2001/REC-SVG-20010904/DTD/svg10.dtd">
<svg version="1.0" xmlns="http://www.w3.org/2000/svg"
 width="300.000000pt" height="300.000000pt" viewBox="0 0 300.000000 300.000000"
 preserveAspectRatio="xMidYMid meet">
<metadata>
Created by potrace 1.10, written by Peter Selinger 2001-2011
</metadata>
<g transform="translate(0.000000,300.000000) scale(0.100000,-0.100000)"
fill="#000000" stroke="none">
<path d="M90 1530 l0 -1040 1383 0 1382 0 0 1040 0 1040 -1382 0 -1383 0 0
-1040z m2715 -5 l0 -990 -1329 -3 c-1057 -2 -1331 0 -1338 10 -10 17 -10 1949
0 1965 11 18 108 19 1462 13 l1205 -5 0 -990z"/>
<path d="M401 2399 c-18 -20 -19 -24 -6 -48 17 -33 992 -1005 1024 -1021 35
-18 86 -15 123 9 59 36 1018 1005 1018 1027 0 12 -8 28 -18 37 -17 16 -106 17
-1070 17 l-1051 0 -20 -21z m2136 -19 c-13 -26 -1019 -1011 -1039 -1019 -19
-7 -37 -7 -55 0 -24 9 -1033 1004 -1033 1019 0 3 479 5 1065 5 586 0 1064 -2
1062 -5z"/>
<path d="M262 2262 c-17 -17 -19 -47 -26 -380 -4 -199 -4 -520 0 -714 7 -376
9 -388 57 -388 12 0 136 116 329 308 334 330 408 411 408 444 0 15 -108 130
-347 371 -192 192 -360 355 -375 363 -25 13 -29 13 -46 -4z m380 -376 l358
-361 -363 -363 -362 -362 0 725 c0 399 2 724 5 723 3 0 166 -164 362 -362z"/>
<path d="M2635 2261 c-16 -10 -184 -174 -372 -363 -296 -297 -343 -348 -343
-373 0 -26 48 -78 358 -387 249 -249 364 -358 379 -358 12 0 29 10 37 22 14
20 16 105 16 725 l0 702 -22 26 -23 25 -30 -19z m33 -1099 l-3 -357 -360 363
-360 362 360 360 360 360 3 -366 c1 -201 1 -526 0 -722z"/>
<path d="M1084 1401 c-53 -39 -678 -670 -694 -699 -10 -21 -9 -27 11 -48 l22
-24 1047 0 c930 0 1048 2 1068 16 12 8 22 25 22 37 0 15 -107 129 -352 375
-194 194 -361 358 -370 363 -26 14 -51 -2 -138 -86 -96 -92 -146 -118 -225
-118 -80 0 -141 32 -225 118 -54 56 -105 95 -123 95 -2 0 -22 -13 -43 -29z
m271 -202 c39 -18 66 -24 120 -24 94 1 137 24 250 136 l90 89 365 -365 365
-365 -1070 0 -1070 0 363 363 362 362 88 -85 c49 -49 109 -97 137 -111z"/>
</g>
</svg>
