 <svg  version="1.0" xmlns="http://www.w3.org/2000/svg"  width="300.000000pt" height="300.000000pt" viewBox="0 0 300.000000 300.000000"  preserveAspectRatio="xMidYMid meet">  <g transform="translate(0.000000,300.000000) scale(0.050000,-0.050000)" fill="#ff0000" stroke="none"> <path d="M1674 5131 c-521 -425 -983 -1431 -656 -1431 73 0 90 23 121 170 94 441 344 845 685 1105 112 85 131 129 87 196 -47 72 -112 61 -237 -40z"/> <path d="M4089 5171 c-44 -67 -25 -111 87 -196 341 -260 591 -664 685 -1105 31 -147 48 -170 121 -170 246 0 -18 767 -410 1193 -278 301 -416 381 -483 278z"/> <path d="M2875 4896 c-93 -25 -159 -102 -215 -250 -57 -153 -63 -158 -249 -245 -467 -217 -593 -532 -587 -1461 3 -412 -6 -447 -208 -757 -216 -331 -294 -580 -219 -698 23 -37 3183 -37 3206 0 75 118 -3 367 -219 698 -204 313 -212 342 -208 777 6 910 -122 1225 -587 1441 -186 87 -192 92 -249 245 -88 234 -232 312 -465 250z m198 -266 c24 -16 70 -77 102 -135 78 -138 204 -251 382 -345 320 -168 364 -280 384 -990 20 -692 29 -726 289 -1128 152 -236 166 -321 57 -339 -100 -16 -2453 -17 -2574 0 -144 19 -146 12 169 528 131 215 141 271 159 869 9 297 24 572 34 610 58 220 167 350 386 461 163 82 279 193 358 340 81 152 163 193 254 129z"/> <path d="M1949 4682 c-352 -261 -680 -1063 -434 -1062 86 1 105 24 138 172 51 229 166 442 337 624 163 174 186 237 106 293 -58 40 -55 41 -147 -27z"/> <path d="M3904 4709 c-80 -56 -57 -119 106 -293 171 -182 286 -395 337 -624 33 -148 52 -171 138 -172 248 -1 -96 828 -443 1069 -87 60 -81 59 -138 20z"/> <path d="M2420 1224 c0 -175 352 -444 580 -444 228 0 580 269 580 444 0 3 -261 6 -580 6 -319 0 -580 -3 -580 -6z"/> </g> </svg> 