<?xml version="1.0" standalone="no"?>
<!DOCTYPE svg PUBLIC "-//W3C//DTD SVG 20010904//EN"
 "http://www.w3.org/TR/2001/REC-SVG-20010904/DTD/svg10.dtd">
<svg version="1.0" xmlns="http://www.w3.org/2000/svg"
 width="300.000000pt" height="300.000000pt" viewBox="0 0 300.000000 300.000000"
 preserveAspectRatio="xMidYMid meet">
<metadata>
Created by potrace 1.10, written by Peter Selinger 2001-2011
</metadata>
<g transform="translate(0.000000,300.000000) scale(0.100000,-0.100000)"
fill="#000000" stroke="none">
<path d="M2095 2828 c-30 -17 -43 -39 -52 -83 -8 -36 -13 -41 -63 -60 l-55
-22 -35 27 c-71 55 -101 49 -191 -37 -51 -48 -59 -61 -59 -92 0 -22 9 -50 24
-71 l23 -35 -25 -52 c-25 -51 -28 -53 -74 -59 -75 -10 -94 -36 -103 -138 -10
-121 10 -152 110 -168 13 -2 26 -21 40 -58 l21 -55 -33 -43 c-51 -67 -45 -92
45 -184 48 -49 62 -58 92 -58 21 0 50 10 70 24 l35 23 52 -25 c50 -25 52 -27
58 -75 11 -76 33 -93 136 -101 59 -5 93 -4 111 5 29 13 58 63 58 101 0 19 10
26 60 44 59 21 60 21 77 1 30 -32 72 -49 104 -42 17 4 59 34 95 67 56 53 64
65 64 97 0 22 -10 50 -25 72 l-24 37 27 50 c25 48 29 51 76 58 62 8 96 41 96
93 0 20 3 59 6 87 6 46 4 54 -22 83 -21 23 -41 34 -69 38 -39 5 -41 7 -61 64
-20 56 -20 59 -3 75 29 26 50 80 43 109 -4 15 -34 56 -68 91 -53 55 -66 64
-96 64 -21 0 -50 -10 -71 -24 l-36 -25 -51 26 c-49 24 -52 28 -58 72 -10 80
-32 96 -149 105 -54 4 -87 2 -100 -6z m187 -56 c9 -10 19 -33 22 -52 6 -44 58
-94 114 -111 36 -10 45 -9 82 10 66 34 83 28 145 -50 41 -52 44 -79 10 -123
-29 -38 -30 -55 -9 -116 20 -58 38 -78 87 -92 58 -17 68 -39 58 -126 -8 -79
-14 -88 -71 -98 -44 -8 -57 -18 -92 -73 -33 -53 -35 -78 -8 -128 27 -50 25
-68 -7 -101 -78 -79 -110 -87 -173 -46 -37 25 -42 26 -90 14 -65 -16 -97 -42
-110 -91 -16 -57 -41 -70 -124 -62 -76 7 -93 19 -102 71 -8 49 -30 75 -88 101
-60 26 -67 26 -111 1 -54 -30 -72 -26 -126 33 -57 61 -61 89 -23 147 25 37 26
43 15 87 -17 66 -45 101 -91 113 -57 15 -69 38 -63 118 6 78 19 97 72 106 47
7 94 57 113 117 11 38 10 45 -10 80 -12 21 -22 46 -22 56 0 34 97 123 133 123
12 0 39 -11 59 -25 42 -28 55 -30 111 -13 46 14 97 61 97 89 0 11 10 30 23 43
20 20 30 22 92 18 47 -3 75 -9 87 -20z"/>
<path d="M2150 2757 c-14 -7 -36 -35 -50 -62 -23 -46 -30 -51 -90 -72 -81 -28
-110 -29 -143 -3 -38 30 -74 25 -113 -14 -38 -38 -41 -57 -19 -100 22 -42 19
-69 -19 -145 -35 -69 -49 -81 -90 -81 -30 0 -76 -50 -76 -83 0 -46 20 -73 72
-98 48 -22 53 -29 75 -88 28 -77 29 -107 3 -146 -29 -44 -25 -73 15 -111 37
-37 57 -41 95 -19 38 21 72 18 140 -14 68 -32 89 -54 90 -91 1 -45 46 -80 103
-80 25 0 77 47 77 71 0 30 34 58 97 78 78 26 84 26 139 -3 54 -29 74 -25 114
21 34 39 36 52 14 96 -24 45 -20 73 19 147 31 59 38 66 76 75 53 13 81 42 88
91 6 45 -11 65 -80 99 -36 17 -45 28 -64 80 -27 76 -28 106 -3 147 29 47 25
75 -14 114 -40 40 -49 41 -112 14 l-47 -21 -74 37 c-79 40 -87 48 -97 104 -10
57 -71 85 -126 57z m90 -64 c0 -62 18 -84 110 -130 46 -24 94 -43 106 -43 11
0 38 12 59 26 l38 25 28 -27 c36 -34 36 -41 2 -76 -34 -36 -34 -78 -1 -171 28
-80 53 -108 105 -116 37 -6 38 -7 41 -52 l3 -46 -50 -5 c-28 -3 -57 -11 -66
-18 -19 -16 -95 -176 -95 -200 0 -9 12 -34 26 -55 l25 -38 -27 -28 c-33 -34
-45 -36 -68 -10 -39 43 -67 45 -162 12 -100 -34 -124 -54 -133 -108 -6 -37 -7
-38 -52 -41 l-46 -3 -5 50 c-3 28 -11 57 -18 66 -15 18 -176 95 -199 95 -9 0
-34 -12 -55 -26 l-38 -26 -29 28 c-35 34 -36 44 -5 73 39 37 40 64 5 162 -35
99 -48 115 -105 127 -38 8 -39 9 -42 54 l-3 45 50 5 c28 3 57 11 66 18 18 15
95 176 95 199 0 9 -12 34 -26 55 l-26 38 28 29 c34 35 44 36 74 5 35 -38 66
-39 160 -6 93 32 130 63 130 109 0 37 6 41 57 41 l43 0 0 -37z"/>
<path d="M2100 2391 c-136 -44 -207 -173 -168 -305 16 -55 99 -138 154 -154
84 -25 160 -9 224 46 60 51 84 104 84 182 0 95 -44 169 -128 212 -43 22 -128
32 -166 19z m146 -58 c70 -32 104 -88 104 -173 0 -117 -72 -190 -189 -193
-113 -2 -195 78 -194 192 0 31 7 70 16 86 49 95 164 133 263 88z"/>
<path d="M2094 2322 c-84 -40 -131 -136 -105 -214 21 -62 109 -128 171 -128
66 0 148 64 169 132 43 133 -109 268 -235 210z m145 -49 c85 -63 75 -186 -20
-236 -92 -49 -208 33 -195 137 12 104 133 159 215 99z"/>
<path d="M1196 1919 c-15 -12 -38 -43 -51 -70 l-25 -49 -58 0 c-31 0 -73 -3
-92 -5 -34 -5 -36 -3 -72 54 -29 48 -44 62 -73 70 -40 11 -62 5 -176 -48 -106
-48 -126 -89 -94 -195 l15 -48 -62 -67 -62 -68 -58 15 c-108 27 -146 -3 -198
-155 -34 -99 -34 -102 -18 -137 12 -24 34 -44 76 -67 l58 -33 2 -91 1 -91 -48
-28 c-54 -32 -81 -70 -81 -114 0 -40 83 -216 111 -236 29 -20 71 -20 135 -1
l49 14 67 -62 67 -63 -13 -57 c-16 -67 -11 -98 18 -130 29 -31 179 -90 232
-91 50 -1 72 16 113 88 l28 51 91 2 92 2 26 -44 c58 -100 103 -107 244 -37 80
40 98 53 113 85 18 37 18 39 0 101 l-20 63 64 66 63 67 57 -13 c64 -15 110 -8
136 21 22 24 87 195 87 228 0 42 -29 79 -86 110 l-54 29 0 61 c0 34 -2 74 -6
90 -5 26 0 32 50 64 95 60 100 97 34 240 -58 124 -89 142 -191 110 l-62 -20
-45 47 c-25 25 -55 52 -66 60 -20 13 -21 16 -7 71 27 112 4 145 -136 198 -106
39 -138 42 -175 13z m163 -50 c94 -36 126 -67 117 -114 -22 -107 -24 -98 49
-174 37 -39 77 -73 87 -77 11 -3 48 0 84 7 87 17 103 8 148 -93 44 -96 46
-131 10 -161 -15 -12 -43 -36 -62 -54 l-37 -31 3 -94 c4 -103 12 -120 83 -160
34 -19 59 -53 59 -81 0 -21 -53 -151 -73 -181 l-20 -28 -85 7 -84 7 -64 -69
c-71 -75 -81 -98 -65 -144 14 -41 14 -85 0 -111 -12 -23 -165 -98 -199 -98
-21 0 -38 15 -108 95 l-32 37 -96 -6 c-53 -4 -100 -9 -105 -12 -5 -3 -25 -30
-44 -60 -52 -81 -65 -83 -208 -27 -85 33 -95 50 -81 133 6 37 6 66 1 77 -14
27 -77 92 -119 123 l-37 27 -65 -15 c-89 -21 -104 -13 -151 85 -48 101 -52
139 -18 167 14 11 43 36 65 55 l40 35 -7 95 c-4 53 -12 102 -19 110 -6 7 -29
25 -51 38 -53 33 -65 50 -65 91 0 36 53 174 74 191 15 12 53 14 123 5 l53 -7
65 69 c36 38 68 80 72 93 3 12 0 48 -8 78 -11 47 -11 59 2 82 18 34 150 99
201 100 34 1 41 -4 78 -54 22 -30 48 -59 59 -64 16 -9 135 -6 189 5 14 3 36
26 57 59 56 86 67 89 184 44z"/>
<path d="M1236 1839 c-14 -11 -34 -35 -42 -52 -31 -58 -37 -61 -166 -64 l-119
-4 -27 33 c-84 100 -94 103 -179 61 -77 -37 -89 -58 -73 -132 7 -32 9 -67 6
-77 -3 -11 -39 -55 -79 -98 -80 -86 -89 -89 -183 -72 -35 6 -43 4 -66 -19 -15
-15 -35 -52 -46 -84 -24 -71 -14 -96 53 -135 24 -15 49 -35 54 -44 5 -10 11
-69 12 -131 l3 -113 -29 -25 c-66 -54 -95 -84 -95 -99 0 -29 61 -144 82 -155
16 -9 38 -8 88 1 40 8 73 9 83 4 8 -5 50 -42 92 -83 l77 -74 -6 -53 c-3 -29
-8 -59 -12 -67 -10 -28 44 -76 109 -96 74 -23 87 -18 132 52 17 25 40 50 51
56 12 5 71 10 132 10 l110 1 52 -60 c30 -34 60 -60 71 -60 26 0 109 38 137 63
25 23 29 65 11 116 -17 48 -6 69 79 160 l79 84 54 -7 c112 -16 125 -8 160 95
l24 70 -42 37 c-23 20 -54 46 -69 58 -26 19 -27 25 -31 124 -2 57 -2 114 2
127 3 13 28 39 55 59 59 43 68 69 45 130 -36 96 -73 117 -159 93 -21 -6 -48
-8 -60 -5 -11 3 -58 41 -103 84 -89 84 -88 81 -68 184 6 33 4 41 -22 66 -17
17 -52 36 -85 46 -69 20 -60 20 -92 -5z m163 -66 c2 -1 -2 -31 -10 -67 -16
-84 -10 -98 98 -200 93 -88 122 -98 199 -72 26 9 51 16 55 16 6 0 69 -124 69
-135 0 -2 -23 -18 -51 -36 -77 -49 -80 -56 -76 -207 4 -150 5 -152 93 -202
l52 -30 -27 -71 c-24 -65 -28 -70 -51 -64 -14 3 -50 8 -81 11 -63 7 -59 10
-178 -118 -79 -86 -85 -104 -55 -192 9 -26 15 -49 13 -50 -2 -2 -34 -17 -71
-34 l-67 -30 -25 41 c-13 23 -36 53 -51 67 -26 24 -30 25 -153 22 -81 -2 -135
-8 -152 -17 -15 -8 -40 -38 -56 -69 -16 -31 -32 -56 -35 -56 -4 0 -35 11 -70
24 -55 21 -64 27 -62 48 2 12 6 49 9 81 l7 57 -98 95 c-110 106 -122 110 -220
80 -27 -8 -50 -13 -50 -12 -1 1 -16 32 -33 70 l-31 67 54 35 c77 49 83 66 78
210 -3 76 -10 128 -18 141 -8 12 -39 36 -69 53 -31 17 -56 35 -56 39 0 5 11
35 24 68 22 54 27 59 53 57 15 -2 54 -4 85 -5 l57 -3 83 89 c46 48 88 102 94
120 11 30 10 42 -20 132 -6 19 2 25 65 53 39 18 72 31 73 29 1 -2 17 -26 34
-54 18 -28 42 -56 54 -63 29 -15 264 -10 294 7 11 6 35 38 52 71 l32 59 68
-26 c37 -14 69 -27 71 -29z"/>
<path d="M933 1436 c-68 -22 -127 -61 -181 -121 -115 -125 -134 -321 -46 -471
35 -59 115 -131 182 -162 50 -24 69 -27 162 -27 97 0 110 2 170 31 86 41 153
108 193 192 30 62 32 75 32 172 0 97 -2 110 -32 172 -40 86 -106 151 -191 191
-57 27 -80 32 -157 34 -57 2 -106 -2 -132 -11z m-83 -104 c-71 -56 -102 -98
-133 -182 -5 -13 -6 -13 -6 1 -3 49 122 209 163 209 6 0 -5 -13 -24 -28z m335
-6 c62 -31 119 -90 148 -155 25 -54 29 -164 8 -224 -23 -66 -84 -132 -155
-167 -61 -31 -71 -32 -148 -28 -97 5 -143 25 -204 90 -60 62 -77 101 -82 191
-5 87 9 138 57 204 83 114 245 153 376 89z m149 -51 c9 -14 23 -36 32 -50 29
-45 7 -26 -30 25 -20 28 -32 50 -27 50 5 0 16 -11 25 -25z m36 -391 c-28 -55
-50 -80 -117 -135 -21 -16 -103 -49 -103 -40 0 4 22 18 50 31 82 38 166 135
186 215 6 22 9 25 12 12 2 -10 -11 -47 -28 -83z m-601 -30 c47 -69 136 -128
210 -140 23 -4 44 -11 47 -15 15 -25 -116 12 -169 47 -47 31 -92 78 -113 117
-21 39 -3 33 25 -9z"/>
</g>
</svg>
