<?xml version="1.0" standalone="no"?>
<!DOCTYPE svg PUBLIC "-//W3C//DTD SVG 20010904//EN"
 "http://www.w3.org/TR/2001/REC-SVG-20010904/DTD/svg10.dtd">
<svg version="1.0" xmlns="http://www.w3.org/2000/svg"
 width="300.000000pt" height="314.000000pt" viewBox="0 0 300.000000 314.000000"
 preserveAspectRatio="xMidYMid meet">
<metadata>
Created by potrace 1.10, written by Peter Selinger 2001-2011
</metadata>
<g transform="translate(0.000000,314.000000) scale(0.100000,-0.100000)"
fill="#000000" stroke="none">
<path d="M1346 2990 c-579 -73 -1055 -487 -1196 -1039 -31 -123 -41 -204 -41
-347 0 -162 20 -291 67 -432 139 -422 472 -754 894 -891 145 -48 256 -64 430
-64 179 0 289 17 446 69 477 159 846 590 929 1087 21 127 21 338 -1 465 -72
424 -350 804 -732 1000 -121 62 -275 115 -397 136 -113 20 -308 28 -399 16z
m384 -57 c484 -76 896 -430 1055 -907 55 -162 68 -263 62 -466 -4 -133 -10
-196 -26 -260 -64 -251 -173 -451 -345 -629 -237 -244 -517 -379 -858 -412
-269 -26 -568 41 -799 178 -324 192 -544 484 -635 845 -35 137 -45 403 -20
545 94 541 496 966 1036 1095 164 39 334 43 530 11z"/>
<path d="M1329 2841 c-47 -15 -74 -34 -152 -110 -74 -72 -77 -74 -62 -37 15
35 15 40 -1 57 -25 28 -61 23 -152 -21 -147 -71 -326 -207 -402 -305 -44 -57
-49 -79 -23 -108 18 -20 17 -20 -14 -14 -45 9 -74 -18 -127 -116 -55 -100
-109 -261 -130 -382 -21 -120 -20 -138 8 -172 l24 -28 -24 -28 c-27 -32 -27
-35 -14 -132 26 -179 115 -421 187 -505 33 -39 39 -41 72 -35 35 7 35 6 18
-12 -27 -30 -21 -54 30 -115 113 -135 316 -278 477 -334 34 -12 42 -12 63 1
27 18 29 35 7 78 -13 24 5 11 72 -53 96 -92 132 -110 220 -110 35 0 54 6 70
21 l22 21 30 -22 c26 -19 40 -22 94 -18 87 6 130 29 222 122 58 59 74 72 62
47 -20 -38 -18 -70 6 -85 54 -33 326 131 482 291 80 82 95 113 72 149 l-17 25
34 -6 c30 -6 37 -3 65 30 82 93 173 345 197 546 6 51 5 58 -20 88 l-28 32 21
22 c31 33 35 65 18 163 -26 146 -53 232 -116 361 -67 137 -89 159 -147 150
l-36 -6 22 23 c31 33 26 56 -27 118 -95 114 -250 230 -403 303 -84 40 -109 43
-134 15 -15 -17 -16 -24 -6 -47 9 -20 -5 -11 -54 35 -82 77 -128 101 -211 109
-57 5 -69 3 -95 -16 l-30 -22 -26 20 c-27 22 -93 27 -144 12z m131 -346 l0
-315 -97 5 c-272 17 -423 34 -423 48 0 20 74 195 112 265 45 83 137 203 189
246 51 43 108 66 167 66 l52 0 0 -315z m255 287 c50 -26 140 -118 195 -201 77
-115 171 -338 149 -351 -13 -9 -175 -28 -294 -35 -49 -3 -120 -8 -157 -11
l-68 -5 0 317 0 317 68 -5 c40 -3 83 -13 107 -26z m-635 -74 c-87 -117 -147
-228 -200 -370 -38 -99 -38 -99 -131 -72 -78 23 -199 74 -199 85 0 18 137 153
219 215 80 61 318 190 330 179 2 -3 -6 -20 -19 -37z m1100 -106 c80 -53 270
-229 270 -250 0 -12 -108 -56 -211 -86 l-75 -23 -27 78 c-52 146 -161 347
-211 388 -9 7 -16 20 -16 27 0 19 156 -59 270 -134z m-1622 -361 c31 -16 103
-42 160 -57 114 -32 109 -25 87 -124 -23 -106 -22 -110 28 -110 l43 0 17 86
c9 48 19 89 21 92 5 4 101 -3 466 -36 l75 -7 3 -70 3 -70 41 1 41 1 -2 71 -2
70 103 6 c126 9 393 34 430 42 25 5 27 2 37 -48 6 -29 15 -73 19 -97 l7 -43
48 -2 c26 -1 47 -1 47 0 0 1 -9 46 -20 99 -11 53 -20 101 -20 105 0 4 37 17
83 29 45 13 115 38 156 57 40 18 77 31 82 28 14 -8 76 -125 109 -205 37 -89
76 -243 86 -339 l7 -70 -173 0 -173 0 7 -42 c4 -23 8 -43 9 -44 1 -1 76 -4
166 -6 l163 -3 -6 -73 c-14 -148 -81 -350 -165 -498 l-30 -51 -68 33 c-37 19
-108 45 -157 59 -50 14 -91 26 -92 28 -2 2 22 148 31 185 5 21 2 22 -45 22
-47 0 -50 -2 -50 -26 0 -35 -30 -164 -38 -164 -4 0 -56 7 -117 15 -60 8 -173
17 -250 20 -201 9 -187 2 -183 85 l3 70 -42 0 -43 0 0 -70 0 -69 -32 -5 c-18
-3 -89 -8 -158 -11 -113 -5 -241 -17 -326 -31 l-32 -4 -18 95 -18 95 -43 0
c-50 0 -50 1 -28 -113 8 -43 15 -82 15 -87 0 -4 -43 -19 -96 -34 -52 -15 -126
-42 -164 -61 l-68 -34 -15 22 c-24 37 -82 158 -111 230 -31 77 -61 209 -71
310 l-7 67 171 0 171 0 0 45 0 45 -171 0 -172 0 7 73 c11 126 60 291 127 425
33 67 65 122 70 122 5 0 35 -13 67 -29z m1620 -31 c17 0 15 -6 -10 -43 -13
-18 -24 -34 -26 -37 -2 -3 -8 2 -13 11 -4 9 -22 22 -39 29 l-30 12 20 25 c11
14 20 35 20 46 0 19 3 18 33 -11 18 -18 38 -32 45 -32z m-1246 -10 c4 0 8 -7
8 -15 0 -8 -5 -15 -12 -15 -7 0 -24 -12 -39 -26 l-28 -27 -6 26 c-4 15 -13 31
-21 38 -18 14 -18 29 -1 29 8 0 24 12 38 26 l24 25 14 -30 c8 -17 18 -31 23
-31z m599 -36 l28 -27 -30 -30 -30 -30 -30 29 -29 28 27 28 c15 15 29 28 32
28 3 0 17 -12 32 -26z m-4 -1121 l-25 -26 -30 25 -30 25 30 31 31 30 25 -30
25 -30 -26 -25z m-597 -13 c5 0 -1 -17 -12 -38 l-21 -38 -23 23 c-13 13 -30
23 -39 23 -18 0 -18 1 10 47 l19 31 29 -24 c16 -13 32 -24 37 -24z m1230 36
c0 -7 9 -25 21 -40 19 -24 19 -26 3 -26 -10 0 -31 -12 -46 -27 -17 -17 -28
-22 -28 -13 0 8 -10 25 -22 38 -17 18 -19 26 -10 29 7 3 25 16 40 29 31 27 42
30 42 10z m-225 -65 c50 -6 102 -14 117 -17 l26 -5 -39 -96 c-77 -189 -156
-313 -264 -411 -58 -54 -91 -67 -182 -75 l-53 -4 0 312 c0 171 2 314 4 316 7
7 293 -8 391 -20z m-475 -295 l0 -314 -47 5 c-98 10 -122 21 -198 96 -40 40
-96 108 -124 152 -47 74 -131 255 -146 316 l-7 26 114 12 c62 6 129 13 148 14
19 2 86 5 148 5 l112 2 0 -314z m-584 180 c27 -86 131 -287 183 -356 27 -36
47 -67 45 -69 -10 -11 -257 124 -335 183 -81 61 -219 197 -219 215 0 11 56 34
185 77 114 38 112 39 141 -50z m1423 39 c60 -20 120 -44 133 -55 l23 -19 -95
-93 c-105 -103 -254 -208 -373 -262 -42 -20 -77 -33 -77 -30 0 2 25 40 55 84
64 91 131 222 170 333 17 46 33 77 41 77 8 0 63 -16 123 -35z"/>
<path d="M700 1787 c0 -2 18 -76 39 -163 21 -88 42 -174 46 -192 7 -33 7 -33
57 -30 l51 3 30 103 c17 56 33 102 36 102 3 0 19 -48 35 -106 l28 -105 51 3
51 3 43 180 c23 99 43 183 43 188 0 4 -24 7 -54 7 l-53 0 -18 -105 c-10 -58
-21 -105 -25 -105 -4 0 -20 50 -36 110 l-29 110 -37 0 c-26 0 -38 -5 -42 -17
-3 -10 -17 -63 -31 -117 -14 -55 -27 -101 -29 -103 -4 -4 -21 84 -32 170 -4
27 -12 50 -18 52 -22 7 -106 16 -106 12z m91 -128 c15 -82 48 -134 81 -124 16
6 18 3 12 -22 -24 -101 -71 -72 -90 56 -3 20 -12 58 -20 85 -16 58 -18 76 -5
76 5 0 15 -32 22 -71z m189 29 c6 -24 14 -51 16 -61 5 -16 3 -17 -15 -5 -17
11 -25 10 -42 -1 -21 -12 -22 -12 -16 20 8 48 25 89 36 89 6 0 15 -19 21 -42z
m167 5 c-3 -21 -8 -47 -11 -58 -3 -11 -12 -51 -21 -90 -20 -92 -21 -95 -44
-95 -16 0 -24 12 -36 52 -8 28 -15 53 -15 55 0 2 10 -2 22 -8 19 -10 25 -8 44
14 12 15 28 52 34 84 14 71 18 83 26 83 4 0 4 -17 1 -37z"/>
<path d="M1252 1782 c-11 -7 -7 -39 23 -163 20 -85 39 -169 42 -186 5 -32 7
-33 58 -33 l52 0 28 100 c15 55 31 102 34 105 4 2 21 -42 37 -98 l29 -102 51
-3 51 -3 27 118 c15 65 36 150 46 190 10 40 15 74 12 77 -11 11 -90 6 -99 -6
-5 -7 -15 -47 -22 -88 -24 -150 -26 -150 -61 -15 -13 50 -28 96 -33 103 -5 6
-24 12 -42 12 l-32 0 -29 -110 c-16 -60 -32 -110 -36 -110 -7 0 -11 14 -31
140 l-12 75 -40 3 c-22 1 -46 -2 -53 -6z m62 -69 c3 -10 8 -40 12 -66 9 -63
47 -112 76 -96 27 15 29 10 15 -39 -25 -84 -59 -82 -77 5 -14 64 -38 168 -46
196 -3 9 -1 17 5 17 5 0 12 -8 15 -17z m196 -7 c5 -13 12 -41 16 -62 7 -36 6
-38 -10 -25 -13 11 -22 11 -41 3 -31 -14 -32 -5 -9 61 18 52 30 59 44 23z
m176 2 c-31 -143 -50 -226 -58 -240 -21 -41 -52 -8 -72 75 -7 27 -6 28 18 12
23 -15 25 -14 50 15 14 18 26 38 26 45 0 32 22 115 31 115 5 0 7 -10 5 -22z"/>
<path d="M1776 1782 c-3 -5 14 -91 38 -193 l43 -184 51 -3 50 -3 17 58 c9 32
21 76 27 98 14 50 24 63 31 39 3 -11 18 -58 32 -106 l26 -88 49 0 c43 0 50 3
55 23 45 184 82 354 78 360 -2 4 -26 7 -53 7 l-48 0 -16 -87 c-9 -49 -16 -98
-16 -110 0 -56 -20 -23 -46 77 l-29 110 -40 0 -41 0 -29 -110 c-16 -60 -32
-110 -35 -110 -4 0 -14 52 -24 115 l-18 115 -49 0 c-26 0 -50 -4 -53 -8z m83
-131 c14 -85 34 -115 71 -108 27 6 27 5 20 -26 -13 -53 -21 -67 -41 -67 -20 0
-25 14 -59 163 -22 97 -25 126 -11 112 5 -6 14 -39 20 -74z m187 44 c7 -19 14
-44 14 -55 0 -17 -3 -19 -18 -11 -11 6 -24 6 -35 0 -14 -8 -17 -6 -17 11 0 23
26 90 35 90 3 0 13 -16 21 -35z m154 -72 c-39 -173 -39 -173 -61 -173 -20 0
-31 19 -44 78 -7 33 -6 33 16 22 20 -11 25 -10 45 13 13 15 26 48 30 74 8 57
22 98 31 90 3 -3 -5 -50 -17 -104z"/>
</g>
</svg>
