<?xml version="1.0" standalone="no"?>
<!DOCTYPE svg PUBLIC "-//W3C//DTD SVG 20010904//EN"
 "http://www.w3.org/TR/2001/REC-SVG-20010904/DTD/svg10.dtd">
<svg version="1.0" xmlns="http://www.w3.org/2000/svg"
 width="300.000000pt" height="167.000000pt" viewBox="0 0 300.000000 167.000000"
 preserveAspectRatio="xMidYMid meet">
<metadata>
Created by potrace 1.10, written by Peter Selinger 2001-2011
</metadata>
<g transform="translate(0.000000,167.000000) scale(0.100000,-0.100000)"
fill="#000000" stroke="none">
<path d="M51 1648 c-1 -23 -6 -28 -28 -29 -24 0 -25 -1 -8 -8 12 -5 28 -3 41
5 11 8 24 11 27 7 4 -3 7 -1 7 6 0 7 -6 11 -14 8 -10 -4 -16 2 -19 16 -4 18
-5 17 -6 -5z"/>
<path d="M151 1648 c-1 -22 4 -28 19 -28 14 0 20 7 20 23 -1 21 -1 21 -15 4
-13 -18 -14 -17 -18 5 -4 21 -4 20 -6 -4z"/>
<path d="M251 1650 c-1 -19 4 -26 19 -26 15 0 20 7 20 26 -1 23 -1 24 -12 5
-11 -19 -11 -19 -19 0 -7 18 -8 17 -8 -5z"/>
<path d="M381 1656 c0 -12 -6 -16 -16 -12 -9 3 -15 0 -15 -9 0 -8 3 -14 8 -14
22 4 33 -4 42 -26 11 -28 40 -24 40 6 0 12 9 21 25 25 16 4 25 13 25 26 0 10
-5 16 -10 13 -6 -4 -8 -11 -5 -16 4 -5 -1 -9 -10 -9 -9 0 -14 4 -10 9 3 5 1
12 -5 16 -6 4 -10 -5 -10 -19 0 -21 -5 -26 -24 -26 -19 0 -26 6 -29 28 -2 15
-5 19 -6 8z"/>
<path d="M2301 1648 c-1 -17 -7 -28 -16 -28 -9 0 -12 -6 -9 -15 4 -10 0 -15
-12 -15 -14 0 -15 -3 -6 -12 13 -13 42 5 42 27 0 7 10 16 23 20 18 6 19 8 5
12 -9 2 -19 12 -21 21 -3 10 -5 5 -6 -10z"/>
<path d="M2401 1648 c-1 -21 4 -28 18 -28 13 0 19 6 18 19 -1 15 -5 17 -13 10
-9 -7 -14 -5 -17 8 -3 12 -5 8 -6 -9z"/>
<path d="M2631 1656 c0 -12 -6 -16 -16 -12 -9 3 -15 0 -15 -9 0 -8 6 -12 14
-9 15 6 40 -29 29 -40 -3 -3 6 -6 20 -6 20 0 27 5 27 20 0 13 9 22 25 26 18 4
25 13 24 28 -1 16 -2 17 -6 4 -2 -10 -8 -18 -13 -18 -5 0 -14 8 -19 18 -9 14
-10 13 -11 -10 0 -23 -5 -28 -24 -28 -19 0 -26 6 -29 28 -2 15 -5 19 -6 8z"/>
<path d="M929 1621 c-23 -23 -40 -44 -36 -47 9 -9 37 15 37 32 0 8 6 14 14 14
15 0 42 28 34 36 -3 2 -25 -13 -49 -35z"/>
<path d="M100 1601 c0 -10 9 -21 20 -24 16 -4 20 0 20 19 0 17 -6 24 -20 24
-13 0 -20 -7 -20 -19z"/>
<path d="M200 1600 c0 -13 7 -20 20 -20 13 0 20 7 20 20 0 13 -7 20 -20 20
-13 0 -20 -7 -20 -20z"/>
<path d="M300 1600 c0 -13 7 -20 20 -20 13 0 20 7 20 20 0 13 -7 20 -20 20
-13 0 -20 -7 -20 -20z"/>
<path d="M490 1595 c0 -20 -5 -25 -25 -25 -18 0 -25 -5 -25 -20 0 -15 7 -20
25 -20 19 0 25 5 25 21 0 12 8 23 20 26 11 3 20 14 20 24 0 12 -7 19 -20 19
-15 0 -20 -7 -20 -25z"/>
<path d="M593 1600 c1 -12 8 -20 19 -20 11 0 18 7 18 20 0 13 -7 20 -19 20
-14 0 -19 -6 -18 -20z"/>
<path d="M2350 1600 c0 -13 7 -20 20 -20 13 0 20 7 20 20 0 13 -7 20 -20 20
-13 0 -20 -7 -20 -20z"/>
<path d="M2450 1600 c0 -13 7 -20 20 -20 13 0 20 7 20 20 0 13 -7 20 -20 20
-13 0 -20 -7 -20 -20z"/>
<path d="M2550 1600 c0 -13 7 -20 20 -20 13 0 20 7 20 20 0 13 -7 20 -20 20
-13 0 -20 -7 -20 -20z"/>
<path d="M2740 1600 c0 -13 7 -20 20 -20 13 0 20 7 20 20 0 13 -7 20 -20 20
-13 0 -20 -7 -20 -20z"/>
<path d="M2840 1600 c0 -13 7 -20 20 -20 13 0 20 7 20 20 0 13 -7 20 -20 20
-13 0 -20 -7 -20 -20z"/>
<path d="M2940 1600 c0 -13 7 -20 19 -20 14 0 19 6 18 20 -1 12 -8 20 -19 20
-11 0 -18 -7 -18 -20z"/>
<path d="M50 1550 c0 -13 7 -20 20 -20 13 0 20 7 20 20 0 13 -7 20 -20 20 -13
0 -20 -7 -20 -20z"/>
<path d="M150 1550 c0 -13 7 -20 20 -20 13 0 20 7 20 20 0 13 -7 20 -20 20
-13 0 -20 -7 -20 -20z"/>
<path d="M250 1550 c0 -13 7 -20 20 -20 13 0 20 7 20 20 0 13 -7 20 -20 20
-13 0 -20 -7 -20 -20z"/>
<path d="M350 1550 c0 -13 7 -20 20 -20 13 0 20 7 20 20 0 13 -7 20 -20 20
-13 0 -20 -7 -20 -20z"/>
<path d="M540 1550 c0 -13 7 -20 20 -20 13 0 20 7 20 20 0 13 -7 20 -20 20
-13 0 -20 -7 -20 -20z"/>
<path d="M640 1550 c0 -13 7 -20 20 -20 13 0 20 7 20 20 0 13 -7 20 -20 20
-13 0 -20 -7 -20 -20z"/>
<path d="M857 1553 c3 -7 0 -13 -6 -13 -6 0 -11 -4 -11 -9 0 -5 9 -7 20 -4 23
6 28 40 6 40 -8 0 -12 -6 -9 -14z"/>
<path d="M1327 1563 c-4 -3 -7 -13 -7 -22 1 -14 2 -14 14 2 16 21 30 23 23 3
-3 -8 0 -19 7 -25 10 -8 11 -4 8 19 -4 29 -28 41 -45 23z"/>
<path d="M1828 1550 c-9 -10 -14 -21 -11 -24 9 -9 43 14 43 29 0 20 -11 18
-32 -5z"/>
<path d="M2219 1561 c9 -6 10 -11 2 -15 -18 -12 -12 -24 9 -19 28 7 26 38 -2
40 -16 2 -19 0 -9 -6z"/>
<path d="M2400 1550 c0 -13 7 -20 20 -20 13 0 20 7 20 20 0 13 -7 20 -20 20
-13 0 -20 -7 -20 -20z"/>
<path d="M2500 1550 c0 -13 7 -20 20 -20 13 0 20 7 20 20 0 13 -7 20 -20 20
-13 0 -20 -7 -20 -20z"/>
<path d="M2600 1550 c0 -13 7 -20 20 -20 13 0 20 7 20 20 0 13 -7 20 -20 20
-13 0 -20 -7 -20 -20z"/>
<path d="M2690 1550 c0 -15 7 -20 25 -20 18 0 25 5 25 20 0 15 -7 20 -25 20
-18 0 -25 -5 -25 -20z"/>
<path d="M2790 1550 c0 -13 7 -20 20 -20 13 0 20 7 20 20 0 13 -7 20 -20 20
-13 0 -20 -7 -20 -20z"/>
<path d="M2890 1550 c0 -13 7 -20 20 -20 13 0 20 7 20 20 0 13 -7 20 -20 20
-13 0 -20 -7 -20 -20z"/>
<path d="M100 1500 c0 -13 7 -20 20 -20 13 0 20 7 20 20 0 13 -7 20 -20 20
-13 0 -20 -7 -20 -20z"/>
<path d="M200 1500 c0 -13 7 -20 20 -20 13 0 20 7 20 20 0 13 -7 20 -20 20
-13 0 -20 -7 -20 -20z"/>
<path d="M300 1500 c0 -13 7 -20 20 -20 13 0 20 7 20 20 0 13 -7 20 -20 20
-13 0 -20 -7 -20 -20z"/>
<path d="M397 1500 c3 -11 14 -20 24 -20 12 0 19 7 19 20 0 14 -7 20 -24 20
-19 0 -23 -4 -19 -20z"/>
<path d="M490 1500 c0 -13 7 -20 20 -20 13 0 20 7 20 20 0 13 -7 20 -20 20
-13 0 -20 -7 -20 -20z"/>
<path d="M590 1500 c0 -13 7 -20 20 -20 13 0 20 7 20 20 0 13 -7 20 -20 20
-13 0 -20 -7 -20 -20z"/>
<path d="M2350 1500 c0 -13 7 -20 20 -20 13 0 20 7 20 20 0 13 -7 20 -20 20
-13 0 -20 -7 -20 -20z"/>
<path d="M2450 1500 c0 -13 7 -20 20 -20 13 0 20 7 20 20 0 13 -7 20 -20 20
-13 0 -20 -7 -20 -20z"/>
<path d="M2550 1500 c0 -13 7 -20 20 -20 13 0 20 7 20 20 0 13 -7 20 -20 20
-13 0 -20 -7 -20 -20z"/>
<path d="M2643 1500 c-1 -15 4 -20 23 -20 17 0 24 5 24 20 0 14 -7 20 -23 20
-16 0 -23 -6 -24 -20z"/>
<path d="M2740 1500 c0 -13 7 -20 20 -20 13 0 20 7 20 20 0 13 -7 20 -20 20
-13 0 -20 -7 -20 -20z"/>
<path d="M2840 1500 c0 -13 7 -20 20 -20 13 0 20 7 20 20 0 13 -7 20 -20 20
-13 0 -20 -7 -20 -20z"/>
<path d="M2940 1500 c0 -13 7 -20 20 -20 13 0 20 7 20 20 0 13 -7 20 -20 20
-13 0 -20 -7 -20 -20z"/>
<path d="M50 1450 c0 -13 7 -20 20 -20 13 0 20 7 20 20 0 13 -7 20 -20 20 -13
0 -20 -7 -20 -20z"/>
<path d="M150 1450 c0 -13 7 -20 20 -20 13 0 20 7 20 20 0 13 -7 20 -20 20
-13 0 -20 -7 -20 -20z"/>
<path d="M250 1450 c0 -13 7 -20 20 -20 13 0 20 7 20 20 0 13 -7 20 -20 20
-13 0 -20 -7 -20 -20z"/>
<path d="M350 1450 c0 -13 7 -20 20 -20 13 0 20 7 20 20 0 13 -7 20 -20 20
-13 0 -20 -7 -20 -20z"/>
<path d="M440 1450 c0 -15 7 -20 25 -20 18 0 25 5 25 20 0 15 -7 20 -25 20
-18 0 -25 -5 -25 -20z"/>
<path d="M540 1450 c0 -13 7 -20 20 -20 13 0 20 7 20 20 0 13 -7 20 -20 20
-13 0 -20 -7 -20 -20z"/>
<path d="M640 1450 c0 -13 7 -20 18 -20 11 0 18 8 19 20 1 14 -4 20 -18 20
-12 0 -19 -7 -19 -20z"/>
<path d="M2207 1463 c-4 -3 -7 -11 -7 -17 0 -6 5 -5 12 2 17 17 31 15 24 -3
-3 -8 -1 -15 4 -15 6 0 10 9 10 20 0 20 -28 28 -43 13z"/>
<path d="M2400 1450 c0 -13 7 -20 20 -20 13 0 20 7 20 20 0 13 -7 20 -20 20
-13 0 -20 -7 -20 -20z"/>
<path d="M2503 1450 c-1 -14 4 -20 18 -20 12 0 19 7 19 20 0 13 -7 20 -18 20
-11 0 -18 -8 -19 -20z"/>
<path d="M2600 1450 c0 -13 7 -20 20 -20 13 0 20 7 20 20 0 13 -7 20 -20 20
-13 0 -20 -7 -20 -20z"/>
<path d="M2690 1450 c0 -15 7 -20 25 -20 18 0 25 5 25 20 0 15 -7 20 -25 20
-18 0 -25 -5 -25 -20z"/>
<path d="M2790 1450 c0 -13 7 -20 20 -20 13 0 20 7 20 20 0 13 -7 20 -20 20
-13 0 -20 -7 -20 -20z"/>
<path d="M2890 1450 c0 -13 7 -20 20 -20 13 0 20 7 20 20 0 13 -7 20 -20 20
-13 0 -20 -7 -20 -20z"/>
<path d="M1330 1420 c-189 -30 -386 -129 -538 -269 -36 -34 -43 -45 -40 -72 4
-40 45 -74 77 -64 12 4 50 32 84 62 179 160 446 243 684 214 173 -21 334 -87
456 -188 83 -68 118 -93 132 -93 28 0 65 41 65 72 0 78 -264 253 -475 314 -75
21 -115 26 -240 29 -82 2 -175 0 -205 -5z m361 -45 c52 -10 98 -21 104 -26 5
-5 15 -9 23 -9 18 0 193 -81 210 -97 7 -7 16 -13 20 -13 4 0 19 -10 34 -23 14
-12 36 -29 48 -37 63 -43 88 -88 60 -105 -13 -8 -38 8 -110 69 -29 25 -60 46
-67 46 -7 0 -13 3 -13 8 0 7 -65 42 -152 81 -93 41 -230 66 -358 65 -90 -1
-176 -11 -200 -24 -10 -5 -19 -7 -22 -5 -6 6 -110 -30 -157 -55 -20 -10 -39
-18 -44 -19 -20 -2 -128 -79 -174 -123 -43 -43 -55 -50 -77 -44 -14 3 -26 12
-26 18 0 40 232 204 335 238 22 7 45 16 50 20 6 3 37 12 70 19 33 8 75 18 93
23 18 6 36 8 38 5 3 -3 16 -2 29 2 41 11 187 3 286 -14z"/>
<path d="M100 1400 c0 -13 7 -20 20 -20 13 0 20 7 20 20 0 13 -7 20 -20 20
-13 0 -20 -7 -20 -20z"/>
<path d="M200 1400 c0 -13 7 -20 20 -20 13 0 20 7 20 20 0 13 -7 20 -20 20
-13 0 -20 -7 -20 -20z"/>
<path d="M300 1400 c0 -13 7 -20 20 -20 13 0 20 7 20 20 0 13 -7 20 -20 20
-13 0 -20 -7 -20 -20z"/>
<path d="M397 1400 c7 -28 43 -27 43 1 0 19 -2 20 -17 8 -11 -10 -14 -10 -9
-1 4 7 2 12 -7 12 -10 0 -13 -7 -10 -20z"/>
<path d="M490 1400 c0 -13 7 -20 20 -20 13 0 20 7 20 20 0 13 -7 20 -20 20
-13 0 -20 -7 -20 -20z"/>
<path d="M590 1400 c0 -13 7 -20 20 -20 13 0 20 7 20 20 0 13 -7 20 -20 20
-13 0 -20 -7 -20 -20z"/>
<path d="M784 1409 c-3 -6 -1 -16 5 -22 8 -8 11 -6 11 6 0 9 5 17 11 17 6 0 9
-7 5 -15 -3 -8 -1 -15 4 -15 6 0 10 9 10 20 0 22 -34 28 -46 9z"/>
<path d="M2350 1400 c0 -13 7 -20 20 -20 13 0 20 7 20 20 0 13 -7 20 -20 20
-13 0 -20 -7 -20 -20z"/>
<path d="M2450 1400 c0 -13 7 -20 20 -20 13 0 20 7 20 20 0 13 -7 20 -20 20
-13 0 -20 -7 -20 -20z"/>
<path d="M2550 1400 c0 -13 7 -20 20 -20 13 0 20 7 20 20 0 13 -7 20 -20 20
-13 0 -20 -7 -20 -20z"/>
<path d="M2643 1400 c1 -14 8 -20 24 -20 16 0 23 6 23 20 0 15 -7 20 -24 20
-19 0 -24 -5 -23 -20z"/>
<path d="M2740 1400 c0 -13 7 -20 20 -20 13 0 20 7 20 20 0 13 -7 20 -20 20
-13 0 -20 -7 -20 -20z"/>
<path d="M2840 1400 c0 -13 7 -20 20 -20 13 0 20 7 20 20 0 13 -7 20 -20 20
-13 0 -20 -7 -20 -20z"/>
<path d="M2940 1400 c0 -13 7 -20 20 -20 13 0 20 7 20 20 0 13 -7 20 -20 20
-13 0 -20 -7 -20 -20z"/>
<path d="M50 1348 c0 -11 7 -18 20 -18 13 0 20 7 20 19 0 14 -6 19 -20 18 -12
-1 -20 -8 -20 -19z"/>
<path d="M150 1350 c0 -13 7 -20 20 -20 13 0 20 7 20 20 0 13 -7 20 -20 20
-13 0 -20 -7 -20 -20z"/>
<path d="M250 1350 c0 -13 7 -20 20 -20 13 0 20 7 20 20 0 13 -7 20 -20 20
-13 0 -20 -7 -20 -20z"/>
<path d="M350 1350 c0 -13 7 -20 20 -20 13 0 20 7 20 20 0 13 -7 20 -20 20
-13 0 -20 -7 -20 -20z"/>
<path d="M440 1350 c0 -15 7 -20 25 -20 18 0 25 5 25 20 0 15 -7 20 -25 20
-18 0 -25 -5 -25 -20z"/>
<path d="M540 1350 c0 -13 7 -20 20 -20 13 0 20 7 20 20 0 13 -7 20 -20 20
-13 0 -20 -7 -20 -20z"/>
<path d="M640 1350 c0 -13 7 -20 20 -20 14 0 20 7 20 23 0 18 -2 19 -10 7 -6
-10 -10 -11 -10 -2 0 6 -4 12 -10 12 -5 0 -10 -9 -10 -20z"/>
<path d="M2235 1360 c-4 -6 -10 -8 -14 -6 -4 3 -8 -1 -8 -9 0 -8 9 -15 19 -15
11 0 18 7 18 20 0 22 -5 26 -15 10z"/>
<path d="M2300 1350 c0 -13 7 -20 20 -20 13 0 20 7 20 20 0 13 -7 20 -20 20
-13 0 -20 -7 -20 -20z"/>
<path d="M2400 1350 c0 -13 7 -20 20 -20 13 0 20 7 20 20 0 13 -7 20 -20 20
-13 0 -20 -7 -20 -20z"/>
<path d="M2500 1350 c0 -13 7 -20 20 -20 13 0 20 7 20 20 0 13 -7 20 -20 20
-13 0 -20 -7 -20 -20z"/>
<path d="M2600 1350 c0 -13 7 -20 20 -20 13 0 20 7 20 20 0 13 -7 20 -20 20
-13 0 -20 -7 -20 -20z"/>
<path d="M2690 1350 c0 -15 7 -20 25 -20 18 0 25 5 25 20 0 15 -7 20 -25 20
-18 0 -25 -5 -25 -20z"/>
<path d="M2790 1350 c0 -13 7 -20 20 -20 13 0 20 7 20 20 0 13 -7 20 -20 20
-13 0 -20 -7 -20 -20z"/>
<path d="M2890 1350 c0 -13 7 -20 20 -20 13 0 20 7 20 20 0 13 -7 20 -20 20
-13 0 -20 -7 -20 -20z"/>
<path d="M697 1323 c-4 -3 -7 -15 -7 -25 0 -12 7 -18 23 -17 17 1 18 2 4 6
-20 5 -17 30 2 25 7 -1 10 2 6 8 -7 12 -19 13 -28 3z"/>
<path d="M100 1299 c0 -12 7 -19 20 -19 13 0 20 7 20 18 0 11 -8 18 -20 19
-14 1 -20 -4 -20 -18z"/>
<path d="M200 1298 c0 -11 7 -18 20 -18 13 0 20 7 20 19 0 14 -6 19 -20 18
-12 -1 -20 -8 -20 -19z"/>
<path d="M300 1302 c0 -15 6 -22 20 -22 13 0 20 7 20 20 0 11 -5 20 -11 20 -6
0 -8 -8 -5 -17 5 -15 4 -15 -9 1 -15 19 -15 19 -15 -2z"/>
<path d="M399 1315 c-1 -3 -2 -11 -3 -17 0 -7 -11 -17 -23 -23 -13 -5 -23 -17
-23 -27 0 -10 9 -18 23 -20 14 -2 23 -11 25 -25 2 -15 10 -23 23 -23 13 0 19
-7 19 -22 1 -23 1 -23 17 -3 13 16 15 17 10 3 -4 -10 -3 -18 2 -18 5 0 11 9
14 20 3 12 14 20 26 20 16 0 21 6 21 25 0 19 -5 25 -21 25 -13 0 -23 8 -26 21
-4 16 -8 17 -14 7 -7 -10 -9 -10 -9 0 0 6 -4 12 -10 12 -5 0 -10 -9 -10 -20 0
-15 -7 -20 -25 -20 -20 0 -25 5 -25 25 0 20 5 25 25 25 18 0 25 5 25 20 0 13
-7 20 -20 20 -11 0 -21 -2 -21 -5z m91 -110 c0 -20 -5 -25 -25 -25 -20 0 -25
5 -25 25 0 20 5 25 25 25 20 0 25 -5 25 -25z"/>
<path d="M490 1300 c0 -13 7 -20 20 -20 13 0 20 7 20 20 0 13 -7 20 -20 20
-13 0 -20 -7 -20 -20z"/>
<path d="M590 1300 c0 -13 7 -20 20 -20 13 0 20 7 20 20 0 13 -7 20 -20 20
-13 0 -20 -7 -20 -20z"/>
<path d="M2350 1300 c0 -13 7 -20 20 -20 13 0 20 7 20 20 0 13 -7 20 -20 20
-13 0 -20 -7 -20 -20z"/>
<path d="M2450 1298 c0 -11 7 -18 20 -18 13 0 20 7 20 19 0 14 -6 19 -20 18
-12 -1 -20 -8 -20 -19z"/>
<path d="M2550 1300 c0 -13 7 -20 20 -20 13 0 20 7 20 20 0 13 -7 20 -20 20
-13 0 -20 -7 -20 -20z"/>
<path d="M2644 1305 c3 -9 -4 -21 -19 -31 -30 -20 -33 -44 -5 -44 15 0 20 7
20 25 0 20 5 25 25 25 18 0 25 5 25 20 0 11 -5 20 -11 20 -6 0 -8 -8 -5 -17 6
-17 5 -17 -8 0 -16 21 -30 22 -22 2z"/>
<path d="M2740 1300 c0 -13 7 -20 20 -20 14 0 20 7 20 23 0 18 -2 19 -10 7 -6
-10 -10 -11 -10 -2 0 6 -4 12 -10 12 -5 0 -10 -9 -10 -20z"/>
<path d="M2840 1300 c0 -13 7 -20 20 -20 13 0 20 7 20 20 0 13 -7 20 -20 20
-13 0 -20 -7 -20 -20z"/>
<path d="M2940 1298 c0 -11 7 -18 20 -18 13 0 20 7 20 19 0 14 -6 19 -20 18
-12 -1 -20 -8 -20 -19z"/>
<path d="M540 1256 c0 -19 5 -26 20 -26 14 0 20 7 20 22 0 21 0 21 -15 2 -11
-14 -14 -15 -9 -3 3 10 1 20 -5 24 -7 4 -11 -4 -11 -19z"/>
<path d="M2790 1256 c0 -19 5 -26 20 -26 14 0 20 7 20 22 0 21 0 21 -15 2 -11
-14 -14 -15 -9 -3 3 10 1 20 -5 24 -7 4 -11 -4 -11 -19z"/>
<path d="M50 1250 c0 -13 7 -20 20 -20 14 0 20 7 20 22 0 21 0 21 -15 2 -13
-16 -14 -16 -9 -1 3 9 1 17 -5 17 -6 0 -11 -9 -11 -20z"/>
<path d="M150 1250 c0 -13 7 -20 20 -20 13 0 20 7 20 20 0 13 -7 20 -20 20
-13 0 -20 -7 -20 -20z"/>
<path d="M250 1250 c0 -13 7 -20 20 -20 13 0 20 7 20 20 0 13 -7 20 -20 20
-13 0 -20 -7 -20 -20z"/>
<path d="M640 1253 c0 -16 6 -23 20 -23 13 0 20 7 20 20 0 11 -4 20 -10 20 -5
0 -10 -6 -10 -12 0 -9 -4 -8 -10 2 -8 12 -10 11 -10 -7z"/>
<path d="M765 1260 c-4 -6 -10 -8 -14 -6 -4 3 -8 -1 -8 -9 0 -8 9 -15 19 -15
11 0 18 7 18 20 0 22 -5 26 -15 10z"/>
<path d="M2300 1248 c0 -11 7 -18 20 -18 13 0 20 7 20 18 0 11 -7 18 -20 18
-13 0 -20 -7 -20 -18z"/>
<path d="M2400 1250 c0 -13 7 -20 20 -20 13 0 20 7 20 20 0 13 -7 20 -20 20
-13 0 -20 -7 -20 -20z"/>
<path d="M2500 1248 c0 -11 7 -18 20 -18 13 0 20 7 20 18 0 11 -7 18 -20 18
-13 0 -20 -7 -20 -18z"/>
<path d="M2690 1250 c0 -13 -7 -20 -19 -20 -10 0 -21 -9 -24 -19 -6 -24 0 -31
25 -31 11 0 18 -7 18 -18 0 -25 7 -31 31 -25 10 3 19 14 19 24 0 12 7 19 20
19 15 0 20 7 20 25 0 18 -5 25 -20 25 -13 0 -20 7 -20 20 0 25 -9 25 -26 3
-13 -17 -14 -17 -8 0 3 9 1 17 -5 17 -6 0 -11 -9 -11 -20z m50 -45 c0 -20 -5
-25 -25 -25 -20 0 -25 5 -25 25 0 20 5 25 25 25 20 0 25 -5 25 -25z"/>
<path d="M2890 1251 c0 -14 6 -21 20 -21 13 0 20 7 20 20 0 11 -5 20 -11 20
-5 0 -7 -6 -3 -12 5 -9 2 -9 -9 1 -15 12 -17 11 -17 -8z"/>
<path d="M100 1205 c0 -18 5 -25 20 -25 15 0 20 7 20 25 0 18 -5 25 -20 25
-15 0 -20 -7 -20 -25z"/>
<path d="M200 1205 c0 -18 5 -25 20 -25 15 0 20 7 20 25 0 18 -5 25 -20 25
-15 0 -20 -7 -20 -25z"/>
<path d="M300 1205 c0 -18 5 -25 20 -25 15 0 20 7 20 25 0 18 -5 25 -20 25
-15 0 -20 -7 -20 -25z"/>
<path d="M590 1205 c0 -18 5 -25 20 -25 15 0 20 7 20 25 0 18 -5 25 -20 25
-15 0 -20 -7 -20 -25z"/>
<path d="M690 1220 c0 -5 8 -7 18 -3 15 6 14 3 -3 -17 -18 -21 -18 -23 -2 -17
10 4 21 7 23 7 2 0 4 9 4 20 0 13 -7 20 -20 20 -11 0 -20 -4 -20 -10z"/>
<path d="M2350 1205 c0 -18 5 -25 20 -25 15 0 20 7 20 25 0 18 -5 25 -20 25
-15 0 -20 -7 -20 -25z"/>
<path d="M2450 1205 c0 -18 5 -25 20 -25 15 0 20 7 20 25 0 18 -5 25 -20 25
-15 0 -20 -7 -20 -25z"/>
<path d="M2550 1205 c0 -18 5 -25 20 -25 15 0 20 7 20 25 0 18 -5 25 -20 25
-15 0 -20 -7 -20 -25z"/>
<path d="M2840 1205 c0 -18 5 -25 20 -25 15 0 20 7 20 25 0 18 -5 25 -20 25
-15 0 -20 -7 -20 -25z"/>
<path d="M2940 1205 c0 -18 5 -25 20 -25 15 0 20 7 20 25 0 18 -5 25 -20 25
-15 0 -20 -7 -20 -25z"/>
<path d="M51 1158 c0 -13 3 -17 6 -10 2 6 9 12 14 12 6 0 7 -4 4 -10 -3 -5 -1
-10 4 -10 6 0 11 9 11 20 0 13 -7 20 -20 20 -14 0 -20 -6 -19 -22z"/>
<path d="M150 1160 c0 -13 7 -20 20 -20 13 0 20 7 20 20 0 13 -7 20 -20 20
-13 0 -20 -7 -20 -20z"/>
<path d="M250 1162 c0 -24 8 -32 26 -25 22 8 17 43 -6 43 -13 0 -20 -7 -20
-18z"/>
<path d="M350 1160 c0 -13 7 -20 20 -20 13 0 20 7 20 20 0 13 -7 20 -20 20
-13 0 -20 -7 -20 -20z"/>
<path d="M540 1160 c0 -13 7 -20 20 -20 13 0 20 7 20 20 0 13 -7 20 -20 20
-13 0 -20 -7 -20 -20z"/>
<path d="M640 1160 c0 -13 7 -20 20 -20 13 0 20 7 20 20 0 13 -7 20 -20 20
-13 0 -20 -7 -20 -20z"/>
<path d="M2400 1160 c0 -13 7 -20 20 -20 13 0 20 7 20 20 0 13 -7 20 -20 20
-13 0 -20 -7 -20 -20z"/>
<path d="M2500 1156 c0 -19 4 -23 20 -19 11 3 20 14 20 24 0 12 -7 19 -20 19
-14 0 -20 -7 -20 -24z"/>
<path d="M2600 1160 c0 -13 7 -20 20 -20 13 0 20 7 20 20 0 13 -7 20 -20 20
-13 0 -20 -7 -20 -20z"/>
<path d="M2790 1160 c0 -13 7 -20 20 -20 13 0 20 7 20 20 0 13 -7 20 -20 20
-13 0 -20 -7 -20 -20z"/>
<path d="M2890 1160 c0 -13 7 -20 20 -20 13 0 20 7 20 20 0 13 -7 20 -20 20
-13 0 -20 -7 -20 -20z"/>
<path d="M100 1110 c0 -13 7 -20 20 -20 13 0 20 7 20 20 0 13 -7 20 -20 20
-13 0 -20 -7 -20 -20z"/>
<path d="M200 1110 c0 -13 7 -20 20 -20 13 0 20 7 20 20 0 13 -7 20 -20 20
-13 0 -20 -7 -20 -20z"/>
<path d="M300 1110 c0 -13 7 -20 20 -20 13 0 20 7 20 20 0 13 -7 20 -20 20
-13 0 -20 -7 -20 -20z"/>
<path d="M397 1110 c3 -11 14 -20 24 -20 12 0 19 7 19 20 0 14 -7 20 -24 20
-19 0 -23 -4 -19 -20z"/>
<path d="M490 1110 c0 -13 7 -20 20 -20 13 0 20 7 20 20 0 13 -7 20 -20 20
-13 0 -20 -7 -20 -20z"/>
<path d="M590 1110 c0 -13 7 -20 20 -20 13 0 20 7 20 20 0 13 -7 20 -20 20
-13 0 -20 -7 -20 -20z"/>
<path d="M1365 1116 c-124 -24 -251 -87 -344 -172 -47 -42 -55 -88 -21 -119
32 -29 64 -21 126 30 115 93 231 135 374 135 143 0 259 -42 374 -135 34 -28
68 -47 82 -47 36 0 64 29 64 68 0 29 -9 41 -66 88 -76 62 -181 118 -269 141
-83 22 -235 28 -320 11z m270 -40 c33 -7 69 -16 80 -20 40 -16 150 -70 161
-81 6 -5 21 -17 34 -25 50 -34 71 -60 65 -80 -10 -30 -35 -24 -84 20 -25 22
-50 40 -58 40 -7 0 -13 4 -13 8 0 11 -102 58 -160 73 -25 7 -101 13 -170 13
-117 0 -130 -2 -203 -32 -43 -17 -94 -42 -112 -56 -19 -14 -37 -26 -41 -26 -4
0 -20 -12 -35 -26 -15 -15 -39 -28 -53 -29 -56 -7 -19 50 78 119 36 25 69 46
73 46 5 0 28 9 51 20 22 11 49 20 59 20 10 1 31 6 46 13 38 16 208 18 282 3z"/>
<path d="M2350 1110 c0 -13 7 -20 20 -20 13 0 20 7 20 20 0 13 -7 20 -20 20
-13 0 -20 -7 -20 -20z"/>
<path d="M2450 1110 c0 -13 7 -20 20 -20 13 0 20 7 20 20 0 13 -7 20 -20 20
-13 0 -20 -7 -20 -20z"/>
<path d="M2550 1110 c0 -13 7 -20 20 -20 13 0 20 7 20 20 0 13 -7 20 -20 20
-13 0 -20 -7 -20 -20z"/>
<path d="M2640 1110 c0 -25 17 -26 23 -2 4 16 5 16 6 0 1 -25 21 -23 21 2 0
15 -7 20 -25 20 -18 0 -25 -5 -25 -20z"/>
<path d="M2740 1110 c0 -13 7 -20 20 -20 13 0 20 7 20 20 0 13 -7 20 -20 20
-13 0 -20 -7 -20 -20z"/>
<path d="M2840 1110 c0 -13 7 -20 20 -20 13 0 20 7 20 20 0 13 -7 20 -20 20
-13 0 -20 -7 -20 -20z"/>
<path d="M2940 1110 c0 -13 7 -20 20 -20 13 0 20 7 20 20 0 13 -7 20 -20 20
-13 0 -20 -7 -20 -20z"/>
<path d="M50 1060 c0 -13 7 -20 20 -20 13 0 20 7 20 20 0 13 -7 20 -20 20 -13
0 -20 -7 -20 -20z"/>
<path d="M150 1060 c0 -13 7 -20 20 -20 13 0 20 7 20 20 0 13 -7 20 -20 20
-13 0 -20 -7 -20 -20z"/>
<path d="M250 1060 c0 -13 7 -20 20 -20 13 0 20 7 20 20 0 13 -7 20 -20 20
-13 0 -20 -7 -20 -20z"/>
<path d="M350 1060 c0 -13 7 -20 20 -20 13 0 20 7 20 20 0 13 -7 20 -20 20
-13 0 -20 -7 -20 -20z"/>
<path d="M440 1060 c0 -15 7 -20 24 -20 19 0 24 5 23 20 -1 14 -8 20 -24 20
-16 0 -23 -6 -23 -20z"/>
<path d="M540 1060 c0 -13 7 -20 20 -20 13 0 20 7 20 20 0 13 -7 20 -20 20
-13 0 -20 -7 -20 -20z"/>
<path d="M2312 1068 c-18 -18 -15 -28 8 -28 13 0 20 7 20 20 0 23 -10 26 -28
8z"/>
<path d="M2400 1060 c0 -13 7 -20 20 -20 13 0 20 7 20 20 0 13 -7 20 -20 20
-13 0 -20 -7 -20 -20z"/>
<path d="M2503 1060 c-1 -14 4 -20 18 -20 12 0 19 7 19 20 0 13 -7 20 -18 20
-11 0 -18 -8 -19 -20z"/>
<path d="M2600 1060 c0 -13 7 -20 20 -20 13 0 20 7 20 20 0 13 -7 20 -20 20
-13 0 -20 -7 -20 -20z"/>
<path d="M2690 1060 c0 -15 7 -20 25 -20 18 0 25 5 25 20 0 15 -7 20 -25 20
-18 0 -25 -5 -25 -20z"/>
<path d="M2790 1060 c0 -13 7 -20 20 -20 13 0 20 7 20 20 0 13 -7 20 -20 20
-13 0 -20 -7 -20 -20z"/>
<path d="M2890 1060 c0 -13 7 -20 20 -20 13 0 20 7 20 20 0 13 -7 20 -20 20
-13 0 -20 -7 -20 -20z"/>
<path d="M100 1010 c0 -13 7 -20 20 -20 13 0 20 7 20 20 0 13 -7 20 -20 20
-13 0 -20 -7 -20 -20z"/>
<path d="M200 1010 c0 -13 7 -20 20 -20 13 0 20 7 20 20 0 13 -7 20 -20 20
-13 0 -20 -7 -20 -20z"/>
<path d="M300 1010 c0 -13 7 -20 20 -20 13 0 20 7 20 20 0 13 -7 20 -20 20
-13 0 -20 -7 -20 -20z"/>
<path d="M397 1024 c-11 -11 5 -34 24 -34 12 0 19 7 19 20 0 19 -28 28 -43 14z"/>
<path d="M490 1010 c0 -13 7 -20 20 -20 13 0 20 7 20 20 0 13 -7 20 -20 20
-13 0 -20 -7 -20 -20z"/>
<path d="M590 1009 c0 -12 7 -19 20 -19 13 0 20 7 20 18 0 11 -8 18 -20 19
-14 1 -20 -4 -20 -18z"/>
<path d="M2350 1010 c0 -13 7 -20 20 -20 13 0 20 7 20 20 0 13 -7 20 -20 20
-13 0 -20 -7 -20 -20z"/>
<path d="M2450 1010 c0 -13 7 -20 20 -20 13 0 20 7 20 20 0 13 -7 20 -20 20
-13 0 -20 -7 -20 -20z"/>
<path d="M2550 1010 c0 -13 7 -20 20 -20 13 0 20 7 20 20 0 13 -7 20 -20 20
-13 0 -20 -7 -20 -20z"/>
<path d="M2644 1010 c0 -14 7 -20 23 -20 16 0 23 6 23 20 0 14 -7 20 -23 20
-16 0 -23 -6 -23 -20z"/>
<path d="M2740 1010 c0 -13 7 -20 20 -20 13 0 20 7 20 20 0 13 -7 20 -20 20
-13 0 -20 -7 -20 -20z"/>
<path d="M2840 1010 c0 -13 7 -20 20 -20 13 0 20 7 20 20 0 13 -7 20 -20 20
-13 0 -20 -7 -20 -20z"/>
<path d="M2940 1010 c0 -13 7 -20 20 -20 13 0 20 7 20 20 0 13 -7 20 -20 20
-13 0 -20 -7 -20 -20z"/>
<path d="M50 960 c0 -13 7 -20 20 -20 13 0 20 7 20 20 0 13 -7 20 -20 20 -13
0 -20 -7 -20 -20z"/>
<path d="M150 960 c0 -13 7 -20 20 -20 13 0 20 7 20 20 0 13 -7 20 -20 20 -13
0 -20 -7 -20 -20z"/>
<path d="M250 960 c0 -13 7 -20 20 -20 13 0 20 7 20 20 0 13 -7 20 -20 20 -13
0 -20 -7 -20 -20z"/>
<path d="M350 960 c0 -13 7 -20 20 -20 13 0 20 7 20 20 0 13 -7 20 -20 20 -13
0 -20 -7 -20 -20z"/>
<path d="M440 960 c0 -15 7 -20 25 -20 18 0 25 5 25 20 0 15 -7 20 -25 20 -18
0 -25 -5 -25 -20z"/>
<path d="M540 960 c0 -13 7 -20 20 -20 13 0 20 7 20 20 0 13 -7 20 -20 20 -13
0 -20 -7 -20 -20z"/>
<path d="M640 960 c0 -13 7 -20 20 -20 13 0 20 7 20 20 0 13 -7 20 -20 20 -13
0 -20 -7 -20 -20z"/>
<path d="M2300 960 c0 -13 7 -20 20 -20 13 0 20 7 20 20 0 13 -7 20 -20 20
-13 0 -20 -7 -20 -20z"/>
<path d="M2400 960 c0 -13 7 -20 20 -20 13 0 20 7 20 20 0 13 -7 20 -20 20
-13 0 -20 -7 -20 -20z"/>
<path d="M2500 960 c0 -13 7 -20 20 -20 13 0 20 7 20 20 0 13 -7 20 -20 20
-13 0 -20 -7 -20 -20z"/>
<path d="M2600 960 c0 -13 7 -20 20 -20 13 0 20 7 20 20 0 13 -7 20 -20 20
-13 0 -20 -7 -20 -20z"/>
<path d="M2690 960 c0 -15 7 -20 25 -20 18 0 25 5 25 20 0 15 -7 20 -25 20
-18 0 -25 -5 -25 -20z"/>
<path d="M2790 960 c0 -13 7 -20 20 -20 13 0 20 7 20 20 0 13 -7 20 -20 20
-13 0 -20 -7 -20 -20z"/>
<path d="M2890 960 c0 -13 7 -20 20 -20 13 0 20 7 20 20 0 13 -7 20 -20 20
-13 0 -20 -7 -20 -20z"/>
<path d="M703 933 c-7 -2 -13 -13 -13 -24 0 -13 7 -19 23 -18 16 1 18 2 5 6
-10 2 -18 9 -18 15 0 5 7 8 14 5 10 -4 13 -1 9 9 -3 7 -6 14 -7 13 0 0 -7 -3
-13 -6z"/>
<path d="M893 933 c-7 -3 -13 -13 -13 -24 0 -14 7 -19 28 -18 24 2 24 2 4 6
-19 4 -21 7 -11 19 13 16 10 23 -8 17z"/>
<path d="M100 910 c0 -13 7 -20 20 -20 13 0 20 7 20 20 0 13 -7 20 -20 20 -13
0 -20 -7 -20 -20z"/>
<path d="M200 910 c0 -13 7 -20 20 -20 13 0 20 7 20 20 0 13 -7 20 -20 20 -13
0 -20 -7 -20 -20z"/>
<path d="M300 910 c0 -13 7 -20 20 -20 13 0 20 7 20 20 0 13 -7 20 -20 20 -13
0 -20 -7 -20 -20z"/>
<path d="M397 910 c-4 -16 0 -20 19 -20 17 0 24 6 24 20 0 13 -7 20 -19 20
-10 0 -21 -9 -24 -20z"/>
<path d="M490 910 c0 -14 7 -20 24 -20 19 0 23 4 19 20 -3 11 -14 20 -24 20
-12 0 -19 -7 -19 -20z"/>
<path d="M590 910 c0 -13 7 -20 20 -20 13 0 20 7 20 20 0 13 -7 20 -20 20 -13
0 -20 -7 -20 -20z"/>
<path d="M2350 910 c0 -13 7 -20 20 -20 13 0 20 7 20 20 0 13 -7 20 -20 20
-13 0 -20 -7 -20 -20z"/>
<path d="M2450 910 c0 -13 7 -20 20 -20 13 0 20 7 20 20 0 13 -7 20 -20 20
-13 0 -20 -7 -20 -20z"/>
<path d="M2550 910 c0 -13 7 -20 20 -20 11 0 20 5 20 11 0 5 -4 8 -9 4 -5 -3
-13 0 -17 6 -4 7 -3 9 4 5 6 -3 13 -2 17 4 3 5 -3 10 -14 10 -14 0 -21 -6 -21
-20z"/>
<path d="M2643 910 c-1 -15 4 -20 23 -20 17 0 24 5 24 20 0 14 -7 20 -23 20
-16 0 -23 -6 -24 -20z"/>
<path d="M2740 910 c0 -13 7 -20 20 -20 13 0 20 7 20 20 0 13 -7 20 -20 20
-13 0 -20 -7 -20 -20z"/>
<path d="M2840 910 c0 -13 7 -20 20 -20 13 0 20 7 20 20 0 13 -7 20 -20 20
-13 0 -20 -7 -20 -20z"/>
<path d="M2940 910 c0 -13 7 -20 20 -20 13 0 20 7 20 20 0 13 -7 20 -20 20
-13 0 -20 -7 -20 -20z"/>
<path d="M842 878 c-20 -20 -14 -32 7 -14 19 17 20 17 24 -6 5 -23 5 -23 4 1
-2 28 -17 37 -35 19z"/>
<path d="M50 861 c0 -14 6 -21 20 -21 13 0 20 7 20 20 0 11 -5 20 -11 20 -5 0
-8 -4 -4 -9 3 -5 0 -13 -6 -17 -7 -4 -9 -3 -5 4 3 6 2 13 -4 17 -5 3 -10 -3
-10 -14z"/>
<path d="M150 861 c0 -14 6 -21 20 -21 14 0 20 6 19 23 0 12 -3 16 -6 9 -4
-10 -8 -10 -19 -1 -11 9 -14 7 -14 -10z"/>
<path d="M250 858 c0 -11 7 -18 20 -18 13 0 20 7 20 19 0 14 -6 19 -20 18 -12
-1 -20 -8 -20 -19z"/>
<path d="M350 860 c0 -13 7 -20 20 -20 13 0 20 7 20 20 0 13 -7 20 -20 20 -13
0 -20 -7 -20 -20z"/>
<path d="M440 860 c0 -15 7 -20 25 -20 20 0 25 -5 25 -25 0 -18 5 -25 20 -25
14 0 20 6 19 23 0 12 -3 16 -6 9 -7 -17 -32 15 -33 41 0 9 -3 17 -6 17 -4 0
-13 -8 -20 -17 -13 -17 -14 -17 -8 0 3 9 1 17 -5 17 -6 0 -11 -9 -11 -20z"/>
<path d="M540 860 c0 -13 7 -20 20 -20 13 0 20 7 20 20 0 13 -7 20 -20 20 -13
0 -20 -7 -20 -20z"/>
<path d="M640 860 c0 -13 7 -20 20 -20 13 0 20 7 20 20 0 13 -7 20 -20 20 -13
0 -20 -7 -20 -20z"/>
<path d="M2308 862 c-5 -17 -2 -22 13 -22 13 0 19 7 19 23 0 16 -3 18 -9 8 -7
-11 -9 -11 -13 0 -3 8 -7 5 -10 -9z"/>
<path d="M2403 859 c-1 -13 5 -19 18 -19 13 0 19 7 18 23 0 12 -3 16 -6 9 -3
-9 -9 -10 -17 -3 -8 7 -12 4 -13 -10z"/>
<path d="M2500 859 c0 -12 7 -19 20 -19 13 0 20 7 20 18 0 11 -8 18 -20 19
-14 1 -20 -4 -20 -18z"/>
<path d="M2600 860 c0 -13 7 -20 20 -20 13 0 20 7 20 20 0 13 -7 20 -20 20
-13 0 -20 -7 -20 -20z"/>
<path d="M2690 860 c0 -15 7 -20 25 -20 18 0 25 5 25 20 0 22 -15 27 -23 8 -4
-10 -6 -10 -6 0 -2 20 -21 13 -21 -8z"/>
<path d="M2790 860 c0 -13 7 -20 20 -20 14 0 20 7 20 22 0 21 0 21 -15 2 -13
-16 -14 -16 -9 -1 3 9 1 17 -5 17 -6 0 -11 -9 -11 -20z"/>
<path d="M2890 861 c0 -14 6 -21 20 -21 13 0 20 7 20 20 0 11 -5 20 -11 20 -5
0 -7 -6 -3 -12 5 -9 2 -9 -9 1 -15 12 -17 11 -17 -8z"/>
<path d="M100 814 c0 -17 6 -24 20 -24 13 0 20 7 20 19 0 10 -9 21 -20 24 -16
4 -20 0 -20 -19z"/>
<path d="M318 833 c-25 -6 -23 -43 2 -43 15 0 20 7 20 25 0 14 -1 24 -2 24 -2
-1 -11 -3 -20 -6z"/>
<path d="M603 833 c-22 -8 -15 -43 7 -43 13 0 20 7 20 19 0 22 -9 30 -27 24z"/>
<path d="M790 825 c-16 -20 0 -39 26 -32 15 4 14 5 -5 6 -23 1 -24 2 -6 21 10
11 13 20 8 20 -6 0 -16 -7 -23 -15z"/>
<path d="M2160 825 c-16 -20 0 -39 26 -32 15 4 14 5 -5 6 -23 1 -24 2 -6 21
10 11 13 20 8 20 -6 0 -16 -7 -23 -15z"/>
<path d="M2357 834 c-15 -15 -7 -44 13 -44 14 0 20 7 20 21 0 11 -4 18 -9 15
-5 -4 -11 -1 -13 5 -2 5 -7 7 -11 3z"/>
<path d="M2753 833 c-21 -8 -15 -43 7 -43 11 0 20 5 20 10 0 6 -4 10 -10 10
-5 0 -10 5 -10 11 0 5 5 7 12 3 7 -4 8 -3 4 4 -4 7 -8 12 -9 11 -1 0 -8 -3
-14 -6z"/>
<path d="M200 809 c0 -12 7 -19 20 -19 13 0 20 7 20 18 0 11 -8 18 -20 19 -14
1 -20 -4 -20 -18z"/>
<path d="M400 810 c0 -13 7 -20 20 -20 15 0 20 -7 20 -25 0 -18 -5 -25 -20
-25 -14 0 -20 -7 -20 -21 0 -12 8 -23 20 -26 11 -3 20 -14 20 -24 0 -14 7 -19
25 -19 18 0 25 5 25 20 0 15 -7 20 -25 20 -20 0 -25 5 -25 25 0 20 5 25 25 25
18 0 25 -5 25 -19 0 -10 7 -22 16 -25 23 -9 24 -8 24 19 0 18 -5 25 -20 25
-13 0 -22 9 -26 25 -4 16 -13 25 -25 25 -12 0 -19 7 -19 20 0 13 -7 20 -20 20
-13 0 -20 -7 -20 -20z"/>
<path d="M900 807 c-14 -12 -34 -33 -45 -46 -19 -22 -19 -23 -1 -20 13 3 22
-3 25 -18 l6 -21 26 21 c32 27 58 72 37 65 -7 -3 -14 -14 -16 -26 -2 -16 -10
-22 -28 -22 -19 0 -24 5 -24 25 0 18 5 25 19 25 10 0 22 7 25 16 9 25 4 25
-24 1z"/>
<path d="M1455 819 c-64 -8 -115 -30 -176 -75 -53 -39 -68 -71 -50 -110 23
-50 71 -49 139 5 90 71 219 66 314 -14 54 -46 128 -25 128 37 0 31 -20 56 -78
96 -75 53 -175 75 -277 61z m197 -63 c29 -12 68 -35 85 -50 27 -23 31 -31 23
-47 -12 -22 -33 -25 -49 -6 -10 13 -67 43 -121 64 -14 6 -54 9 -90 8 -63 -3
-117 -24 -184 -71 -54 -37 -67 18 -13 58 100 77 238 94 349 44z"/>
<path d="M2270 807 c-14 -12 -34 -33 -45 -46 -19 -22 -19 -23 -1 -20 13 3 22
-3 25 -16 6 -20 7 -20 24 -3 16 17 16 18 -3 18 -15 0 -20 7 -20 25 0 18 5 25
19 25 10 0 22 7 25 16 9 25 4 25 -24 1z"/>
<path d="M2450 808 c0 -11 7 -18 20 -18 13 0 20 7 20 19 0 14 -6 19 -20 18
-12 -1 -20 -8 -20 -19z"/>
<path d="M2550 810 c0 -13 7 -20 20 -20 13 0 20 7 20 20 0 13 -7 20 -20 20
-13 0 -20 -7 -20 -20z"/>
<path d="M2640 810 c0 -13 -7 -20 -20 -20 -30 0 -28 -47 3 -52 14 -2 21 -9 19
-19 -1 -11 7 -19 23 -23 16 -4 25 -13 25 -26 0 -15 7 -20 25 -20 18 0 25 5 25
20 0 15 -7 20 -25 20 -20 0 -25 5 -25 25 0 34 47 37 52 3 5 -34 38 -37 38 -4
0 19 -5 26 -19 26 -13 0 -21 8 -23 23 -2 14 -11 23 -25 25 -15 2 -23 10 -23
23 0 14 -7 19 -25 19 -18 0 -25 -5 -25 -20z m50 -45 c0 -20 -5 -25 -25 -25
-20 0 -25 5 -25 25 0 20 5 25 25 25 20 0 25 -5 25 -25z"/>
<path d="M2840 808 c0 -11 7 -18 20 -18 13 0 20 7 20 19 0 14 -6 19 -20 18
-12 -1 -20 -8 -20 -19z"/>
<path d="M2940 810 c0 -13 7 -20 20 -20 13 0 20 7 20 20 0 13 -7 20 -20 20
-13 0 -20 -7 -20 -20z"/>
<path d="M8 798 c-9 -5 -4 -8 15 -8 22 0 27 -4 27 -25 0 -19 -5 -25 -22 -25
-18 0 -20 -2 -8 -10 9 -6 18 -6 24 0 6 6 18 10 28 10 13 0 18 8 18 25 0 18 -5
25 -20 25 -11 0 -20 4 -20 8 0 11 -25 11 -42 0z"/>
<path d="M150 765 c0 -18 5 -25 20 -25 15 0 20 7 20 25 0 18 -5 25 -20 25 -15
0 -20 -7 -20 -25z"/>
<path d="M250 765 c0 -18 5 -25 20 -25 15 0 20 7 20 25 0 18 -5 25 -20 25 -15
0 -20 -7 -20 -25z"/>
<path d="M350 765 c0 -18 5 -25 20 -25 15 0 20 7 20 25 0 18 -5 25 -20 25 -15
0 -20 -7 -20 -25z"/>
<path d="M540 765 c0 -18 5 -25 20 -25 15 0 20 7 20 25 0 18 -5 25 -20 25 -15
0 -20 -7 -20 -25z"/>
<path d="M640 765 c0 -18 5 -25 20 -25 15 0 20 7 20 25 0 18 -5 25 -20 25 -15
0 -20 -7 -20 -25z"/>
<path d="M2300 765 c0 -18 5 -25 20 -25 15 0 20 7 20 25 0 18 -5 25 -20 25
-15 0 -20 -7 -20 -25z"/>
<path d="M2400 765 c0 -18 5 -25 20 -25 15 0 20 6 19 28 -1 17 -3 20 -6 9 -2
-9 -9 -15 -14 -11 -5 3 -7 10 -4 15 4 5 1 9 -4 9 -6 0 -11 -11 -11 -25z"/>
<path d="M2500 765 c0 -18 5 -25 20 -25 15 0 20 7 20 25 0 18 -5 25 -20 25
-15 0 -20 -7 -20 -25z"/>
<path d="M2790 765 c0 -18 5 -25 20 -25 15 0 20 7 20 25 0 18 -5 25 -20 25
-15 0 -20 -7 -20 -25z"/>
<path d="M2890 765 c0 -18 5 -25 20 -25 15 0 20 7 20 25 0 18 -5 25 -20 25
-15 0 -20 -7 -20 -25z"/>
<path d="M100 717 c0 -16 6 -23 20 -23 14 0 20 7 20 23 0 16 -6 23 -20 23 -14
0 -20 -7 -20 -23z"/>
<path d="M202 718 c5 -34 38 -37 38 -4 0 20 -5 26 -21 26 -15 0 -20 -5 -17
-22z"/>
<path d="M302 718 c2 -13 10 -23 18 -23 8 0 16 10 18 23 3 17 -2 22 -18 22
-16 0 -21 -5 -18 -22z"/>
<path d="M592 718 c4 -31 38 -33 38 -2 0 18 -5 24 -21 24 -15 0 -20 -5 -17
-22z"/>
<path d="M803 733 c18 -5 18 -5 0 -26 -17 -20 -17 -20 0 -14 10 4 21 7 23 7 2
0 4 9 4 20 0 14 -6 20 -22 19 -19 -1 -19 -2 -5 -6z"/>
<path d="M1003 734 c4 -4 0 -16 -10 -26 -15 -16 -15 -18 0 -18 9 0 21 9 26 19
8 15 7 20 -6 26 -10 3 -14 3 -10 -1z"/>
<path d="M1981 732 c3 -19 -2 -25 -11 -12 -8 12 -10 11 -10 -7 0 -27 12 -29
34 -7 20 19 20 20 1 28 -8 3 -14 2 -14 -2z"/>
<path d="M2350 721 c0 -10 9 -21 20 -24 16 -4 20 0 20 19 0 17 -6 24 -20 24
-13 0 -20 -7 -20 -19z"/>
<path d="M2452 718 c5 -34 38 -37 38 -4 0 20 -5 26 -21 26 -15 0 -20 -5 -17
-22z"/>
<path d="M2552 718 c2 -13 10 -23 18 -23 8 0 16 10 18 23 3 17 -2 22 -18 22
-16 0 -21 -5 -18 -22z"/>
<path d="M2842 718 c4 -31 38 -33 38 -2 0 18 -5 24 -21 24 -15 0 -20 -5 -17
-22z"/>
<path d="M2942 718 c2 -13 10 -23 18 -23 8 0 16 10 18 23 3 17 -2 22 -18 22
-16 0 -21 -5 -18 -22z"/>
<path d="M2298 674 c2 -12 -4 -31 -14 -43 l-19 -21 -12 32 -13 33 6 -35 c4
-19 8 -38 11 -43 7 -11 43 12 43 28 0 7 9 17 20 20 11 3 20 11 20 17 0 5 -7 8
-15 4 -8 -3 -15 -1 -15 4 0 5 8 10 18 12 12 3 10 5 -9 9 -22 5 -25 3 -21 -17z"/>
<path d="M51 668 c1 -17 2 -19 6 -5 2 9 9 17 15 17 5 0 8 -7 4 -15 -3 -8 -1
-15 4 -15 6 0 10 9 10 20 0 13 -7 20 -20 20 -14 0 -20 -6 -19 -22z"/>
<path d="M150 670 c0 -13 7 -20 20 -20 13 0 20 7 20 20 0 13 -7 20 -20 20 -13
0 -20 -7 -20 -20z"/>
<path d="M250 670 c0 -13 7 -20 20 -20 13 0 20 7 20 20 0 13 -7 20 -20 20 -13
0 -20 -7 -20 -20z"/>
<path d="M350 670 c0 -13 7 -20 20 -20 13 0 20 7 20 20 0 13 -7 20 -20 20 -13
0 -20 -7 -20 -20z"/>
<path d="M540 670 c0 -13 7 -20 20 -20 13 0 20 7 20 20 0 13 -7 20 -20 20 -13
0 -20 -7 -20 -20z"/>
<path d="M640 670 c0 -13 7 -20 20 -20 13 0 20 7 20 20 0 13 -7 20 -20 20 -13
0 -20 -7 -20 -20z"/>
<path d="M835 679 c-11 -17 3 -23 22 -8 15 12 16 12 10 -3 -3 -10 -2 -20 3
-23 6 -4 10 5 10 19 0 19 -5 26 -19 26 -11 0 -23 -5 -26 -11z"/>
<path d="M2400 670 c0 -13 7 -20 20 -20 13 0 20 7 20 20 0 13 -7 20 -20 20
-13 0 -20 -7 -20 -20z"/>
<path d="M2500 670 c0 -13 7 -20 20 -20 13 0 20 7 20 20 0 13 -7 20 -20 20
-13 0 -20 -7 -20 -20z"/>
<path d="M2600 670 c0 -13 7 -20 20 -20 13 0 20 7 20 20 0 13 -7 20 -20 20
-13 0 -20 -7 -20 -20z"/>
<path d="M2790 670 c0 -13 7 -20 20 -20 13 0 20 7 20 20 0 13 -7 20 -20 20
-13 0 -20 -7 -20 -20z"/>
<path d="M2890 670 c0 -13 7 -20 20 -20 13 0 20 7 20 20 0 13 -7 20 -20 20
-13 0 -20 -7 -20 -20z"/>
<path d="M1903 640 c-23 -22 -38 -42 -33 -45 9 -6 40 21 40 35 0 5 9 11 19 15
19 6 38 35 23 35 -5 0 -27 -18 -49 -40z"/>
<path d="M100 620 c0 -13 7 -20 20 -20 13 0 20 7 20 20 0 13 -7 20 -20 20 -13
0 -20 -7 -20 -20z"/>
<path d="M200 620 c0 -13 7 -20 20 -20 13 0 20 7 20 20 0 13 -7 20 -20 20 -13
0 -20 -7 -20 -20z"/>
<path d="M300 620 c0 -13 7 -20 20 -20 13 0 20 7 20 20 0 13 -7 20 -20 20 -13
0 -20 -7 -20 -20z"/>
<path d="M397 620 c3 -11 14 -20 24 -20 12 0 19 7 19 20 0 14 -7 20 -24 20
-19 0 -23 -4 -19 -20z"/>
<path d="M490 620 c0 -13 7 -20 20 -20 13 0 20 7 20 20 0 13 -7 20 -20 20 -13
0 -20 -7 -20 -20z"/>
<path d="M590 620 c0 -13 7 -20 20 -20 13 0 20 7 20 20 0 13 -7 20 -20 20 -13
0 -20 -7 -20 -20z"/>
<path d="M690 630 c0 -5 8 -7 18 -4 15 5 14 3 -2 -10 -22 -18 -17 -30 8 -20
23 9 21 44 -4 44 -11 0 -20 -4 -20 -10z"/>
<path d="M2080 630 c13 -9 7 -14 -12 -11 -5 0 -8 -6 -8 -14 0 -13 4 -14 20 -5
25 13 26 40 3 40 -15 0 -16 -2 -3 -10z"/>
<path d="M2350 620 c0 -13 7 -20 20 -20 13 0 20 7 20 20 0 13 -7 20 -20 20
-13 0 -20 -7 -20 -20z"/>
<path d="M2450 620 c0 -13 7 -20 20 -20 13 0 20 7 20 20 0 13 -7 20 -20 20
-13 0 -20 -7 -20 -20z"/>
<path d="M2550 620 c0 -13 7 -20 20 -20 13 0 20 7 20 20 0 13 -7 20 -20 20
-13 0 -20 -7 -20 -20z"/>
<path d="M2640 620 c0 -15 7 -20 25 -20 18 0 25 5 25 20 0 15 -7 20 -25 20
-18 0 -25 -5 -25 -20z"/>
<path d="M2740 620 c0 -13 7 -20 20 -20 13 0 20 7 20 20 0 13 -7 20 -20 20
-13 0 -20 -7 -20 -20z"/>
<path d="M2840 620 c0 -13 7 -20 20 -20 13 0 20 7 20 20 0 13 -7 20 -20 20
-13 0 -20 -7 -20 -20z"/>
<path d="M2940 620 c0 -13 7 -20 20 -20 13 0 20 7 20 20 0 13 -7 20 -20 20
-13 0 -20 -7 -20 -20z"/>
<path d="M50 570 c0 -13 7 -20 20 -20 13 0 20 7 20 20 0 13 -7 20 -20 20 -13
0 -20 -7 -20 -20z"/>
<path d="M150 570 c0 -13 7 -20 20 -20 13 0 20 7 20 20 0 13 -7 20 -20 20 -13
0 -20 -7 -20 -20z"/>
<path d="M250 570 c0 -13 7 -20 20 -20 13 0 20 7 20 20 0 13 -7 20 -20 20 -13
0 -20 -7 -20 -20z"/>
<path d="M350 570 c0 -13 7 -20 20 -20 13 0 20 7 20 20 0 13 -7 20 -20 20 -13
0 -20 -7 -20 -20z"/>
<path d="M440 570 c0 -14 7 -20 23 -20 16 0 23 6 23 20 0 14 -7 20 -23 20 -16
0 -23 -6 -23 -20z"/>
<path d="M540 570 c0 -13 7 -20 20 -20 13 0 20 7 20 20 0 13 -7 20 -20 20 -13
0 -20 -7 -20 -20z"/>
<path d="M640 570 c0 -13 7 -20 20 -20 13 0 20 7 20 20 0 13 -7 20 -20 20 -13
0 -20 -7 -20 -20z"/>
<path d="M2300 570 c0 -13 7 -20 20 -20 13 0 20 7 20 20 0 13 -7 20 -20 20
-13 0 -20 -7 -20 -20z"/>
<path d="M2400 570 c0 -13 7 -20 20 -20 13 0 20 7 20 20 0 13 -7 20 -20 20
-13 0 -20 -7 -20 -20z"/>
<path d="M2500 570 c0 -13 7 -20 20 -20 13 0 20 7 20 20 0 13 -7 20 -20 20
-13 0 -20 -7 -20 -20z"/>
<path d="M2600 570 c0 -13 7 -20 20 -20 13 0 20 7 20 20 0 13 -7 20 -20 20
-13 0 -20 -7 -20 -20z"/>
<path d="M2690 570 c0 -15 7 -20 25 -20 18 0 25 5 25 20 0 15 -7 20 -25 20
-18 0 -25 -5 -25 -20z"/>
<path d="M2790 570 c0 -13 7 -20 20 -20 13 0 20 7 20 20 0 13 -7 20 -20 20
-13 0 -20 -7 -20 -20z"/>
<path d="M2890 570 c0 -13 7 -20 20 -20 13 0 20 7 20 20 0 13 -7 20 -20 20
-13 0 -20 -7 -20 -20z"/>
<path d="M100 520 c0 -13 7 -20 20 -20 13 0 20 7 20 20 0 13 -7 20 -20 20 -13
0 -20 -7 -20 -20z"/>
<path d="M200 520 c0 -13 7 -20 20 -20 13 0 20 7 20 20 0 13 -7 20 -20 20 -13
0 -20 -7 -20 -20z"/>
<path d="M300 520 c0 -13 7 -20 20 -20 13 0 20 7 20 20 0 13 -7 20 -20 20 -13
0 -20 -7 -20 -20z"/>
<path d="M394 520 c0 -14 7 -20 23 -20 16 0 23 6 23 20 0 14 -7 20 -23 20 -16
0 -23 -6 -23 -20z"/>
<path d="M490 520 c0 -13 7 -20 20 -20 13 0 20 7 20 20 0 13 -7 20 -20 20 -13
0 -20 -7 -20 -20z"/>
<path d="M590 520 c0 -13 7 -20 20 -20 13 0 20 7 20 20 0 13 -7 20 -20 20 -13
0 -20 -7 -20 -20z"/>
<path d="M815 530 c-4 -6 -10 -8 -14 -6 -4 3 -8 -1 -8 -9 0 -8 9 -15 19 -15
11 0 18 7 18 20 0 22 -5 26 -15 10z"/>
<path d="M2350 520 c0 -13 7 -20 20 -20 13 0 20 7 20 20 0 13 -7 20 -20 20
-13 0 -20 -7 -20 -20z"/>
<path d="M2450 520 c0 -13 7 -20 20 -20 13 0 20 7 20 20 0 13 -7 20 -20 20
-13 0 -20 -7 -20 -20z"/>
<path d="M2550 520 c0 -13 7 -20 20 -20 13 0 20 7 20 20 0 13 -7 20 -20 20
-13 0 -20 -7 -20 -20z"/>
<path d="M2640 520 c0 -15 7 -20 25 -20 18 0 25 5 25 20 0 15 -7 20 -25 20
-18 0 -25 -5 -25 -20z"/>
<path d="M2740 520 c0 -13 7 -20 20 -20 13 0 20 7 20 20 0 13 -7 20 -20 20
-13 0 -20 -7 -20 -20z"/>
<path d="M2840 520 c0 -13 7 -20 20 -20 13 0 20 7 20 20 0 13 -7 20 -20 20
-13 0 -20 -7 -20 -20z"/>
<path d="M2940 520 c0 -13 7 -20 20 -20 13 0 20 7 20 20 0 13 -7 20 -20 20
-13 0 -20 -7 -20 -20z"/>
<path d="M1461 492 c-128 -65 -88 -252 54 -252 148 0 185 198 48 256 -42 18
-61 18 -102 -4z m110 -45 c39 -30 48 -106 17 -144 -16 -19 -75 -27 -108 -13
-91 38 -65 170 34 170 23 0 48 -6 57 -13z"/>
<path d="M1043 493 c-18 -6 -16 -43 1 -43 8 0 18 4 21 10 4 6 -1 7 -12 4 -17
-5 -17 -5 0 9 19 15 12 28 -10 20z"/>
<path d="M1235 484 c-13 -14 -14 -19 -3 -25 22 -14 38 -10 38 10 0 28 -15 34
-35 15z"/>
<path d="M50 471 c0 -14 6 -21 20 -21 14 0 20 7 20 22 0 21 0 21 -16 2 -8 -10
-13 -14 -10 -7 4 6 2 14 -4 18 -5 3 -10 -3 -10 -14z"/>
<path d="M150 470 c0 -13 7 -20 20 -20 13 0 20 7 20 20 0 13 -7 20 -20 20 -13
0 -20 -7 -20 -20z"/>
<path d="M250 470 c0 -13 7 -20 20 -20 13 0 20 7 20 20 0 13 -7 20 -20 20 -13
0 -20 -7 -20 -20z"/>
<path d="M350 470 c0 -13 7 -20 20 -20 13 0 20 7 20 20 0 13 -7 20 -20 20 -13
0 -20 -7 -20 -20z"/>
<path d="M440 470 c0 -14 7 -20 23 -20 16 0 23 6 23 20 0 14 -7 20 -23 20 -16
0 -23 -6 -23 -20z"/>
<path d="M540 470 c0 -13 7 -20 20 -20 13 0 20 7 20 20 0 13 -7 20 -20 20 -13
0 -20 -7 -20 -20z"/>
<path d="M640 470 c0 -13 7 -20 18 -20 11 0 18 8 19 20 1 14 -4 20 -18 20 -12
0 -19 -7 -19 -20z"/>
<path d="M743 472 c2 -28 30 -26 36 3 3 16 1 17 -12 7 -12 -10 -16 -10 -20 0
-3 7 -4 3 -4 -10z"/>
<path d="M2400 470 c0 -13 7 -20 20 -20 13 0 20 7 20 20 0 13 -7 20 -20 20
-13 0 -20 -7 -20 -20z"/>
<path d="M2500 470 c0 -13 7 -20 20 -20 13 0 20 7 20 20 0 13 -7 20 -20 20
-13 0 -20 -7 -20 -20z"/>
<path d="M2600 470 c0 -13 7 -20 20 -20 13 0 20 7 20 20 0 13 -7 20 -20 20
-13 0 -20 -7 -20 -20z"/>
<path d="M2690 470 c0 -15 7 -20 25 -20 18 0 25 5 25 20 0 15 -7 20 -25 20
-18 0 -25 -5 -25 -20z"/>
<path d="M2790 470 c0 -13 7 -20 20 -20 13 0 20 7 20 20 0 13 -7 20 -20 20
-13 0 -20 -7 -20 -20z"/>
<path d="M2890 470 c0 -13 7 -20 20 -20 13 0 20 7 20 20 0 13 -7 20 -20 20
-13 0 -20 -7 -20 -20z"/>
<path d="M993 443 c-7 -3 -13 -13 -13 -24 0 -14 7 -19 28 -18 24 2 24 2 4 6
-19 4 -21 7 -11 19 13 16 10 23 -8 17z"/>
<path d="M100 420 c0 -13 7 -20 20 -20 13 0 20 7 20 20 0 13 -7 20 -20 20 -13
0 -20 -7 -20 -20z"/>
<path d="M200 423 c0 -16 6 -23 20 -23 13 0 20 7 20 20 0 11 -4 20 -10 20 -5
0 -10 -6 -10 -12 0 -9 -4 -8 -10 2 -8 12 -10 11 -10 -7z"/>
<path d="M300 420 c0 -13 7 -20 20 -20 13 0 20 7 20 20 0 13 -7 20 -20 20 -13
0 -20 -7 -20 -20z"/>
<path d="M397 420 c-4 -16 0 -20 19 -20 17 0 24 6 24 20 0 13 -7 20 -19 20
-10 0 -21 -9 -24 -20z"/>
<path d="M490 420 c0 -13 7 -20 20 -20 14 0 20 7 20 23 0 18 -2 19 -10 7 -6
-10 -10 -11 -10 -2 0 6 -4 12 -10 12 -5 0 -10 -9 -10 -20z"/>
<path d="M590 420 c0 -13 7 -20 20 -20 13 0 20 7 20 20 0 13 -7 20 -20 20 -13
0 -20 -7 -20 -20z"/>
<path d="M1886 423 c-6 -15 -8 -15 -16 -3 -8 13 -10 12 -10 -2 0 -11 8 -18 20
-18 11 0 20 2 20 4 0 2 3 11 6 20 3 9 2 16 -4 16 -5 0 -13 -8 -16 -17z"/>
<path d="M2085 430 c-4 -6 -10 -8 -14 -6 -4 3 -8 -1 -8 -9 0 -8 9 -15 19 -15
11 0 18 7 18 20 0 22 -5 26 -15 10z"/>
<path d="M2350 420 c0 -13 7 -20 20 -20 13 0 20 7 20 20 0 13 -7 20 -20 20
-13 0 -20 -7 -20 -20z"/>
<path d="M2450 420 c0 -13 7 -20 20 -20 13 0 20 7 20 20 0 13 -7 20 -20 20
-13 0 -20 -7 -20 -20z"/>
<path d="M2550 422 c0 -15 6 -22 20 -22 13 0 20 7 20 20 0 11 -5 20 -11 20 -6
0 -8 -8 -5 -17 5 -15 4 -15 -9 1 -15 19 -15 19 -15 -2z"/>
<path d="M2647 433 c-16 -15 -6 -33 18 -33 18 0 25 5 25 20 0 20 -28 28 -43
13z"/>
<path d="M2740 420 c0 -14 7 -20 24 -20 19 0 23 4 19 20 -3 11 -14 20 -24 20
-12 0 -19 -7 -19 -20z"/>
<path d="M2840 419 c0 -12 7 -19 20 -19 13 0 20 7 20 18 0 11 -8 18 -20 19
-14 1 -20 -4 -20 -18z"/>
<path d="M2940 420 c0 -13 7 -20 20 -20 13 0 20 7 20 20 0 13 -7 20 -20 20
-13 0 -20 -7 -20 -20z"/>
<path d="M943 393 c-7 -3 -13 -13 -13 -24 0 -14 7 -19 28 -18 24 2 24 2 4 6
-19 4 -21 7 -11 19 13 16 10 23 -8 17z"/>
<path d="M50 371 c0 -14 6 -21 20 -21 13 0 20 7 20 20 0 11 -5 20 -11 20 -5 0
-8 -4 -4 -9 3 -5 0 -13 -6 -17 -7 -4 -9 -3 -5 4 3 6 2 13 -4 17 -5 3 -10 -3
-10 -14z"/>
<path d="M150 371 c0 -14 6 -21 20 -21 14 0 20 6 19 23 0 12 -3 16 -6 9 -4
-10 -8 -10 -19 -1 -11 9 -14 7 -14 -10z"/>
<path d="M250 370 c0 -13 7 -20 20 -20 13 0 20 7 20 20 0 13 -7 20 -20 20 -13
0 -20 -7 -20 -20z"/>
<path d="M350 373 c0 -16 6 -23 20 -23 13 0 20 7 20 20 0 11 -4 20 -10 20 -5
0 -10 -6 -10 -12 0 -9 -4 -8 -10 2 -8 12 -10 11 -10 -7z"/>
<path d="M440 370 c0 -13 -7 -20 -19 -20 -13 0 -21 -8 -23 -22 -2 -15 -11 -24
-25 -26 -18 -3 -23 -10 -22 -30 0 -15 3 -21 6 -14 4 10 9 9 24 -4 10 -9 19
-23 19 -31 0 -7 9 -13 20 -13 13 0 20 7 20 20 0 15 -7 20 -25 20 -20 0 -25 5
-25 25 0 20 5 25 25 25 18 0 25 -5 25 -19 0 -11 4 -22 9 -25 16 -10 41 5 41
25 0 12 7 19 20 19 15 0 20 6 19 28 0 24 -1 25 -9 7 -7 -16 -9 -16 -9 -4 -1 9
-8 19 -16 23 -8 3 -15 12 -15 21 0 8 -9 15 -20 15 -13 0 -20 -7 -20 -20z m50
-45 c0 -20 -5 -25 -25 -25 -20 0 -25 5 -25 25 0 20 5 25 25 25 20 0 25 -5 25
-25z"/>
<path d="M540 370 c0 -13 7 -20 20 -20 14 0 20 7 20 23 0 18 -2 19 -10 7 -6
-10 -10 -11 -10 -2 0 6 -4 12 -10 12 -5 0 -10 -9 -10 -20z"/>
<path d="M640 371 c0 -14 6 -21 20 -21 14 0 20 6 19 23 -1 16 -2 18 -6 5 -2
-10 -9 -18 -14 -18 -6 0 -8 4 -4 9 3 5 1 12 -5 16 -5 3 -10 -3 -10 -14z"/>
<path d="M2300 370 c0 -13 7 -20 20 -20 13 0 20 7 20 20 0 13 -7 20 -20 20
-13 0 -20 -7 -20 -20z"/>
<path d="M2400 370 c0 -13 7 -20 20 -20 14 0 20 7 20 23 0 18 -2 19 -10 7 -6
-10 -10 -11 -10 -2 0 6 -4 12 -10 12 -5 0 -10 -9 -10 -20z"/>
<path d="M2500 368 c0 -11 7 -18 20 -18 13 0 20 7 20 19 0 14 -6 19 -20 18
-12 -1 -20 -8 -20 -19z"/>
<path d="M2600 370 c0 -13 7 -20 20 -20 13 0 20 7 20 20 0 13 -7 20 -20 20
-13 0 -20 -7 -20 -20z"/>
<path d="M2690 371 c0 -13 -8 -21 -22 -23 -15 -2 -24 -11 -26 -25 -2 -15 -10
-23 -23 -23 -14 0 -19 -7 -19 -25 0 -18 5 -25 20 -25 13 0 20 -7 20 -20 0 -15
7 -20 25 -20 18 0 25 5 25 20 0 15 -7 20 -25 20 -20 0 -25 5 -25 25 0 20 5 25
25 25 18 0 25 -5 25 -19 0 -11 4 -22 9 -25 16 -10 41 5 41 25 0 12 7 19 20 19
15 0 20 7 20 25 0 18 -5 25 -20 25 -13 0 -20 7 -20 20 0 25 -9 25 -26 3 -13
-17 -14 -17 -8 0 3 9 1 17 -5 17 -6 0 -11 -9 -11 -19z m50 -46 c0 -20 -5 -25
-25 -25 -20 0 -25 5 -25 25 0 20 5 25 25 25 20 0 25 -5 25 -25z"/>
<path d="M2790 370 c0 -13 7 -20 20 -20 14 0 20 7 20 22 0 21 0 21 -15 2 -13
-16 -14 -16 -9 -1 3 9 1 17 -5 17 -6 0 -11 -9 -11 -20z"/>
<path d="M2890 368 c0 -11 7 -18 20 -18 13 0 20 7 20 19 0 14 -6 19 -20 18
-12 -1 -20 -8 -20 -19z"/>
<path d="M100 323 c0 -16 6 -23 20 -23 15 0 20 7 20 24 0 19 -5 24 -20 23 -14
-1 -20 -8 -20 -24z"/>
<path d="M200 325 c0 -18 5 -25 20 -25 15 0 20 7 20 25 0 18 -5 25 -20 25 -15
0 -20 -7 -20 -25z"/>
<path d="M300 325 c0 -18 5 -25 20 -25 15 0 20 7 20 28 0 20 -3 23 -9 12 -6
-8 -7 -18 -4 -24 3 -5 1 -6 -5 -2 -6 4 -9 13 -5 21 3 8 0 15 -6 15 -6 0 -11
-11 -11 -25z"/>
<path d="M590 325 c0 -18 5 -25 20 -25 15 0 20 7 20 25 0 18 -5 25 -20 25 -15
0 -20 -7 -20 -25z"/>
<path d="M697 343 c-4 -3 -7 -15 -7 -25 0 -12 7 -18 23 -17 17 1 18 2 4 6 -20
5 -17 30 2 25 7 -1 10 2 6 8 -7 12 -19 13 -28 3z"/>
<path d="M1280 335 c-15 -18 -7 -31 23 -37 20 -4 23 -1 19 16 -3 11 -7 15 -10
8 -2 -6 -11 -12 -19 -12 -14 0 -14 3 2 20 10 11 13 20 8 20 -6 0 -16 -7 -23
-15z"/>
<path d="M1867 343 c-4 -3 -7 -15 -7 -25 0 -12 7 -18 24 -18 13 0 27 -5 29
-10 3 -6 4 -5 3 2 -1 7 -12 14 -24 16 -27 4 -28 17 -4 31 14 9 15 10 1 11 -9
0 -19 -3 -22 -7z"/>
<path d="M2257 343 c-4 -3 -7 -14 -7 -24 0 -11 -9 -19 -22 -21 -13 -2 -24 -11
-26 -22 -4 -18 -2 -18 23 2 29 23 70 29 78 12 3 -6 4 -5 3 2 -1 7 -13 14 -25
16 -22 3 -22 4 -5 23 14 16 15 19 2 19 -8 0 -18 -3 -21 -7z"/>
<path d="M2350 324 c0 -17 5 -24 20 -24 14 0 20 7 20 23 0 16 -6 23 -20 24
-15 1 -20 -4 -20 -23z"/>
<path d="M2450 325 c0 -18 5 -25 20 -25 15 0 20 7 20 25 0 18 -5 25 -20 25
-15 0 -20 -7 -20 -25z"/>
<path d="M2550 323 c0 -16 6 -23 20 -23 15 0 20 7 20 24 0 19 -5 24 -20 23
-14 -1 -20 -8 -20 -24z"/>
<path d="M2840 325 c0 -18 5 -25 20 -25 15 0 20 7 20 25 0 18 -5 25 -20 25
-15 0 -20 -7 -20 -25z"/>
<path d="M2941 328 c-1 -22 4 -28 19 -28 15 0 20 7 20 25 0 14 -5 25 -11 25
-5 0 -7 -4 -4 -10 3 -5 2 -10 -4 -10 -5 0 -12 6 -14 13 -3 6 -6 0 -6 -15z"/>
<path d="M36 326 c4 -9 -2 -16 -18 -19 -21 -4 -20 -4 5 -6 22 -1 27 -6 27 -26
0 -19 -5 -25 -22 -25 -22 -1 -22 -1 -4 -11 11 -7 21 -8 25 -2 3 5 14 12 23 16
25 9 23 47 -2 47 -11 0 -20 6 -20 14 0 8 -4 18 -10 21 -5 3 -7 0 -4 -9z"/>
<path d="M1784 319 c-19 -21 -19 -21 0 -18 13 3 22 -3 25 -16 6 -19 7 -20 23
-3 16 16 15 17 -5 20 -15 2 -21 9 -19 21 4 22 -1 22 -24 -4z"/>
<path d="M916 302 c22 -15 21 -38 -4 -64 -14 -15 -23 -31 -19 -34 9 -9 37 15
37 32 0 8 6 14 14 14 22 0 41 29 28 42 -9 9 -12 8 -12 -5 0 -9 -5 -17 -11 -17
-6 0 -9 6 -6 14 3 8 -1 17 -9 20 -21 8 -31 7 -18 -2z"/>
<path d="M150 275 c0 -18 5 -25 20 -25 15 0 20 7 20 25 0 18 -5 25 -20 25 -15
0 -20 -7 -20 -25z"/>
<path d="M250 277 c0 -16 6 -23 20 -24 15 -1 20 4 20 23 0 17 -5 24 -20 24
-14 0 -20 -7 -20 -23z"/>
<path d="M540 275 c0 -18 5 -25 20 -25 15 0 20 7 20 25 0 18 -5 25 -20 25 -15
0 -20 -7 -20 -25z"/>
<path d="M640 273 c0 -26 1 -26 16 -7 8 10 13 14 10 7 -4 -6 -2 -14 4 -18 6
-4 10 5 10 19 0 19 -5 26 -20 26 -15 0 -20 -7 -20 -27z"/>
<path d="M1226 285 c-7 -18 10 -20 20 -3 6 9 10 5 15 -12 l7 -25 1 28 c1 20
-4 27 -18 27 -10 0 -21 -7 -25 -15z"/>
<path d="M1935 290 c3 -6 -1 -13 -9 -16 -20 -8 -21 -24 -1 -24 22 0 38 37 19
44 -9 3 -12 2 -9 -4z"/>
<path d="M2400 275 c0 -18 5 -25 20 -25 15 0 20 7 20 25 0 18 -5 25 -20 25
-15 0 -20 -7 -20 -25z"/>
<path d="M2500 277 c0 -16 6 -23 20 -24 15 -1 20 4 20 23 0 17 -5 24 -20 24
-14 0 -20 -7 -20 -23z"/>
<path d="M2790 275 c0 -18 5 -25 20 -25 15 0 20 7 20 25 0 18 -5 25 -20 25
-15 0 -20 -7 -20 -25z"/>
<path d="M2890 275 c0 -18 5 -25 20 -25 15 0 20 7 20 25 0 18 -5 25 -20 25
-15 0 -20 -7 -20 -25z"/>
<path d="M2294 250 c-15 -16 -31 -27 -35 -24 -5 3 -6 -2 -3 -10 5 -12 11 -13
25 -5 10 5 19 16 19 24 0 7 9 17 20 20 11 3 20 11 20 16 0 18 -20 9 -46 -21z"/>
<path d="M100 231 c0 -10 9 -21 20 -24 16 -4 20 0 20 19 0 17 -6 24 -20 24
-13 0 -20 -7 -20 -19z"/>
<path d="M200 230 c0 -13 7 -20 20 -20 13 0 20 7 20 20 0 13 -7 20 -20 20 -13
0 -20 -7 -20 -20z"/>
<path d="M300 230 c0 -13 7 -20 20 -20 13 0 20 7 20 20 0 13 -7 20 -20 20 -13
0 -20 -7 -20 -20z"/>
<path d="M490 230 c0 -13 7 -20 20 -20 13 0 20 7 20 20 0 13 -7 20 -20 20 -13
0 -20 -7 -20 -20z"/>
<path d="M590 232 c0 -24 8 -32 26 -25 22 8 17 43 -6 43 -13 0 -20 -7 -20 -18z"/>
<path d="M691 228 c-1 -16 3 -28 7 -28 13 0 32 23 32 40 -1 11 -3 10 -12 -5
-11 -19 -11 -19 -19 0 -6 17 -8 16 -8 -7z"/>
<path d="M1176 235 c-7 -18 10 -20 20 -3 6 9 10 5 15 -12 l7 -25 1 28 c1 20
-4 27 -18 27 -10 0 -21 -7 -25 -15z"/>
<path d="M1697 237 c-4 -10 -11 -15 -17 -12 -5 3 -10 -1 -10 -9 0 -18 8 -20
28 -7 8 5 12 17 10 27 -3 18 -4 18 -11 1z"/>
<path d="M2083 238 c1 -7 -4 -12 -10 -10 -7 1 -13 -5 -13 -13 0 -18 12 -19 28
-3 15 15 16 38 2 38 -5 0 -9 -6 -7 -12z"/>
<path d="M2350 230 c0 -13 7 -20 20 -20 13 0 20 7 20 20 0 13 -7 20 -20 20
-13 0 -20 -7 -20 -20z"/>
<path d="M2450 230 c0 -13 7 -20 20 -20 13 0 20 7 20 20 0 13 -7 20 -20 20
-13 0 -20 -7 -20 -20z"/>
<path d="M2550 230 c0 -13 7 -20 20 -20 13 0 20 7 20 20 0 13 -7 20 -20 20
-13 0 -20 -7 -20 -20z"/>
<path d="M2740 230 c0 -13 7 -20 20 -20 13 0 20 7 20 20 0 13 -7 20 -20 20
-13 0 -20 -7 -20 -20z"/>
<path d="M2840 230 c0 -13 7 -20 20 -20 13 0 20 7 20 20 0 13 -7 20 -20 20
-13 0 -20 -7 -20 -20z"/>
<path d="M2940 230 c0 -13 7 -20 20 -20 13 0 20 7 20 20 0 13 -7 20 -20 20
-13 0 -20 -7 -20 -20z"/>
<path d="M51 178 c1 -17 2 -19 6 -5 2 9 8 17 13 17 5 0 7 -7 4 -15 -4 -8 -1
-15 5 -15 6 0 11 9 11 20 0 13 -7 20 -20 20 -14 0 -20 -6 -19 -22z"/>
<path d="M150 180 c0 -13 7 -20 20 -20 13 0 20 7 20 20 0 13 -7 20 -20 20 -13
0 -20 -7 -20 -20z"/>
<path d="M250 180 c0 -13 7 -20 20 -20 13 0 20 7 20 20 0 13 -7 20 -20 20 -13
0 -20 -7 -20 -20z"/>
<path d="M350 180 c0 -13 7 -20 20 -20 13 0 20 7 20 20 0 13 -7 20 -20 20 -13
0 -20 -7 -20 -20z"/>
<path d="M440 180 c0 -15 7 -20 25 -20 18 0 25 5 25 20 0 15 -7 20 -25 20 -18
0 -25 -5 -25 -20z"/>
<path d="M540 180 c0 -13 7 -20 20 -20 13 0 20 7 20 20 0 13 -7 20 -20 20 -13
0 -20 -7 -20 -20z"/>
<path d="M640 180 c0 -13 7 -20 20 -20 13 0 20 7 20 20 0 13 -7 20 -20 20 -13
0 -20 -7 -20 -20z"/>
<path d="M1840 185 c-7 -8 -16 -12 -21 -9 -5 3 -6 -2 -3 -10 7 -19 44 -3 44
19 0 19 -4 19 -20 0z"/>
<path d="M2035 191 c3 -6 -3 -14 -12 -20 -21 -12 -13 -24 11 -15 18 7 22 44 5
44 -5 0 -8 -4 -4 -9z"/>
<path d="M2106 185 c-7 -18 5 -20 23 -2 11 10 13 9 8 -5 -3 -10 -2 -20 3 -23
6 -4 10 5 10 19 0 19 -5 26 -19 26 -10 0 -21 -7 -25 -15z"/>
<path d="M2400 180 c0 -13 7 -20 20 -20 13 0 20 7 20 20 0 13 -7 20 -20 20
-13 0 -20 -7 -20 -20z"/>
<path d="M2503 180 c-1 -14 4 -20 18 -20 12 0 19 7 19 20 0 13 -7 20 -18 20
-11 0 -18 -8 -19 -20z"/>
<path d="M2600 180 c0 -13 7 -20 20 -20 13 0 20 7 20 20 0 13 -7 20 -20 20
-13 0 -20 -7 -20 -20z"/>
<path d="M2690 180 c0 -15 7 -20 25 -20 18 0 25 5 25 20 0 15 -7 20 -25 20
-18 0 -25 -5 -25 -20z"/>
<path d="M2790 180 c0 -13 7 -20 20 -20 13 0 20 7 20 20 0 13 -7 20 -20 20
-13 0 -20 -7 -20 -20z"/>
<path d="M2890 180 c0 -13 7 -20 20 -20 13 0 20 7 20 20 0 13 -7 20 -20 20
-13 0 -20 -7 -20 -20z"/>
<path d="M1358 158 c7 -7 12 -20 12 -29 0 -26 16 -32 34 -13 23 22 20 41 -3
20 -18 -16 -19 -16 -25 9 -4 14 -12 25 -18 25 -9 0 -9 -3 0 -12z"/>
<path d="M978 135 c5 -29 36 -34 46 -9 10 25 -2 30 -19 8 -13 -17 -14 -17 -15
-2 0 9 -4 19 -9 22 -4 3 -6 -6 -3 -19z"/>
<path d="M100 130 c0 -13 7 -20 20 -20 13 0 20 7 20 20 0 13 -7 20 -20 20 -13
0 -20 -7 -20 -20z"/>
<path d="M200 130 c0 -13 7 -20 20 -20 13 0 20 7 20 20 0 13 -7 20 -20 20 -13
0 -20 -7 -20 -20z"/>
<path d="M300 130 c0 -13 7 -20 20 -20 13 0 20 7 20 20 0 13 -7 20 -20 20 -13
0 -20 -7 -20 -20z"/>
<path d="M393 130 c-1 -15 4 -20 23 -20 17 0 24 5 24 20 0 14 -7 20 -23 20
-16 0 -23 -6 -24 -20z"/>
<path d="M490 130 c0 -13 7 -20 20 -20 13 0 20 7 20 20 0 13 -7 20 -20 20 -13
0 -20 -7 -20 -20z"/>
<path d="M590 130 c0 -13 7 -20 20 -20 13 0 20 7 20 20 0 13 -7 20 -20 20 -13
0 -20 -7 -20 -20z"/>
<path d="M690 129 c0 -22 0 -22 16 -3 13 16 15 16 10 2 -3 -10 -1 -18 5 -18
17 0 5 35 -14 38 -12 3 -17 -3 -17 -19z"/>
<path d="M2350 129 c0 -12 7 -19 20 -19 13 0 20 7 20 18 0 11 -8 18 -20 19
-14 1 -20 -4 -20 -18z"/>
<path d="M2450 130 c0 -13 7 -20 20 -20 13 0 20 7 20 20 0 13 -7 20 -20 20
-13 0 -20 -7 -20 -20z"/>
<path d="M2550 130 c0 -13 7 -20 20 -20 13 0 20 7 20 20 0 13 -7 20 -20 20
-13 0 -20 -7 -20 -20z"/>
<path d="M2643 130 c1 -14 8 -20 24 -20 16 0 23 6 23 20 0 15 -7 20 -24 20
-19 0 -24 -5 -23 -20z"/>
<path d="M2740 130 c0 -13 7 -20 20 -20 13 0 20 7 20 20 0 13 -7 20 -20 20
-13 0 -20 -7 -20 -20z"/>
<path d="M2840 130 c0 -13 7 -20 20 -20 13 0 20 7 20 20 0 13 -7 20 -20 20
-13 0 -20 -7 -20 -20z"/>
<path d="M2940 130 c0 -13 7 -20 20 -20 13 0 20 7 20 20 0 13 -7 20 -20 20
-13 0 -20 -7 -20 -20z"/>
<path d="M2295 107 c3 -10 5 -25 5 -33 0 -8 9 -14 20 -14 13 0 20 7 20 20 0
11 -4 20 -10 20 -5 0 -9 -3 -9 -7 4 -25 -4 -24 -17 2 -8 17 -12 22 -9 12z"/>
<path d="M50 80 c0 -11 5 -20 11 -20 5 0 8 4 4 9 -3 5 0 13 6 17 7 4 9 3 5 -4
-3 -6 -2 -13 4 -17 5 -3 10 3 10 14 0 14 -6 21 -20 21 -13 0 -20 -7 -20 -20z"/>
<path d="M150 80 c0 -13 7 -20 20 -20 13 0 20 7 20 20 0 13 -7 20 -20 20 -13
0 -20 -7 -20 -20z"/>
<path d="M250 80 c0 -13 7 -20 20 -20 13 0 20 7 20 20 0 13 -7 20 -20 20 -13
0 -20 -7 -20 -20z"/>
<path d="M350 80 c0 -13 7 -20 20 -20 13 0 20 7 20 20 0 13 -7 20 -20 20 -13
0 -20 -7 -20 -20z"/>
<path d="M440 80 c0 -13 7 -20 19 -20 10 0 21 9 24 20 4 16 0 20 -19 20 -17 0
-24 -6 -24 -20z"/>
<path d="M540 80 c0 -13 7 -20 20 -20 13 0 20 7 20 20 0 13 -7 20 -20 20 -13
0 -20 -7 -20 -20z"/>
<path d="M640 79 c0 -14 5 -19 17 -17 26 5 29 38 4 38 -15 0 -21 -6 -21 -21z"/>
<path d="M2207 93 c-4 -3 -7 -11 -7 -17 0 -6 5 -5 12 2 17 17 31 15 24 -3 -3
-8 -1 -15 4 -15 6 0 10 9 10 20 0 20 -28 28 -43 13z"/>
<path d="M2400 80 c0 -13 7 -20 20 -20 13 0 20 7 20 20 0 13 -7 20 -20 20 -13
0 -20 -7 -20 -20z"/>
<path d="M2500 80 c0 -13 7 -20 20 -20 13 0 20 7 20 20 0 13 -7 20 -20 20 -13
0 -20 -7 -20 -20z"/>
<path d="M2600 80 c0 -13 7 -20 20 -20 13 0 20 7 20 20 0 13 -7 20 -20 20 -13
0 -20 -7 -20 -20z"/>
<path d="M2690 81 c0 -16 6 -21 25 -21 18 0 25 5 25 20 0 11 -7 20 -16 20 -8
0 -13 -4 -9 -9 3 -5 0 -13 -6 -17 -7 -4 -9 -3 -5 4 3 6 2 13 -4 17 -5 3 -10
-3 -10 -14z"/>
<path d="M2790 80 c0 -13 7 -20 20 -20 13 0 20 7 20 20 0 13 -7 20 -20 20 -13
0 -20 -7 -20 -20z"/>
<path d="M2890 80 c0 -13 7 -20 20 -20 13 0 20 7 20 20 0 13 -7 20 -20 20 -13
0 -20 -7 -20 -20z"/>
<path d="M200 30 c0 -11 4 -20 10 -20 5 0 7 8 4 18 -5 14 -3 14 10 -2 16 -19
16 -19 16 2 0 15 -6 22 -20 22 -13 0 -20 -7 -20 -20z"/>
<path d="M300 30 c0 -13 7 -20 20 -20 13 0 20 7 20 20 0 13 -7 20 -20 20 -13
0 -20 -7 -20 -20z"/>
<path d="M590 30 c0 -11 5 -20 11 -20 5 0 7 6 3 13 -6 9 -3 8 9 -1 14 -12 16
-11 14 7 -2 28 -37 29 -37 1z"/>
<path d="M2450 30 c0 -11 4 -20 10 -20 5 0 7 8 4 18 -5 15 -4 15 10 -2 14 -18
15 -18 13 3 -2 28 -37 29 -37 1z"/>
<path d="M2550 30 c0 -13 7 -20 19 -20 14 0 19 6 18 20 -2 27 -37 27 -37 0z"/>
<path d="M2652 33 c5 -26 38 -29 38 -4 0 15 -6 21 -21 21 -14 0 -19 -5 -17
-17z"/>
<path d="M2840 30 c0 -11 5 -20 11 -20 5 0 8 4 4 9 -3 5 -1 12 4 15 5 4 12 -2
14 -11 4 -14 5 -13 6 5 1 16 -5 22 -19 22 -13 0 -20 -7 -20 -20z"/>
<path d="M2940 30 c0 -11 4 -20 10 -20 5 0 7 8 4 18 -5 14 -3 14 10 -2 16 -19
16 -19 16 2 0 15 -6 22 -20 22 -13 0 -20 -7 -20 -20z"/>
</g>
</svg>
