 <svg  version="1.0" xmlns="http://www.w3.org/2000/svg"  width="300.000000pt" height="300.000000pt" viewBox="0 0 300.000000 300.000000"  preserveAspectRatio="xMidYMid meet">  <g transform="translate(0.000000,300.000000) scale(0.100000,-0.100000)" fill="#353535" stroke="none"> <path d="M0 1500 l0 -1500 1500 0 1500 0 0 1500 0 1500 -1500 0 -1500 0 0 -1500z m2566 225 c25 -16 26 -19 20 -84 -13 -133 -107 -301 -168 -301 -24 0 -23 13 12 99 17 41 33 100 37 132 8 77 -2 82 -162 78 -68 -2 -127 -1 -131 3 -19 20 66 70 151 88 65 14 210 5 241 -15z m-2015 -72 c115 -59 132 -66 250 -108 469 -169 1022 -163 1469 16 70 28 109 30 124 6 9 -16 4 -24 -34 -58 -95 -83 -342 -185 -560 -231 -144 -30 -447 -32 -590 -4 -89 17 -260 65 -305 85 -102 46 -210 101 -258 133 -32 21 -63 38 -68 38 -5 0 -9 3 -9 8 -1 4 -34 32 -75 62 -72 54 -93 79 -80 100 10 16 16 14 136 -47z"/> </g> </svg> 