 <svg  version="1.0" xmlns="http://www.w3.org/2000/svg"  width="300.000000pt" height="300.000000pt" viewBox="0 0 300.000000 300.000000"  preserveAspectRatio="xMidYMid meet">  <g transform="translate(0.000000,300.000000) scale(0.100000,-0.100000)" fill="#0080ff" stroke="none"> <path d="M1400 2993 c-368 -28 -695 -178 -955 -438 -259 -259 -400 -563 -435 -939 -25 -264 41 -582 168 -816 137 -252 348 -467 594 -606 380 -216 861 -248 1268 -87 210 83 357 180 515 338 158 158 255 305 338 515 136 343 136 737 0 1080 -83 210 -180 357 -338 515 -257 257 -562 400 -931 435 -106 10 -131 10 -224 3z m350 -109 c187 -35 394 -120 549 -227 102 -70 249 -212 327 -316 124 -164 224 -396 260 -604 23 -125 22 -363 0 -482 -37 -193 -121 -395 -229 -554 -66 -98 -260 -292 -358 -358 -159 -109 -362 -192 -554 -228 -122 -23 -369 -23 -490 0 -208 39 -434 137 -596 259 -104 78 -246 225 -316 327 -108 157 -192 361 -229 554 -23 122 -23 368 0 490 40 208 138 434 260 596 78 104 225 246 327 316 145 100 351 188 524 223 140 29 382 31 525 4z"/> <path d="M1313 2803 c-25 -5 -31 -44 -36 -241 l-2 -113 40 3 40 3 5 130 5 130 43 -89 c23 -49 42 -93 42 -97 0 -5 17 -9 39 -9 l38 0 43 95 c24 52 45 94 46 92 1 -1 5 -56 9 -121 3 -66 9 -124 11 -128 3 -4 21 -8 39 -8 l35 0 -7 173 c-3 94 -7 173 -8 175 -1 2 -29 4 -60 5 l-58 2 -43 -105 -42 -105 -14 35 c-8 19 -27 68 -43 108 -28 71 -28 72 -64 71 -20 -1 -46 -4 -58 -6z"/> <path d="M2156 2445 c-48 -74 -89 -141 -91 -147 -3 -7 11 -25 30 -41 l34 -27 91 45 c49 25 92 45 96 45 3 0 -15 -38 -40 -85 -25 -47 -46 -90 -46 -97 1 -7 13 -27 28 -45 l28 -32 147 92 c81 51 147 94 147 97 -1 3 -12 18 -25 33 l-25 28 -100 -65 c-55 -36 -100 -63 -100 -61 0 3 19 43 42 90 l42 84 -24 26 c-13 14 -29 25 -35 25 -7 0 -47 -18 -90 -41 -42 -22 -79 -38 -81 -36 -2 2 25 47 60 99 l65 95 -22 20 c-12 11 -27 23 -34 27 -7 4 -44 -45 -97 -129z"/> <path d="M660 2513 c-25 -5 -132 -108 -204 -196 l-40 -49 124 -116 c68 -65 126 -117 129 -117 11 0 201 205 221 238 28 44 25 74 -9 108 -23 23 -38 29 -71 29 -23 0 -39 4 -36 9 13 21 -17 73 -50 87 -18 8 -35 13 -36 13 -2 -1 -14 -4 -28 -6z m44 -69 c35 -14 17 -57 -56 -133 -70 -73 -71 -74 -97 -58 -14 8 -27 20 -29 26 -4 11 145 171 159 171 4 0 14 -3 23 -6z m125 -102 c6 -11 5 -24 -2 -38 -18 -32 -141 -164 -153 -164 -6 0 -21 11 -34 25 l-24 26 84 84 c85 86 112 100 129 67z"/> <path d="M1400 2379 c-226 -25 -449 -148 -590 -325 -239 -301 -257 -725 -45 -1045 149 -223 389 -364 664 -388 167 -15 307 11 458 84 307 149 497 454 495 795 -2 244 -89 455 -258 624 -189 188 -461 284 -724 255z m277 -55 c320 -66 581 -327 647 -647 9 -42 16 -99 16 -127 l0 -50 -420 0 -420 0 0 -420 0 -420 -50 0 c-239 0 -512 158 -657 382 -82 124 -133 282 -133 408 l0 50 420 0 420 0 0 420 0 420 50 0 c28 0 85 -7 127 -16z"/> </g> </svg> 