 <svg  version="1.0" xmlns="http://www.w3.org/2000/svg"  width="300.000000pt" height="169.000000pt" viewBox="0 0 300.000000 169.000000"  preserveAspectRatio="xMidYMid meet">  <g transform="translate(0.000000,169.000000) scale(0.100000,-0.100000)" fill="#003d79" stroke="none"> <path d="M1270 1489 c-406 -41 -718 -159 -906 -344 -112 -111 -139 -167 -139 -295 0 -85 3 -101 29 -154 65 -134 246 -275 454 -357 248 -97 464 -133 792 -133 256 1 393 17 590 70 323 88 558 241 646 421 25 50 29 70 29 148 0 80 -3 97 -31 155 -95 201 -360 360 -737 444 -62 14 -150 30 -197 36 -119 15 -417 21 -530 9z m542 -115 c192 -23 358 -67 358 -94 0 -31 -187 -144 -361 -218 -248 -106 -430 -150 -512 -123 -82 27 -95 90 -47 222 54 148 103 208 186 228 48 11 219 4 376 -15z m-732 -32 c0 -4 -33 -51 -72 -104 -123 -162 -307 -490 -381 -676 -9 -23 -24 -45 -32 -48 -30 -12 -162 94 -216 172 -37 54 -61 144 -53 198 29 189 256 353 624 450 61 16 130 20 130 8z m1388 -191 c169 -114 236 -277 171 -416 -31 -66 -137 -172 -224 -222 -96 -56 -236 -109 -372 -144 -154 -39 -162 -33 -84 65 114 143 264 399 362 616 55 121 66 140 81 140 5 0 35 -17 66 -39z m-753 -396 c62 -30 70 -88 26 -212 -49 -142 -104 -210 -190 -233 -102 -27 -600 34 -704 87 -37 19 -26 38 60 95 96 64 226 127 386 187 235 88 351 109 422 76z"/> </g> </svg> 