<?xml version="1.0" standalone="no"?>
<!DOCTYPE svg PUBLIC "-//W3C//DTD SVG 20010904//EN"
 "http://www.w3.org/TR/2001/REC-SVG-20010904/DTD/svg10.dtd">
<svg version="1.0" xmlns="http://www.w3.org/2000/svg"
 width="300.000000pt" height="195.000000pt" viewBox="0 0 300.000000 195.000000"
 preserveAspectRatio="xMidYMid meet">
<metadata>
Created by potrace 1.10, written by Peter Selinger 2001-2011
</metadata>
<g transform="translate(0.000000,195.000000) scale(0.050000,-0.050000)"
fill="#000000" stroke="none">
<path d="M2668 3859 c-2479 -189 -3515 -2124 -1753 -3274 1680 -1097 4613
-478 5016 1058 325 1236 -1336 2364 -3263 2216z m1012 -289 c1232 -208 1397
-793 298 -1060 -289 -70 -291 -69 -307 42 -87 581 -382 1036 -671 1036 -289 0
-584 -455 -671 -1036 -16 -111 -18 -112 -307 -42 -376 91 -671 264 -723 424
-103 311 395 565 1321 674 159 19 878 -7 1060 -38z m-614 -438 c137 -58 246
-235 319 -520 56 -215 80 -202 -385 -202 -465 0 -441 -13 -385 202 72 281 181
460 315 520 74 33 60 33 136 0z m-2209 -486 c134 -262 603 -512 1186 -631
l214 -44 12 -190 c43 -685 200 -1226 419 -1441 95 -94 94 -95 -83 -76 -1682
176 -2658 1502 -1883 2556 l67 90 13 -92 c8 -50 32 -128 55 -172z m4533 -8
c550 -1048 -426 -2210 -1995 -2374 -177 -19 -178 -18 -83 76 216 213 378 764
418 1421 l13 210 214 44 c731 149 1239 486 1244 825 l1 70 58 -68 c32 -38 91
-130 130 -204z m-1930 -749 c0 -219 -88 -607 -179 -787 -250 -496 -626 -195
-720 577 -35 283 -91 251 439 251 449 0 460 -1 460 -41z"/>
</g>
</svg>
